<svg width="40" height="40" viewBox="0 0 40 40" fill="none" xmlns="http://www.w3.org/2000/svg">
<g clip-path="url(#clip0_51_492)">
<mask id="path-1-outside-1_51_492" maskUnits="userSpaceOnUse" x="-0.947266" y="1" width="42" height="39" fill="black">
<rect fill="white" x="-0.947266" y="1" width="42" height="39"/>
<path d="M18.3285 2.01818C18.4016 2.01795 18.4748 2.01772 18.5503 2.01748C18.7943 2.0168 19.0383 2.01668 19.2823 2.01657C19.4578 2.0162 19.6332 2.01581 19.8087 2.01539C20.2846 2.01437 20.7604 2.01386 21.2363 2.01351C21.5339 2.01329 21.8315 2.01296 22.1291 2.01262C22.9545 2.01167 23.7798 2.01086 24.6052 2.01059C24.6579 2.01058 24.7106 2.01056 24.765 2.01054C24.8443 2.01052 24.8443 2.01052 24.9251 2.01049C25.0322 2.01046 25.1393 2.01042 25.2464 2.01039C25.2995 2.01037 25.3526 2.01035 25.4074 2.01033C26.2675 2.01003 27.1276 2.00866 27.9878 2.00684C28.8726 2.00499 29.7575 2.00404 30.6424 2.00392C31.1385 2.00384 31.6346 2.00338 32.1307 2.00199C32.5976 2.00069 33.0645 2.00053 33.5314 2.00122C33.7021 2.00128 33.8729 2.00094 34.0437 2.00016C35.7004 1.99309 37.0713 2.21132 38.3592 3.35728C38.407 3.39877 38.4549 3.44026 38.5042 3.48301C39.325 4.24403 39.9491 5.45352 40.0145 6.57775C40.0205 6.89374 40.0214 7.20939 40.0207 7.52542C40.021 7.64812 40.0214 7.77083 40.0218 7.89353C40.0228 8.22984 40.0227 8.56614 40.0225 8.90244C40.0225 9.26549 40.0234 9.62854 40.0241 9.99159C40.0254 10.7025 40.0258 11.4134 40.0259 12.1244C40.026 12.7023 40.0263 13.2803 40.0268 13.8582C40.0282 15.4973 40.0289 17.1364 40.0288 18.7755C40.0288 18.908 40.0288 18.908 40.0288 19.0432C40.0288 19.1316 40.0288 19.2201 40.0288 19.3112C40.0287 20.7446 40.0302 22.178 40.0324 23.6113C40.0346 25.0837 40.0357 26.556 40.0356 28.0283C40.0355 28.8546 40.036 29.681 40.0376 30.5074C40.0391 31.211 40.0394 31.9145 40.0383 32.6181C40.0378 32.9769 40.0378 33.3357 40.0392 33.6945C40.0404 34.0233 40.0402 34.3521 40.0388 34.6809C40.0386 34.7995 40.0389 34.9181 40.0397 35.0367C40.0473 36.1304 39.8123 37.0014 39.0651 37.8229C38.4346 38.4329 37.6397 38.7572 36.7666 38.7581C36.7165 38.7583 36.6664 38.7585 36.6147 38.7586C36.446 38.7591 36.2774 38.759 36.1087 38.7589C35.9868 38.7591 35.8649 38.7593 35.743 38.7596C35.4075 38.7602 35.072 38.7603 34.7365 38.7604C34.3748 38.7605 34.0131 38.7611 33.6515 38.7616C32.8602 38.7627 32.0689 38.7632 31.2776 38.7635C30.7833 38.7637 30.2891 38.7641 29.7948 38.7644C28.4259 38.7654 27.0571 38.7662 25.6882 38.7664C25.5567 38.7665 25.5567 38.7665 25.4226 38.7665C25.3348 38.7665 25.2469 38.7665 25.1564 38.7665C24.9784 38.7666 24.8004 38.7666 24.6224 38.7666C24.5341 38.7667 24.4458 38.7667 24.3548 38.7667C22.9254 38.767 21.496 38.7684 20.0666 38.7702C18.5986 38.772 17.1305 38.773 15.6624 38.7731C14.8384 38.7732 14.0144 38.7736 13.1903 38.775C12.4883 38.7763 11.7863 38.7766 11.0842 38.776C10.7263 38.7757 10.3684 38.7758 10.0105 38.7769C9.68218 38.7779 9.35384 38.7778 9.02548 38.7768C8.90738 38.7767 8.78929 38.7769 8.6712 38.7776C6.58852 38.7889 4.74884 38.0721 3.24997 36.6123C1.75362 35.0342 1.38978 33.1247 1.12289 31.0526C1.09675 30.8533 1.07055 30.654 1.04431 30.4548C1.00206 30.1333 0.959999 29.8118 0.918412 29.4902C0.830599 28.8114 0.740781 28.1329 0.649061 27.4546C0.575698 26.9119 0.503292 26.369 0.431521 25.8261C0.387617 25.4942 0.343336 25.1623 0.298057 24.8306C-0.170605 21.3891 -0.146266 18.1914 1.99692 15.2664C2.32825 14.8475 2.68485 14.453 3.04672 14.0604C3.13826 13.9566 3.22943 13.8524 3.32016 13.7479C3.5852 13.4436 3.85547 13.1442 4.12582 12.8446C4.27528 12.678 4.4232 12.5104 4.57016 12.3416C4.8352 12.0373 5.10547 11.7379 5.37582 11.4383C5.52528 11.2718 5.67319 11.1041 5.82016 10.9354C6.0852 10.6311 6.35547 10.3317 6.62582 10.0321C6.77528 9.86554 6.92319 9.69788 7.07016 9.52915C7.3352 9.22484 7.60546 8.92541 7.87582 8.62583C8.02528 8.45929 8.17319 8.29164 8.32016 8.1229C8.5852 7.81859 8.85546 7.51916 9.12582 7.21958C9.27528 7.05304 9.42319 6.88539 9.57016 6.71665C9.83543 6.41208 10.1057 6.11217 10.377 5.81303C10.4791 5.69862 10.5798 5.58282 10.6773 5.46452C12.2953 3.50619 14.9232 2.34907 17.4015 2.04578C17.7103 2.01668 18.0185 2.01787 18.3285 2.01818ZM11.4363 7.20554C11.3748 7.27624 11.3132 7.34694 11.2498 7.41978C11.2004 7.47597 11.1509 7.53217 11.1 7.59006C11.0127 7.6895 10.9258 7.78919 10.8391 7.88914C10.6784 8.07292 10.515 8.25418 10.3514 8.4354C10.1413 8.66826 9.93241 8.902 9.72641 9.13852C9.46136 9.44283 9.1911 9.74226 8.92074 10.0418C8.77129 10.2084 8.62337 10.376 8.47641 10.5448C8.21136 10.8491 7.9411 11.1485 7.67074 11.4481C7.52129 11.6146 7.37337 11.7823 7.22641 11.951C6.96137 12.2553 6.6911 12.5548 6.42074 12.8543C6.27129 13.0209 6.12337 13.1885 5.97641 13.3573C5.7704 13.5938 5.56155 13.8275 5.35141 14.0604C5.10166 14.3374 4.85253 14.6147 4.60892 14.8972C4.48782 15.0361 4.36509 15.1725 4.24087 15.3086C2.61985 17.1086 1.63057 19.3697 1.7065 21.8146C1.75116 22.6068 1.87278 23.3951 1.97649 24.1813C2.01323 24.4608 2.04916 24.7405 2.08522 25.0201C2.14587 25.4892 2.20717 25.9583 2.26887 26.4274C2.33973 26.9662 2.40949 27.5051 2.47867 28.0441C2.54581 28.5671 2.6138 29.0899 2.68214 29.6127C2.71095 29.8331 2.73946 30.0536 2.76772 30.2742C3.05488 32.5108 3.33773 34.5291 5.23269 36.008C6.17863 36.6566 7.24883 37.0378 8.40006 37.0396C8.5018 37.04 8.60353 37.0403 8.70835 37.0407C8.82071 37.0407 8.93307 37.0406 9.04543 37.0406C9.16521 37.0409 9.28499 37.0412 9.40477 37.0415C9.73371 37.0423 10.0627 37.0426 10.3916 37.0428C10.7464 37.0431 11.1013 37.0438 11.4561 37.0445C12.3128 37.0461 13.1695 37.0468 14.0261 37.0475C14.4296 37.0479 14.8331 37.0483 15.2366 37.0487C16.5779 37.05 17.9191 37.0512 19.2604 37.0517C19.6083 37.0519 19.9562 37.052 20.304 37.0522C20.3905 37.0522 20.477 37.0523 20.5661 37.0523C21.9675 37.053 23.3689 37.0549 24.7703 37.0575C26.2092 37.0601 27.6482 37.0615 29.0871 37.0617C29.895 37.0619 30.7028 37.0626 31.5107 37.0646C32.1985 37.0663 32.8863 37.0669 33.5741 37.0661C33.925 37.0658 34.2759 37.0659 34.6267 37.0674C34.9481 37.0688 35.2695 37.0687 35.5909 37.0675C35.707 37.0673 35.823 37.0677 35.9391 37.0686C36.6283 37.0738 37.2739 37.0746 37.8021 36.5799C38.1711 36.183 38.3005 35.8222 38.3012 35.2786C38.3019 35.126 38.3019 35.126 38.3027 34.9704C38.3025 34.8576 38.3022 34.7449 38.302 34.6322C38.3023 34.5123 38.3026 34.3924 38.3031 34.2726C38.304 33.943 38.304 33.6135 38.3038 33.2839C38.3038 32.9285 38.3046 32.5731 38.3054 32.2177C38.3067 31.5213 38.3071 30.8249 38.3072 30.1285C38.3073 29.5623 38.3076 28.9961 38.3081 28.4298C38.3095 26.8243 38.3102 25.2188 38.3101 23.6133C38.3101 23.5267 38.31 23.4402 38.31 23.351C38.31 23.2209 38.31 23.2209 38.31 23.0883C38.31 21.6842 38.3114 20.2802 38.3137 18.8762C38.3159 17.4343 38.317 15.9925 38.3168 14.5506C38.3168 13.7412 38.3172 12.9318 38.3189 12.1224C38.3203 11.4331 38.3207 10.7437 38.3196 10.0544C38.3191 9.70285 38.3191 9.35133 38.3204 8.99979C38.3217 8.67751 38.3214 8.35527 38.3201 8.03299C38.3198 7.91685 38.3201 7.80071 38.321 7.68457C38.3292 6.51616 38.066 5.61281 37.2603 4.74613C36.4949 4.01358 35.5541 3.72276 34.513 3.72754C34.443 3.72724 34.373 3.72694 34.3008 3.72663C34.0674 3.72583 33.834 3.72613 33.6006 3.72645C33.4327 3.72611 33.2648 3.7257 33.0969 3.72524C32.6415 3.72419 32.1861 3.72414 31.7307 3.72434C31.3497 3.72443 30.9686 3.72404 30.5876 3.72367C29.6876 3.7228 28.7876 3.72277 27.8876 3.72324C26.9619 3.72371 26.0362 3.72275 25.1105 3.72109C24.3138 3.71971 23.5172 3.71924 22.7205 3.7195C22.2456 3.71964 21.7706 3.71944 21.2957 3.71835C20.8482 3.71736 20.4008 3.71752 19.9533 3.71854C19.7901 3.71872 19.6269 3.71851 19.4637 3.71786C16.2721 3.70607 13.5721 4.78732 11.4363 7.20554Z"/>
</mask>
<path d="M18.3285 2.01818C18.4016 2.01795 18.4748 2.01772 18.5503 2.01748C18.7943 2.0168 19.0383 2.01668 19.2823 2.01657C19.4578 2.0162 19.6332 2.01581 19.8087 2.01539C20.2846 2.01437 20.7604 2.01386 21.2363 2.01351C21.5339 2.01329 21.8315 2.01296 22.1291 2.01262C22.9545 2.01167 23.7798 2.01086 24.6052 2.01059C24.6579 2.01058 24.7106 2.01056 24.765 2.01054C24.8443 2.01052 24.8443 2.01052 24.9251 2.01049C25.0322 2.01046 25.1393 2.01042 25.2464 2.01039C25.2995 2.01037 25.3526 2.01035 25.4074 2.01033C26.2675 2.01003 27.1276 2.00866 27.9878 2.00684C28.8726 2.00499 29.7575 2.00404 30.6424 2.00392C31.1385 2.00384 31.6346 2.00338 32.1307 2.00199C32.5976 2.00069 33.0645 2.00053 33.5314 2.00122C33.7021 2.00128 33.8729 2.00094 34.0437 2.00016C35.7004 1.99309 37.0713 2.21132 38.3592 3.35728C38.407 3.39877 38.4549 3.44026 38.5042 3.48301C39.325 4.24403 39.9491 5.45352 40.0145 6.57775C40.0205 6.89374 40.0214 7.20939 40.0207 7.52542C40.021 7.64812 40.0214 7.77083 40.0218 7.89353C40.0228 8.22984 40.0227 8.56614 40.0225 8.90244C40.0225 9.26549 40.0234 9.62854 40.0241 9.99159C40.0254 10.7025 40.0258 11.4134 40.0259 12.1244C40.026 12.7023 40.0263 13.2803 40.0268 13.8582C40.0282 15.4973 40.0289 17.1364 40.0288 18.7755C40.0288 18.908 40.0288 18.908 40.0288 19.0432C40.0288 19.1316 40.0288 19.2201 40.0288 19.3112C40.0287 20.7446 40.0302 22.178 40.0324 23.6113C40.0346 25.0837 40.0357 26.556 40.0356 28.0283C40.0355 28.8546 40.036 29.681 40.0376 30.5074C40.0391 31.211 40.0394 31.9145 40.0383 32.6181C40.0378 32.9769 40.0378 33.3357 40.0392 33.6945C40.0404 34.0233 40.0402 34.3521 40.0388 34.6809C40.0386 34.7995 40.0389 34.9181 40.0397 35.0367C40.0473 36.1304 39.8123 37.0014 39.0651 37.8229C38.4346 38.4329 37.6397 38.7572 36.7666 38.7581C36.7165 38.7583 36.6664 38.7585 36.6147 38.7586C36.446 38.7591 36.2774 38.759 36.1087 38.7589C35.9868 38.7591 35.8649 38.7593 35.743 38.7596C35.4075 38.7602 35.072 38.7603 34.7365 38.7604C34.3748 38.7605 34.0131 38.7611 33.6515 38.7616C32.8602 38.7627 32.0689 38.7632 31.2776 38.7635C30.7833 38.7637 30.2891 38.7641 29.7948 38.7644C28.4259 38.7654 27.0571 38.7662 25.6882 38.7664C25.5567 38.7665 25.5567 38.7665 25.4226 38.7665C25.3348 38.7665 25.2469 38.7665 25.1564 38.7665C24.9784 38.7666 24.8004 38.7666 24.6224 38.7666C24.5341 38.7667 24.4458 38.7667 24.3548 38.7667C22.9254 38.767 21.496 38.7684 20.0666 38.7702C18.5986 38.772 17.1305 38.773 15.6624 38.7731C14.8384 38.7732 14.0144 38.7736 13.1903 38.775C12.4883 38.7763 11.7863 38.7766 11.0842 38.776C10.7263 38.7757 10.3684 38.7758 10.0105 38.7769C9.68218 38.7779 9.35384 38.7778 9.02548 38.7768C8.90738 38.7767 8.78929 38.7769 8.6712 38.7776C6.58852 38.7889 4.74884 38.0721 3.24997 36.6123C1.75362 35.0342 1.38978 33.1247 1.12289 31.0526C1.09675 30.8533 1.07055 30.654 1.04431 30.4548C1.00206 30.1333 0.959999 29.8118 0.918412 29.4902C0.830599 28.8114 0.740781 28.1329 0.649061 27.4546C0.575698 26.9119 0.503292 26.369 0.431521 25.8261C0.387617 25.4942 0.343336 25.1623 0.298057 24.8306C-0.170605 21.3891 -0.146266 18.1914 1.99692 15.2664C2.32825 14.8475 2.68485 14.453 3.04672 14.0604C3.13826 13.9566 3.22943 13.8524 3.32016 13.7479C3.5852 13.4436 3.85547 13.1442 4.12582 12.8446C4.27528 12.678 4.4232 12.5104 4.57016 12.3416C4.8352 12.0373 5.10547 11.7379 5.37582 11.4383C5.52528 11.2718 5.67319 11.1041 5.82016 10.9354C6.0852 10.6311 6.35547 10.3317 6.62582 10.0321C6.77528 9.86554 6.92319 9.69788 7.07016 9.52915C7.3352 9.22484 7.60546 8.92541 7.87582 8.62583C8.02528 8.45929 8.17319 8.29164 8.32016 8.1229C8.5852 7.81859 8.85546 7.51916 9.12582 7.21958C9.27528 7.05304 9.42319 6.88539 9.57016 6.71665C9.83543 6.41208 10.1057 6.11217 10.377 5.81303C10.4791 5.69862 10.5798 5.58282 10.6773 5.46452C12.2953 3.50619 14.9232 2.34907 17.4015 2.04578C17.7103 2.01668 18.0185 2.01787 18.3285 2.01818ZM11.4363 7.20554C11.3748 7.27624 11.3132 7.34694 11.2498 7.41978C11.2004 7.47597 11.1509 7.53217 11.1 7.59006C11.0127 7.6895 10.9258 7.78919 10.8391 7.88914C10.6784 8.07292 10.515 8.25418 10.3514 8.4354C10.1413 8.66826 9.93241 8.902 9.72641 9.13852C9.46136 9.44283 9.1911 9.74226 8.92074 10.0418C8.77129 10.2084 8.62337 10.376 8.47641 10.5448C8.21136 10.8491 7.9411 11.1485 7.67074 11.4481C7.52129 11.6146 7.37337 11.7823 7.22641 11.951C6.96137 12.2553 6.6911 12.5548 6.42074 12.8543C6.27129 13.0209 6.12337 13.1885 5.97641 13.3573C5.7704 13.5938 5.56155 13.8275 5.35141 14.0604C5.10166 14.3374 4.85253 14.6147 4.60892 14.8972C4.48782 15.0361 4.36509 15.1725 4.24087 15.3086C2.61985 17.1086 1.63057 19.3697 1.7065 21.8146C1.75116 22.6068 1.87278 23.3951 1.97649 24.1813C2.01323 24.4608 2.04916 24.7405 2.08522 25.0201C2.14587 25.4892 2.20717 25.9583 2.26887 26.4274C2.33973 26.9662 2.40949 27.5051 2.47867 28.0441C2.54581 28.5671 2.6138 29.0899 2.68214 29.6127C2.71095 29.8331 2.73946 30.0536 2.76772 30.2742C3.05488 32.5108 3.33773 34.5291 5.23269 36.008C6.17863 36.6566 7.24883 37.0378 8.40006 37.0396C8.5018 37.04 8.60353 37.0403 8.70835 37.0407C8.82071 37.0407 8.93307 37.0406 9.04543 37.0406C9.16521 37.0409 9.28499 37.0412 9.40477 37.0415C9.73371 37.0423 10.0627 37.0426 10.3916 37.0428C10.7464 37.0431 11.1013 37.0438 11.4561 37.0445C12.3128 37.0461 13.1695 37.0468 14.0261 37.0475C14.4296 37.0479 14.8331 37.0483 15.2366 37.0487C16.5779 37.05 17.9191 37.0512 19.2604 37.0517C19.6083 37.0519 19.9562 37.052 20.304 37.0522C20.3905 37.0522 20.477 37.0523 20.5661 37.0523C21.9675 37.053 23.3689 37.0549 24.7703 37.0575C26.2092 37.0601 27.6482 37.0615 29.0871 37.0617C29.895 37.0619 30.7028 37.0626 31.5107 37.0646C32.1985 37.0663 32.8863 37.0669 33.5741 37.0661C33.925 37.0658 34.2759 37.0659 34.6267 37.0674C34.9481 37.0688 35.2695 37.0687 35.5909 37.0675C35.707 37.0673 35.823 37.0677 35.9391 37.0686C36.6283 37.0738 37.2739 37.0746 37.8021 36.5799C38.1711 36.183 38.3005 35.8222 38.3012 35.2786C38.3019 35.126 38.3019 35.126 38.3027 34.9704C38.3025 34.8576 38.3022 34.7449 38.302 34.6322C38.3023 34.5123 38.3026 34.3924 38.3031 34.2726C38.304 33.943 38.304 33.6135 38.3038 33.2839C38.3038 32.9285 38.3046 32.5731 38.3054 32.2177C38.3067 31.5213 38.3071 30.8249 38.3072 30.1285C38.3073 29.5623 38.3076 28.9961 38.3081 28.4298C38.3095 26.8243 38.3102 25.2188 38.3101 23.6133C38.3101 23.5267 38.31 23.4402 38.31 23.351C38.31 23.2209 38.31 23.2209 38.31 23.0883C38.31 21.6842 38.3114 20.2802 38.3137 18.8762C38.3159 17.4343 38.317 15.9925 38.3168 14.5506C38.3168 13.7412 38.3172 12.9318 38.3189 12.1224C38.3203 11.4331 38.3207 10.7437 38.3196 10.0544C38.3191 9.70285 38.3191 9.35133 38.3204 8.99979C38.3217 8.67751 38.3214 8.35527 38.3201 8.03299C38.3198 7.91685 38.3201 7.80071 38.321 7.68457C38.3292 6.51616 38.066 5.61281 37.2603 4.74613C36.4949 4.01358 35.5541 3.72276 34.513 3.72754C34.443 3.72724 34.373 3.72694 34.3008 3.72663C34.0674 3.72583 33.834 3.72613 33.6006 3.72645C33.4327 3.72611 33.2648 3.7257 33.0969 3.72524C32.6415 3.72419 32.1861 3.72414 31.7307 3.72434C31.3497 3.72443 30.9686 3.72404 30.5876 3.72367C29.6876 3.7228 28.7876 3.72277 27.8876 3.72324C26.9619 3.72371 26.0362 3.72275 25.1105 3.72109C24.3138 3.71971 23.5172 3.71924 22.7205 3.7195C22.2456 3.71964 21.7706 3.71944 21.2957 3.71835C20.8482 3.71736 20.4008 3.71752 19.9533 3.71854C19.7901 3.71872 19.6269 3.71851 19.4637 3.71786C16.2721 3.70607 13.5721 4.78732 11.4363 7.20554Z" fill="#575757"/>
<path d="M18.3285 2.01818C18.4016 2.01795 18.4748 2.01772 18.5503 2.01748C18.7943 2.0168 19.0383 2.01668 19.2823 2.01657C19.4578 2.0162 19.6332 2.01581 19.8087 2.01539C20.2846 2.01437 20.7604 2.01386 21.2363 2.01351C21.5339 2.01329 21.8315 2.01296 22.1291 2.01262C22.9545 2.01167 23.7798 2.01086 24.6052 2.01059C24.6579 2.01058 24.7106 2.01056 24.765 2.01054C24.8443 2.01052 24.8443 2.01052 24.9251 2.01049C25.0322 2.01046 25.1393 2.01042 25.2464 2.01039C25.2995 2.01037 25.3526 2.01035 25.4074 2.01033C26.2675 2.01003 27.1276 2.00866 27.9878 2.00684C28.8726 2.00499 29.7575 2.00404 30.6424 2.00392C31.1385 2.00384 31.6346 2.00338 32.1307 2.00199C32.5976 2.00069 33.0645 2.00053 33.5314 2.00122C33.7021 2.00128 33.8729 2.00094 34.0437 2.00016C35.7004 1.99309 37.0713 2.21132 38.3592 3.35728C38.407 3.39877 38.4549 3.44026 38.5042 3.48301C39.325 4.24403 39.9491 5.45352 40.0145 6.57775C40.0205 6.89374 40.0214 7.20939 40.0207 7.52542C40.021 7.64812 40.0214 7.77083 40.0218 7.89353C40.0228 8.22984 40.0227 8.56614 40.0225 8.90244C40.0225 9.26549 40.0234 9.62854 40.0241 9.99159C40.0254 10.7025 40.0258 11.4134 40.0259 12.1244C40.026 12.7023 40.0263 13.2803 40.0268 13.8582C40.0282 15.4973 40.0289 17.1364 40.0288 18.7755C40.0288 18.908 40.0288 18.908 40.0288 19.0432C40.0288 19.1316 40.0288 19.2201 40.0288 19.3112C40.0287 20.7446 40.0302 22.178 40.0324 23.6113C40.0346 25.0837 40.0357 26.556 40.0356 28.0283C40.0355 28.8546 40.036 29.681 40.0376 30.5074C40.0391 31.211 40.0394 31.9145 40.0383 32.6181C40.0378 32.9769 40.0378 33.3357 40.0392 33.6945C40.0404 34.0233 40.0402 34.3521 40.0388 34.6809C40.0386 34.7995 40.0389 34.9181 40.0397 35.0367C40.0473 36.1304 39.8123 37.0014 39.0651 37.8229C38.4346 38.4329 37.6397 38.7572 36.7666 38.7581C36.7165 38.7583 36.6664 38.7585 36.6147 38.7586C36.446 38.7591 36.2774 38.759 36.1087 38.7589C35.9868 38.7591 35.8649 38.7593 35.743 38.7596C35.4075 38.7602 35.072 38.7603 34.7365 38.7604C34.3748 38.7605 34.0131 38.7611 33.6515 38.7616C32.8602 38.7627 32.0689 38.7632 31.2776 38.7635C30.7833 38.7637 30.2891 38.7641 29.7948 38.7644C28.4259 38.7654 27.0571 38.7662 25.6882 38.7664C25.5567 38.7665 25.5567 38.7665 25.4226 38.7665C25.3348 38.7665 25.2469 38.7665 25.1564 38.7665C24.9784 38.7666 24.8004 38.7666 24.6224 38.7666C24.5341 38.7667 24.4458 38.7667 24.3548 38.7667C22.9254 38.767 21.496 38.7684 20.0666 38.7702C18.5986 38.772 17.1305 38.773 15.6624 38.7731C14.8384 38.7732 14.0144 38.7736 13.1903 38.775C12.4883 38.7763 11.7863 38.7766 11.0842 38.776C10.7263 38.7757 10.3684 38.7758 10.0105 38.7769C9.68218 38.7779 9.35384 38.7778 9.02548 38.7768C8.90738 38.7767 8.78929 38.7769 8.6712 38.7776C6.58852 38.7889 4.74884 38.0721 3.24997 36.6123C1.75362 35.0342 1.38978 33.1247 1.12289 31.0526C1.09675 30.8533 1.07055 30.654 1.04431 30.4548C1.00206 30.1333 0.959999 29.8118 0.918412 29.4902C0.830599 28.8114 0.740781 28.1329 0.649061 27.4546C0.575698 26.9119 0.503292 26.369 0.431521 25.8261C0.387617 25.4942 0.343336 25.1623 0.298057 24.8306C-0.170605 21.3891 -0.146266 18.1914 1.99692 15.2664C2.32825 14.8475 2.68485 14.453 3.04672 14.0604C3.13826 13.9566 3.22943 13.8524 3.32016 13.7479C3.5852 13.4436 3.85547 13.1442 4.12582 12.8446C4.27528 12.678 4.4232 12.5104 4.57016 12.3416C4.8352 12.0373 5.10547 11.7379 5.37582 11.4383C5.52528 11.2718 5.67319 11.1041 5.82016 10.9354C6.0852 10.6311 6.35547 10.3317 6.62582 10.0321C6.77528 9.86554 6.92319 9.69788 7.07016 9.52915C7.3352 9.22484 7.60546 8.92541 7.87582 8.62583C8.02528 8.45929 8.17319 8.29164 8.32016 8.1229C8.5852 7.81859 8.85546 7.51916 9.12582 7.21958C9.27528 7.05304 9.42319 6.88539 9.57016 6.71665C9.83543 6.41208 10.1057 6.11217 10.377 5.81303C10.4791 5.69862 10.5798 5.58282 10.6773 5.46452C12.2953 3.50619 14.9232 2.34907 17.4015 2.04578C17.7103 2.01668 18.0185 2.01787 18.3285 2.01818ZM11.4363 7.20554C11.3748 7.27624 11.3132 7.34694 11.2498 7.41978C11.2004 7.47597 11.1509 7.53217 11.1 7.59006C11.0127 7.6895 10.9258 7.78919 10.8391 7.88914C10.6784 8.07292 10.515 8.25418 10.3514 8.4354C10.1413 8.66826 9.93241 8.902 9.72641 9.13852C9.46136 9.44283 9.1911 9.74226 8.92074 10.0418C8.77129 10.2084 8.62337 10.376 8.47641 10.5448C8.21136 10.8491 7.9411 11.1485 7.67074 11.4481C7.52129 11.6146 7.37337 11.7823 7.22641 11.951C6.96137 12.2553 6.6911 12.5548 6.42074 12.8543C6.27129 13.0209 6.12337 13.1885 5.97641 13.3573C5.7704 13.5938 5.56155 13.8275 5.35141 14.0604C5.10166 14.3374 4.85253 14.6147 4.60892 14.8972C4.48782 15.0361 4.36509 15.1725 4.24087 15.3086C2.61985 17.1086 1.63057 19.3697 1.7065 21.8146C1.75116 22.6068 1.87278 23.3951 1.97649 24.1813C2.01323 24.4608 2.04916 24.7405 2.08522 25.0201C2.14587 25.4892 2.20717 25.9583 2.26887 26.4274C2.33973 26.9662 2.40949 27.5051 2.47867 28.0441C2.54581 28.5671 2.6138 29.0899 2.68214 29.6127C2.71095 29.8331 2.73946 30.0536 2.76772 30.2742C3.05488 32.5108 3.33773 34.5291 5.23269 36.008C6.17863 36.6566 7.24883 37.0378 8.40006 37.0396C8.5018 37.04 8.60353 37.0403 8.70835 37.0407C8.82071 37.0407 8.93307 37.0406 9.04543 37.0406C9.16521 37.0409 9.28499 37.0412 9.40477 37.0415C9.73371 37.0423 10.0627 37.0426 10.3916 37.0428C10.7464 37.0431 11.1013 37.0438 11.4561 37.0445C12.3128 37.0461 13.1695 37.0468 14.0261 37.0475C14.4296 37.0479 14.8331 37.0483 15.2366 37.0487C16.5779 37.05 17.9191 37.0512 19.2604 37.0517C19.6083 37.0519 19.9562 37.052 20.304 37.0522C20.3905 37.0522 20.477 37.0523 20.5661 37.0523C21.9675 37.053 23.3689 37.0549 24.7703 37.0575C26.2092 37.0601 27.6482 37.0615 29.0871 37.0617C29.895 37.0619 30.7028 37.0626 31.5107 37.0646C32.1985 37.0663 32.8863 37.0669 33.5741 37.0661C33.925 37.0658 34.2759 37.0659 34.6267 37.0674C34.9481 37.0688 35.2695 37.0687 35.5909 37.0675C35.707 37.0673 35.823 37.0677 35.9391 37.0686C36.6283 37.0738 37.2739 37.0746 37.8021 36.5799C38.1711 36.183 38.3005 35.8222 38.3012 35.2786C38.3019 35.126 38.3019 35.126 38.3027 34.9704C38.3025 34.8576 38.3022 34.7449 38.302 34.6322C38.3023 34.5123 38.3026 34.3924 38.3031 34.2726C38.304 33.943 38.304 33.6135 38.3038 33.2839C38.3038 32.9285 38.3046 32.5731 38.3054 32.2177C38.3067 31.5213 38.3071 30.8249 38.3072 30.1285C38.3073 29.5623 38.3076 28.9961 38.3081 28.4298C38.3095 26.8243 38.3102 25.2188 38.3101 23.6133C38.3101 23.5267 38.31 23.4402 38.31 23.351C38.31 23.2209 38.31 23.2209 38.31 23.0883C38.31 21.6842 38.3114 20.2802 38.3137 18.8762C38.3159 17.4343 38.317 15.9925 38.3168 14.5506C38.3168 13.7412 38.3172 12.9318 38.3189 12.1224C38.3203 11.4331 38.3207 10.7437 38.3196 10.0544C38.3191 9.70285 38.3191 9.35133 38.3204 8.99979C38.3217 8.67751 38.3214 8.35527 38.3201 8.03299C38.3198 7.91685 38.3201 7.80071 38.321 7.68457C38.3292 6.51616 38.066 5.61281 37.2603 4.74613C36.4949 4.01358 35.5541 3.72276 34.513 3.72754C34.443 3.72724 34.373 3.72694 34.3008 3.72663C34.0674 3.72583 33.834 3.72613 33.6006 3.72645C33.4327 3.72611 33.2648 3.7257 33.0969 3.72524C32.6415 3.72419 32.1861 3.72414 31.7307 3.72434C31.3497 3.72443 30.9686 3.72404 30.5876 3.72367C29.6876 3.7228 28.7876 3.72277 27.8876 3.72324C26.9619 3.72371 26.0362 3.72275 25.1105 3.72109C24.3138 3.71971 23.5172 3.71924 22.7205 3.7195C22.2456 3.71964 21.7706 3.71944 21.2957 3.71835C20.8482 3.71736 20.4008 3.71752 19.9533 3.71854C19.7901 3.71872 19.6269 3.71851 19.4637 3.71786C16.2721 3.70607 13.5721 4.78732 11.4363 7.20554Z" stroke="#575757" stroke-width="0.6" mask="url(#path-1-outside-1_51_492)"/>
<path d="M19.8743 4.80467L19.8745 4.80467C20.3445 4.80259 20.8145 4.80249 21.2842 4.80288L19.8743 4.80467ZM19.8743 4.80467C19.7001 4.8056 19.5259 4.80641 19.3518 4.80709M19.8743 4.80467L19.8751 4.95467C19.7007 4.9556 19.5263 4.95641 19.3519 4.95709L19.3523 4.80709C19.3521 4.80709 19.3519 4.80709 19.3518 4.80709M19.3518 4.80709C17.0592 4.80118 14.8579 5.28512 13.1963 7.04202L13.1963 7.04199L13.1941 7.04435L13.0148 7.24222C13.0147 7.24236 13.0146 7.2425 13.0144 7.24264M19.3518 4.80709L13.0144 7.24264M13.0144 7.24264C12.6824 7.60372 12.3576 7.97025 12.0357 8.33882L12.0356 8.33898C11.889 8.50724 11.7416 8.67434 11.5927 8.84024L11.5884 8.84505C11.3197 9.14277 11.0501 9.4415 10.7856 9.74523C10.639 9.91349 10.4916 10.0806 10.3427 10.2465L10.3384 10.2513C10.0697 10.549 9.8001 10.8478 9.53556 11.1515C9.38902 11.3197 9.2416 11.4868 9.09271 11.6527L9.08835 11.6576C8.81968 11.9553 8.5501 12.254 8.28557 12.5577C8.08037 12.7933 7.87218 13.0263 7.66234 13.2589C7.49968 13.439 7.33632 13.6202 7.17571 13.8043L7.17532 13.8047C6.97185 14.0399 6.76662 14.2715 6.55603 14.499C6.55596 14.4991 6.55589 14.4992 6.55582 14.4992L13.0144 7.24264ZM22.4637 4.95154L22.4634 4.80154C23.4439 4.79971 24.4243 4.79984 25.4046 4.80084C26.254 4.80165 27.1034 4.79989 27.9529 4.79692L27.9534 4.94692L27.9529 4.79692C28.8283 4.79389 29.7038 4.79265 30.5793 4.79319C31.0695 4.79347 31.5594 4.79307 32.0494 4.79089L32.0494 4.79089L22.4637 4.95154ZM22.4637 4.95154L22.4634 4.80154L22.4391 4.80158M22.4637 4.95154L22.4391 4.80158M32.1623 21.893H32.1623C31.3904 21.8943 30.6186 21.8948 29.8468 21.8948C29.2198 21.8949 28.5927 21.8952 27.9656 21.8957C26.1886 21.8971 24.4116 21.8978 22.6346 21.8977L22.3442 21.8977L22.0534 21.8977C20.4978 21.8976 18.9422 21.8991 17.3866 21.9013C15.7902 21.9035 14.1938 21.9046 12.5974 21.9045C11.7008 21.9044 10.8043 21.9049 9.90777 21.9066C9.1443 21.908 8.38081 21.9083 7.6173 21.9073C7.22782 21.9067 6.83848 21.9067 6.4492 21.9081C6.09228 21.9093 5.73543 21.9091 5.37859 21.9077C5.24998 21.9075 5.12138 21.9078 4.99281 21.9086L4.99275 21.9086C4.81658 21.9098 4.64075 21.9089 4.46541 21.9076L4.17079 21.9077L4.15976 21.9077L4.14884 21.9061C3.79603 21.8541 3.60177 21.7277 3.34455 21.5238L3.32716 21.51L3.31451 21.4918C3.11507 21.2044 3.0748 20.8557 3.0903 20.5252C3.10292 20.2561 3.15406 19.9808 3.19837 19.7422C3.20828 19.6888 3.21785 19.6373 3.22657 19.5881L3.22697 19.5858L3.22698 19.5858C3.46806 18.3357 4.08776 17.3346 4.88532 16.388C4.88539 16.3879 4.88546 16.3878 4.88553 16.3877L32.1623 21.893ZM32.1623 21.893L32.3027 21.8928M32.1623 21.893L32.3027 21.8928M22.4391 4.80158C22.054 4.80232 21.6691 4.80305 21.2843 4.80288L22.4391 4.80158ZM32.3027 21.8928C32.6497 21.8921 32.9965 21.8914 33.3433 21.8915L32.3027 21.8928ZM33.9362 4.78993C33.7682 4.79121 33.6001 4.79164 33.432 4.79127L33.3433 21.8915C33.7087 21.8916 34.0743 21.8917 34.4399 21.8907H34.4399L34.8373 21.8896C34.8374 21.8896 34.8375 21.8896 34.8376 21.8896C35.0212 21.89 35.2052 21.8904 35.3894 21.8897L35.3895 21.8897L35.5543 21.8888C35.5544 21.8888 35.5545 21.8888 35.5546 21.8888C35.573 21.8888 35.5914 21.8888 35.6098 21.8889C35.9076 21.8893 36.189 21.8897 36.4902 21.6869L36.5077 21.6751L36.5213 21.659C36.6508 21.5049 36.7487 21.3613 36.8135 21.1995C36.8788 21.0367 36.9071 20.8646 36.91 20.6576L36.9101 20.6576L36.91 20.6533L36.9076 20.4903C36.9076 20.4899 36.9076 20.4894 36.9076 20.4889C36.9088 20.2996 36.9095 20.1099 36.9083 19.9199V19.9198C36.9074 19.7815 36.907 19.6431 36.9072 19.5048C36.9083 19.1263 36.9083 18.7478 36.9068 18.3692C36.9051 17.967 36.9047 17.5648 36.9047 17.1625C36.9048 16.4883 36.904 15.8141 36.9019 15.1399C36.8995 14.3553 36.8978 13.5709 36.8979 12.7864C36.898 11.9444 36.8974 11.1024 36.896 10.2604C36.8955 10.0191 36.8952 9.77792 36.8951 9.53676C36.895 9.15061 36.8946 8.76433 36.8933 8.37799V8.3779L36.8917 7.95117C36.8918 7.7532 36.8919 7.55478 36.8909 7.35626V7.35611L36.8899 7.17744C36.8899 7.17714 36.8899 7.17684 36.8899 7.17654C36.8928 6.48921 36.7737 5.90151 36.2825 5.36723L36.2828 5.36699L36.2752 5.3598L36.2609 5.34626C35.9875 5.08748 35.8175 4.92662 35.4987 4.85119C35.3438 4.81451 35.1575 4.79845 34.9121 4.79159C34.6666 4.78474 34.3526 4.78697 33.9394 4.7899L33.9363 4.78993L33.9362 4.78993ZM13.6095 9.62688L13.6097 9.62658C14.421 8.67749 15.2386 7.97616 16.1596 7.5134C17.0795 7.05119 18.111 6.82269 19.3566 6.8315C19.5192 6.83271 19.6818 6.83332 19.8443 6.83341L19.8445 6.83341C20.2886 6.83294 20.7325 6.83358 21.1764 6.83571C21.6478 6.838 22.1191 6.83894 22.5903 6.83935C23.4806 6.84005 24.3709 6.84205 25.2612 6.84518C26.2824 6.84876 27.3036 6.85095 28.3248 6.85256C30.4813 6.85587 32.6377 6.86123 34.7942 6.86833C35.2958 9.99193 35.5441 11.5606 35.5536 13.185C35.5632 14.8111 35.3336 16.4949 34.8695 19.85H34.8219H34.7625H34.703H34.6436H34.5842H34.5248H34.4654H34.406H34.3466H34.2873H34.2279H34.1685H34.1092H34.0498H33.9905H33.9311H33.8718H33.8125H33.7532H33.6939H33.6345H33.5753H33.516H33.4567H33.3974H33.3381H33.2789H33.2196H33.1604H33.1011H33.0419H32.9826H32.9234H32.8642H32.805H32.7458H32.6866H32.6274H32.5682H32.509H32.4498H32.3907H32.3315H32.2723H32.2132H32.154H32.0949H32.0358H31.9766H31.9175H31.8584H31.7993H31.7402H31.6811H31.622H31.5629H31.5038H31.4448H31.3857H31.3267H31.2676H31.2085H31.1495H31.0905H31.0314H30.9724H30.9134H30.8544H30.7954H30.7364H30.6774H30.6184H30.5594H30.5004H30.4415H30.3825H30.3235H30.2646H30.2056H30.1467H30.0878H30.0288H29.9699H29.911H29.8521H29.7932H29.7343H29.6754H29.6165H29.5576H29.4987H29.4398H29.381H29.3221H29.2633H29.2044H29.1456H29.0867H29.0279H28.9691H28.9102H28.8514H28.7926H28.7338H28.675H28.6162H28.5574H28.4986H28.4398H28.3811H28.3223H28.2635H28.2048H28.146H28.0873H28.0285H27.9698H27.911H27.8523H27.7936H27.7349H27.6762H27.6175H27.5588H27.5001H27.4414H27.3827H27.324H27.2653H27.2066H27.148H27.0893H27.0307H26.972H26.9134H26.8547H26.7961H26.7375H26.6788H26.6202H26.5616H26.503H26.4444H26.3858H26.3272H26.2686H26.21H26.1514H26.0928H26.0343H25.9757H25.9171H25.8586H25.8H25.7415H25.6829H25.6244H25.5659H25.5073H25.4488H25.3903H25.3318H25.2733H25.2147H25.1562H25.0977H25.0393H24.9808H24.9223H24.8638H24.8053H24.7469H24.6884H24.6299H24.5715H24.513H24.4546H24.3961H24.3377H24.2793H24.2208H24.1624H24.104H24.0456H23.9872H23.9287H23.8703H23.8119H23.7535H23.6952H23.6368H23.5784H23.52H23.4616H23.4033H23.3449H23.2865H23.2282H23.1698H23.1115H23.0531H22.9948H22.9365H22.8781H22.8198H22.7615H22.7032H22.6448H22.5865H22.5282H22.4699H22.4116H22.3533H22.295H22.2367H22.1785H22.1202H22.0619H22.0036H21.9454H21.8871H21.8288H21.7706H21.7123H21.6541H21.5958H21.5376H21.4793H21.4211H21.3629H21.3047H21.2464H21.1882H21.13H21.0718H21.0136H20.9554H20.8972H20.839H20.7808H20.7226H20.6644H20.6062H20.548H20.4899H20.4317H20.3735H20.3154H20.2572H20.199H20.1409H20.0827H20.0246H19.9664H19.9083H19.8502H19.792H19.7339H19.6758H19.6176H19.5595H19.5014H19.4433H19.3852H19.3271H19.269H19.2109H19.1528H19.0947H19.0366H18.9785H18.9204H18.8623H18.8043H18.7462H18.6881H18.63H18.572H18.5139H18.4558H18.3978H18.3397H18.2817H18.2236H18.1656H18.1075H18.0495H17.9915H17.9334H17.8754H17.8174H17.7594H17.7013H17.6433H17.5853H17.5273H17.4693H17.4113H17.3533H17.2953H17.2373H17.1793H17.1213H17.0633H17.0053H16.9473H16.8893H16.8314H16.7734H16.7154H16.6574H16.5995H16.5415H16.4835H16.4256H16.3676H16.3097H16.2517H16.1938H16.1358H16.0779H16.0199H15.962H15.9041H15.8461H15.7882H15.7303H15.6723H15.6144H15.5565H15.4986H15.4406H15.3827H15.3248H15.2669H15.209H15.1511H15.0932H15.0353H14.9774H14.9195H14.8616H14.8037H14.7458H14.6879H14.63H14.5721H14.5143H14.4564H14.3985H14.3406H14.2828H14.2249H14.167H14.1091H14.0513H13.9934H13.9356H13.8777H13.8198H13.762H13.7041H13.6463H13.5884H13.5306H13.4727H13.4149H13.3571H13.2992H13.2414H13.1835H13.1257H13.0679H13.0101H12.9522H12.8944H12.8366H12.7788H12.7209H12.6631H12.6053H12.5475H12.4897H12.4319H12.374H12.3162H12.2584H12.2006H12.1428H12.085H12.0272H11.9694H11.9116H11.8538H11.796H11.7382H11.6804H11.6226H11.5649H11.5071H11.4493H11.3915H11.3337H11.2759H11.2182H11.1604H11.1026H11.0448H10.9871H10.9293H10.8715H10.8137H10.756H10.6982H10.6404H10.5827H10.5249H10.4671H10.4094H10.3516H10.2939H10.2361H10.1783H10.1206H10.0628H10.0051H9.94733H9.88958H9.83183H9.77408H9.71634H9.65859H9.60084H9.5431H9.48535H9.42761H9.36987H9.31213H9.25439H9.19665H9.13891H9.08118H9.02344H8.9657H8.90797H8.85024H8.7925H8.73477H8.67704H8.61931H8.56158H8.50385H8.44613H8.3884H8.33067H8.27295H8.21522H8.1575H8.09978H8.04205H7.98433H7.92661H7.86889H7.81117H7.75345H7.69573H7.63801H7.5803H7.52258H7.46486H7.40715H7.34943H7.29172H7.234H7.17629H7.11857H7.06086H7.00315H6.94543H6.88772H6.83001H6.7723H6.71459H6.65688H6.59917H6.54146H6.48375H6.42604H6.36833H6.31062H6.25292H6.19521H6.1375H6.07979H6.02209H5.96438H5.90667H5.84897H5.79126H5.73355H5.67585H5.61814H5.56043H5.50273H5.44502H5.38732H5.35679C5.56881 19.1284 5.68458 18.7608 5.87457 18.4286C6.08111 18.0674 6.37711 17.745 7.00232 17.0667L7.00234 17.0667L7.00443 17.0643C7.12984 16.9224 7.25503 16.7801 7.37945 16.6367L7.3795 16.6367C7.62253 16.3564 7.87019 16.0801 8.11946 15.8036C8.32989 15.5704 8.53937 15.3359 8.74616 15.0985C8.89271 14.9303 9.04013 14.7632 9.18902 14.5973L9.19319 14.5926C9.46192 14.2949 9.73156 13.9961 9.99616 13.6923C10.1427 13.524 10.2901 13.3569 10.439 13.191L10.4433 13.1862C10.712 12.8885 10.9816 12.5898 11.2462 12.286C11.3927 12.1178 11.5401 11.9507 11.689 11.7848L11.6933 11.78C11.962 11.4823 12.2316 11.1835 12.4962 10.8798C12.7013 10.6442 12.9095 10.4112 13.1193 10.1787C13.2835 9.99716 13.4485 9.81425 13.6095 9.62688ZM21.1771 6.68571C20.7329 6.68358 20.2886 6.68294 19.8444 6.68341L21.1771 6.68571Z" fill="#575757" stroke="#575757" stroke-width="0.3"/>
<path d="M6.12474 30.2272L6.12482 30.2272C6.29961 30.2266 6.47435 30.2266 6.64882 30.2265L6.65317 30.2265L6.6535 30.2265L7.03356 30.2255L7.0336 30.2255C7.38357 30.2245 7.73351 30.2241 8.08336 30.2238C8.08338 30.2238 8.08339 30.2238 8.0834 30.2238M6.12474 30.2272L32.7049 30.3427C31.9743 30.3418 31.2436 30.3427 30.513 30.3449C29.6548 30.3474 28.7967 30.3483 27.9385 30.3486C26.4109 30.349 24.8834 30.3509 23.3558 30.3542C21.8668 30.3574 20.3777 30.36 18.8887 30.361L18.6103 30.3612L17.5015 30.3619C15.9066 30.3629 14.3116 30.3646 12.7167 30.3666L11.9456 30.3675C11.035 30.3685 10.1245 30.3696 9.21391 30.3715C9.16324 30.3717 9.11256 30.3718 9.06188 30.3719C8.73577 30.3726 8.40966 30.3733 8.08355 30.3738L8.0834 30.2238M6.12474 30.2272L5.96737 30.2278C5.96732 30.2278 5.96726 30.2278 5.96721 30.2278C5.93395 30.2279 5.90064 30.2274 5.86719 30.2269C5.67026 30.2239 5.46866 30.2209 5.24547 30.3325L5.22686 30.3418L5.21149 30.3558C5.11012 30.4483 5.02257 30.5384 4.9558 30.646C4.88759 30.756 4.84551 30.8768 4.82329 31.0266L4.82198 31.0355L4.82173 31.0445C4.82088 31.0751 4.81941 31.1065 4.8179 31.1387C4.80754 31.3605 4.79558 31.6161 4.97503 31.855L4.98715 31.8711L5.0031 31.8835C5.26098 32.0832 5.48178 32.2411 5.85066 32.2855L5.85959 32.2866L5.86858 32.2866L6.14762 32.2866C6.31353 32.2876 6.47984 32.2882 6.64639 32.2874L6.64645 32.2874C6.76831 32.2868 6.8902 32.2866 7.0121 32.2868C7.34981 32.2879 7.68754 32.2882 8.02532 32.2873H8.02532C8.39393 32.2864 8.76258 32.2865 9.13136 32.2869M6.12474 30.2272L33.4872 32.2789C33.1577 32.2787 32.8282 32.2792 32.4985 32.2798L32.3691 32.28H32.369C31.6382 32.281 30.9075 32.2811 30.1768 32.2809C29.5831 32.2808 28.9895 32.2809 28.3958 32.2812L28.14 32.2814L27.6256 32.2817C26.0166 32.2825 24.4077 32.2824 22.7987 32.2819C21.3259 32.2815 19.8531 32.2823 18.3803 32.2838C16.8689 32.2853 15.3575 32.286 13.8462 32.2857C12.9973 32.2856 12.1485 32.2857 11.2997 32.2868C10.5769 32.2878 9.85415 32.2879 9.13136 32.2869M8.0834 30.2238C8.40942 30.2233 8.73543 30.2226 9.06154 30.2219C9.11221 30.2218 9.16289 30.2217 9.21358 30.2215L9.21359 30.2215C10.1242 30.2196 11.0349 30.2185 11.9454 30.2175L12.7165 30.2166C14.3115 30.2146 15.9064 30.2129 17.5014 30.2119L18.6102 30.2112L18.8886 30.211C20.3775 30.21 21.8665 30.2074 23.3555 30.2042C24.8832 30.2009 26.4108 30.199 27.9384 30.1986C28.7965 30.1983 29.6545 30.1974 30.5125 30.1949C31.2434 30.1927 31.9742 30.1918 32.7051 30.1927L8.0834 30.2238ZM33.8239 30.3409L33.8231 30.1909L33.8239 30.3409ZM33.8239 30.3409L33.8231 30.1909M33.8239 30.3409L33.8231 30.1909M35.2171 30.1893L35.2172 30.1893C35.3861 30.1878 35.5545 30.1887 35.7223 30.1903L36.0042 30.1899L36.019 30.1899L36.0335 30.1928C36.2101 30.2277 36.3408 30.2835 36.4563 30.3708C36.5669 30.4543 36.6572 30.5626 36.7567 30.6841L36.7723 30.7032L36.781 30.7262C36.8804 30.9895 36.8924 31.2313 36.8682 31.496L36.8657 31.5235L36.8535 31.5484C36.7731 31.7122 36.692 31.8535 36.5811 31.9708C36.4678 32.0906 36.3304 32.1783 36.1468 32.2476L36.1272 32.255L36.1064 32.2568C35.8679 32.2768 35.8636 32.277 35.581 32.2772L35.5813 32.2772L35.5806 32.1272L35.5807 32.2772L35.2171 30.1893ZM35.2171 30.1893C35.0941 30.1905 34.9711 30.1909 34.848 30.1907L35.2171 30.1893ZM9.13136 32.2869L9.13155 32.1369M9.13136 32.2869L9.13155 32.1369M9.13155 32.1369C8.76268 32.1365 8.39382 32.1364 8.02494 32.1373M9.13155 32.1369C9.8542 32.1379 10.5768 32.1378 11.2995 32.1368C12.1484 32.1357 12.9973 32.1356 13.8462 32.1357C15.3575 32.136 16.8688 32.1353 18.3801 32.1338C19.853 32.1323 21.3259 32.1315 22.7988 32.1319C24.4077 32.1324 26.0166 32.1325 27.6256 32.1317L28.1399 32.1314L28.3957 32.1312C28.9894 32.1309 29.5831 32.1308 30.1768 32.1309C30.9075 32.1311 31.6382 32.131 32.3688 32.13L32.4983 32.1298L8.02494 32.1373M8.02494 32.1373C7.68747 32.1382 7.35001 32.1379 7.01253 32.1368C6.89025 32.1366 6.76797 32.1368 6.64568 32.1375L8.02494 32.1373ZM33.8231 30.1909C33.4506 30.1929 33.0779 30.1931 32.7051 30.1927L33.8231 30.1909ZM34.9024 32.2777L34.9021 32.1277L34.9018 32.2777L34.9021 32.2777L34.9024 32.2777Z" fill="#575757" stroke="#575757" stroke-width="0.3"/>
<path d="M21.0938 8.28126C21.4052 8.44893 21.5884 8.57749 21.7188 8.90626C21.7667 9.23484 21.7124 9.51221 21.5142 9.78074L21.348 9.95851L21.1548 10.1655C20.7431 10.5944 20.3238 11.0156 19.903 11.4356L19.6082 11.7306C19.4039 11.9351 19.1994 12.1394 18.9948 12.3436C18.7326 12.6053 18.4708 12.8674 18.2091 13.1296C18.007 13.332 17.8047 13.5342 17.6023 13.7364L17.3124 14.0264C17.178 14.161 17.0434 14.2954 16.9087 14.4296L16.7884 14.5504C16.4907 14.8463 16.2967 15.0228 15.8692 15.0293C15.582 15.0243 15.4817 15.0079 15.2295 14.8535C14.981 14.5809 14.9377 14.3489 14.9463 13.985C15.0145 13.6869 15.1424 13.5542 15.3483 13.3407C15.3556 13.3332 15.363 13.3255 15.3704 13.3178L15.4867 13.1957C15.6099 13.067 15.7345 12.9397 15.8594 12.8125L16.0996 12.5652C16.3536 12.3049 16.61 12.0469 16.8668 11.7893L17.0063 11.6491C17.2488 11.4055 17.4915 11.1621 17.7343 10.9188C17.984 10.6688 18.2329 10.418 18.4816 10.167C18.6746 9.97262 18.8681 9.77872 19.0617 9.58496C19.1537 9.49268 19.2456 9.4002 19.3372 9.30753C19.465 9.17839 19.5936 9.05002 19.7223 8.92181L19.9426 8.70064C20.2959 8.39476 20.6209 8.21229 21.0938 8.28126Z" fill="#575757"/>
<path d="M21.0938 8.28126C21.4052 8.44893 21.5884 8.57749 21.7188 8.90626C21.7667 9.23484 21.7124 9.51221 21.5142 9.78074L21.348 9.95851L21.1548 10.1655C20.7431 10.5944 20.3238 11.0156 19.903 11.4356L19.6082 11.7306C19.4039 11.9351 19.1994 12.1394 18.9948 12.3436C18.7326 12.6053 18.4708 12.8674 18.2091 13.1296C18.007 13.332 17.8047 13.5342 17.6023 13.7364L17.3124 14.0264C17.178 14.161 17.0434 14.2954 16.9087 14.4296L16.7884 14.5504C16.4907 14.8463 16.2967 15.0228 15.8692 15.0293C15.582 15.0243 15.4817 15.0079 15.2295 14.8535C14.981 14.5809 14.9377 14.3489 14.9463 13.985C15.0145 13.6869 15.1424 13.5542 15.3483 13.3407C15.3556 13.3332 15.363 13.3255 15.3704 13.3178L15.4867 13.1957C15.6099 13.067 15.7345 12.9397 15.8594 12.8125L16.0996 12.5652C16.3536 12.3049 16.61 12.0469 16.8668 11.7893L17.0063 11.6491C17.2488 11.4055 17.4915 11.1621 17.7343 10.9188C17.984 10.6688 18.2329 10.418 18.4816 10.167C18.6746 9.97262 18.8681 9.77872 19.0617 9.58496C19.1537 9.49268 19.2456 9.4002 19.3372 9.30753C19.465 9.17839 19.5936 9.05002 19.7223 8.92181L19.9426 8.70064C20.2959 8.39476 20.6209 8.21229 21.0938 8.28126Z" stroke="#575757"/>
<path d="M31.011 24.9849C31.0668 24.9843 31.1226 24.9837 31.1801 24.983C31.365 24.9811 31.55 24.9798 31.735 24.9787C31.8297 24.978 31.8297 24.978 31.9263 24.9774C32.2606 24.9753 32.5949 24.9738 32.9291 24.9727C33.2744 24.9714 33.6195 24.9679 33.9647 24.9639C34.2302 24.9613 34.4957 24.9604 34.7611 24.9599C34.8884 24.9594 35.0156 24.9582 35.1429 24.9563C35.3211 24.9539 35.4992 24.9539 35.6775 24.9544C35.8295 24.9535 35.8295 24.9535 35.9846 24.9525C36.3179 25.0122 36.4314 25.1305 36.6407 25.3906C36.7296 25.6262 36.7417 25.8435 36.7188 26.0938C36.5617 26.4139 36.4267 26.5937 36.0938 26.7188C35.8512 26.7391 35.8512 26.7391 35.5625 26.7402C35.5098 26.7406 35.457 26.741 35.4026 26.7414C35.2287 26.7425 35.0547 26.7424 34.8807 26.7423C34.7595 26.7426 34.6383 26.7429 34.517 26.7433C34.2631 26.7439 34.0091 26.7438 33.7552 26.7434C33.4301 26.743 33.1051 26.7443 32.7801 26.7461C32.5297 26.7473 32.2794 26.7473 32.0291 26.7471C31.9092 26.7471 31.7894 26.7475 31.6696 26.7483C31.5019 26.7493 31.3342 26.7488 31.1665 26.7479C31.0234 26.7479 31.0234 26.7479 30.8775 26.748C30.5455 26.7095 30.3537 26.5768 30.095 26.3764C29.9287 26.155 29.9643 25.9271 29.9717 25.6601C30.0111 25.3942 30.1162 25.2572 30.3126 25.0781C30.5438 24.9625 30.753 24.9875 31.011 24.9849Z" fill="#575757"/>
<path d="M17.9686 8.35936C18.1969 8.55038 18.3276 8.68609 18.3934 8.98161C18.4185 9.39032 18.2851 9.58693 18.0467 9.92186C17.9241 10.0582 17.7978 10.1912 17.6683 10.321L17.4513 10.5386L17.3394 10.6496C17.2262 10.762 17.1138 10.8752 17.0015 10.9884L16.7845 11.2048L16.5872 11.4016C16.374 11.591 16.2099 11.7106 15.923 11.7306C15.6114 11.7009 15.42 11.6593 15.1512 11.4892C14.9304 11.1401 14.914 10.8692 14.9999 10.4687C15.0474 10.3969 15.072 10.3597 15.0994 10.3247C15.1289 10.2871 15.1616 10.2521 15.2294 10.1794L15.3793 10.0174L15.5467 9.84373L15.727 9.65584C15.9192 9.45803 16.1135 9.26247 16.3085 9.06736L16.5096 8.86335L16.7028 8.66972L16.8769 8.49457C17.2017 8.20977 17.5739 8.24874 17.9686 8.35936Z" fill="#575757"/>
<path d="M17.9686 8.35936C18.1969 8.55038 18.3276 8.68609 18.3934 8.98161C18.4185 9.39032 18.2851 9.58693 18.0467 9.92186C17.9241 10.0582 17.7978 10.1912 17.6683 10.321L17.4513 10.5386L17.3394 10.6496C17.2262 10.762 17.1138 10.8752 17.0015 10.9884L16.7845 11.2048L16.5872 11.4016C16.374 11.591 16.2099 11.7106 15.923 11.7306C15.6114 11.7009 15.42 11.6593 15.1512 11.4892C14.9304 11.1401 14.914 10.8692 14.9999 10.4687C15.0474 10.3969 15.072 10.3597 15.0994 10.3247C15.1289 10.2871 15.1616 10.2521 15.2294 10.1794L15.3793 10.0174L15.5467 9.84373L15.727 9.65584C15.9192 9.45803 16.1135 9.26247 16.3085 9.06736L16.5096 8.86335L16.7028 8.66972L16.8769 8.49457C17.2017 8.20977 17.5739 8.24874 17.9686 8.35936Z" stroke="#575757"/>
</g>
<defs>
<clipPath id="clip0_51_492">
<rect width="40" height="40" fill="white"/>
</clipPath>
</defs>
</svg>
