<svg width="40" height="40" viewBox="0 0 40 40" fill="none" xmlns="http://www.w3.org/2000/svg">
<path d="M8.2336 1.30668C8.35187 1.30608 8.35187 1.30608 8.47253 1.30547C8.7317 1.30439 8.99086 1.30446 9.25003 1.30464C9.43118 1.30434 9.61233 1.304 9.79348 1.30362C10.1727 1.30304 10.5518 1.30306 10.931 1.30348C11.4156 1.30393 11.9001 1.30261 12.3847 1.30079C12.7587 1.29964 13.1327 1.29957 13.5067 1.29982C13.6853 1.29978 13.8639 1.29937 14.0425 1.29858C14.2928 1.29761 14.543 1.29815 14.7934 1.29905C14.8663 1.29845 14.9392 1.29786 15.0143 1.29724C15.8886 1.30417 16.5429 1.54937 17.166 2.16401C17.6929 2.74011 17.826 3.3495 17.8203 4.11775C17.8202 4.16804 17.8201 4.21832 17.82 4.27013C17.8196 4.45646 17.8185 4.64279 17.8175 4.82911C17.8159 5.24644 17.8143 5.66378 17.8126 6.09376C19.2564 6.09376 20.7001 6.09376 22.1876 6.09376C22.1784 5.28047 22.1784 5.28047 22.1665 4.46721C22.1607 3.4498 22.2924 2.716 23.0235 1.9748C23.6582 1.39437 24.3298 1.31653 25.1601 1.31555C25.2783 1.31497 25.2783 1.31497 25.3989 1.31437C25.6594 1.31323 25.9198 1.3127 26.1803 1.31227C26.3617 1.31182 26.5432 1.31137 26.7247 1.31092C27.1053 1.3101 27.4859 1.30964 27.8664 1.30937C28.3529 1.30894 28.8393 1.30707 29.3257 1.30484C29.7007 1.30338 30.0757 1.30298 30.4507 1.30286C30.6299 1.30262 30.8092 1.302 30.9884 1.30097C31.2399 1.29963 31.4913 1.29979 31.7428 1.30029C31.816 1.29957 31.8893 1.29885 31.9648 1.29811C32.7907 1.30328 33.5144 1.53111 34.1337 2.08711C34.7946 2.77326 34.8835 3.54748 34.8714 4.45726C34.8687 4.57795 34.8661 4.69865 34.8634 4.81935C34.8618 4.9434 34.8604 5.06745 34.8591 5.19151C34.8557 5.49231 34.8504 5.79301 34.8439 6.09376C34.9411 6.09013 35.0383 6.08651 35.1384 6.08277C36.1489 6.05605 36.9269 6.12292 37.7293 6.79902C38.3909 7.43058 38.7536 8.12781 38.7895 9.05089C38.7912 9.25513 38.7912 9.45893 38.7898 9.66313C38.7902 9.77734 38.7907 9.89154 38.7913 10.0057C38.7926 10.3175 38.792 10.6292 38.791 10.9409C38.7903 11.2779 38.7914 11.6149 38.7922 11.9519C38.7936 12.6113 38.7933 13.2706 38.7924 13.93C38.7917 14.466 38.7916 15.0021 38.792 15.5381C38.792 15.6145 38.792 15.6909 38.7921 15.7696C38.7922 15.9248 38.7923 16.08 38.7924 16.2352C38.7933 17.6894 38.7923 19.1436 38.7906 20.5977C38.7892 21.8446 38.7894 23.0914 38.7909 24.3382C38.7925 25.7873 38.7932 27.2364 38.7922 28.6855C38.7921 28.8401 38.792 28.9948 38.792 29.1494C38.7919 29.2635 38.7919 29.2635 38.7918 29.3799C38.7915 29.9151 38.792 30.4503 38.7927 30.9854C38.7936 31.638 38.7934 32.2905 38.7917 32.943C38.7909 33.2757 38.7906 33.6084 38.7916 33.9411C38.7925 34.246 38.792 34.5509 38.7903 34.8559C38.79 34.9658 38.7902 35.0757 38.7909 35.1857C38.7971 36.1428 38.6299 36.9374 37.9689 37.6562C37.1838 38.4511 36.3703 38.6856 35.2647 38.6928C35.0835 38.6931 34.9022 38.6927 34.721 38.6922C34.5888 38.6925 34.4567 38.6928 34.3246 38.6931C33.9627 38.6939 33.6007 38.6938 33.2387 38.6934C32.8479 38.6932 32.4571 38.6939 32.0664 38.6945C31.3012 38.6955 30.536 38.6957 29.7708 38.6955C29.1488 38.6953 28.5268 38.6955 27.9048 38.6958C27.772 38.6959 27.772 38.6959 27.6365 38.6959C27.4566 38.696 27.2767 38.6961 27.0968 38.6962C25.4099 38.6971 23.7231 38.6969 22.0363 38.6964C20.4936 38.696 18.9508 38.6969 17.4081 38.6984C15.8235 38.6999 14.2388 38.7006 12.6542 38.7003C11.7648 38.7001 10.8754 38.7003 9.98595 38.7014C9.22879 38.7023 8.47163 38.7024 7.71447 38.7015C7.32829 38.701 6.94212 38.701 6.55594 38.7019C6.20212 38.7027 5.84831 38.7025 5.4945 38.7014C5.3668 38.7012 5.2391 38.7014 5.11141 38.702C3.9351 38.7074 2.95384 38.5364 2.05094 37.7246C1.52963 37.1724 1.24093 36.4547 1.23967 35.7039C1.23932 35.6075 1.23897 35.511 1.23861 35.4117C1.23862 35.3045 1.23863 35.1973 1.23866 35.0901C1.2384 34.9764 1.23811 34.8627 1.23779 34.7489C1.237 34.436 1.23671 34.123 1.23651 33.81C1.2362 33.4727 1.23545 33.1353 1.23477 32.7979C1.23323 31.9829 1.23244 31.1678 1.23174 30.3528C1.2314 29.969 1.23098 29.5851 1.23057 29.2013C1.22924 27.9252 1.22811 26.6491 1.22755 25.3729C1.2274 25.0418 1.22725 24.7106 1.22709 24.3795C1.22706 24.2972 1.22702 24.2149 1.22698 24.1301C1.22633 22.7969 1.22435 21.4638 1.22181 20.1307C1.21923 18.7619 1.21782 17.393 1.21757 16.0242C1.21741 15.2557 1.21672 14.4872 1.21473 13.7188C1.21303 13.0642 1.2124 12.4097 1.21316 11.7552C1.21352 11.4214 1.21337 11.0876 1.21185 10.7538C1.21047 10.4478 1.21055 10.1418 1.21176 9.83584C1.21195 9.72554 1.21161 9.61523 1.21068 9.50493C1.20267 8.4909 1.39721 7.6993 2.10953 6.95313C2.88032 6.21731 3.63774 6.05989 4.6722 6.07776C4.83363 6.08203 4.99503 6.08774 5.1564 6.09376C5.15477 6.01779 5.15313 5.94183 5.15144 5.86356C5.14572 5.57775 5.14218 5.29195 5.13924 5.00609C5.13768 4.88313 5.13556 4.76016 5.13283 4.63721C5.1129 3.71578 5.13118 2.86766 5.80093 2.15333C6.48556 1.44629 7.27982 1.30416 8.2336 1.30668ZM7.81265 4.06251C7.81265 4.73282 7.81265 5.40313 7.81265 6.09376C10.2103 6.09376 12.608 6.09376 15.0783 6.09376C15.0783 5.42345 15.0783 4.75313 15.0783 4.06251C12.6806 4.06251 10.283 4.06251 7.81265 4.06251ZM24.922 4.06251C24.922 4.73282 24.922 5.40313 24.922 6.09376C27.3197 6.09376 29.7173 6.09376 32.1876 6.09376C32.1876 5.42345 32.1876 4.75313 32.1876 4.06251C29.79 4.06251 27.3923 4.06251 24.922 4.06251ZM4.03194 8.88044C3.87453 9.10873 3.86732 9.23872 3.8673 9.51492C3.86653 9.60788 3.86576 9.70084 3.86497 9.79661C3.86572 9.89884 3.86647 10.0011 3.86725 10.1064C3.86694 10.216 3.8665 10.3256 3.86594 10.4352C3.86478 10.7368 3.86558 11.0383 3.8667 11.3399C3.86756 11.6649 3.86663 11.99 3.86593 12.3151C3.86484 12.952 3.86543 13.589 3.86661 14.2259C3.86792 14.9673 3.86767 15.7086 3.86738 16.45C3.86692 17.7725 3.86803 19.0951 3.86995 20.4176C3.87182 21.7017 3.87238 22.9858 3.87156 24.2699C3.87066 25.6673 3.87051 27.0647 3.87164 28.4621C3.87176 28.611 3.87188 28.76 3.872 28.9089C3.87209 29.0189 3.87209 29.0189 3.87218 29.131C3.87255 29.6481 3.8724 30.1652 3.87207 30.6822C3.87169 31.3122 3.87215 31.9421 3.8737 32.572C3.87448 32.8936 3.87487 33.2151 3.87426 33.5367C3.87371 33.8308 3.87424 34.1249 3.87563 34.4191C3.8761 34.5764 3.87542 34.7336 3.87469 34.8909C3.87535 34.9838 3.87601 35.0768 3.87669 35.1726C3.87677 35.253 3.87685 35.3334 3.87693 35.4162C3.91219 35.666 3.95088 35.7702 4.14078 35.9375C4.38163 35.9847 4.38163 35.9847 4.66433 35.9768C4.74496 35.9775 4.74496 35.9775 4.82721 35.9782C5.00869 35.9793 5.19008 35.9782 5.37155 35.9772C5.50242 35.9775 5.63329 35.978 5.76416 35.9786C6.12483 35.98 6.48547 35.9793 6.84614 35.9783C7.23469 35.9776 7.62324 35.9787 8.0118 35.9796C8.77339 35.981 9.53497 35.9807 10.2966 35.9798C10.9153 35.9791 11.534 35.979 12.1528 35.9793C12.2407 35.9793 12.3286 35.9794 12.4192 35.9794C12.5979 35.9795 12.7765 35.9796 12.9551 35.9798C14.6314 35.9806 16.3078 35.9796 17.9842 35.9779C19.4238 35.9765 20.8634 35.9768 22.303 35.9782C23.9732 35.9799 25.6434 35.9806 27.3136 35.9796C27.4916 35.9795 27.6695 35.9794 27.8475 35.9793C27.9351 35.9793 28.0226 35.9792 28.1129 35.9792C28.7312 35.9789 29.3494 35.9793 29.9677 35.9801C30.7208 35.981 31.4739 35.9807 32.2269 35.979C32.6115 35.9782 32.996 35.9779 33.3805 35.9789C33.7321 35.9799 34.0836 35.9794 34.4352 35.9777C34.5628 35.9773 34.6904 35.9775 34.818 35.9783C34.9907 35.9792 35.1633 35.9783 35.336 35.9768C35.4321 35.9768 35.5282 35.9767 35.6273 35.9767C35.8625 35.958 35.8625 35.958 36.0076 35.8071C36.1143 35.5819 36.1233 35.4219 36.1236 35.1726C36.1246 35.0331 36.1246 35.0331 36.1256 34.8909C36.1249 34.7375 36.1249 34.7375 36.1242 34.5811C36.1245 34.4715 36.1249 34.3619 36.1255 34.2523C36.1266 33.9507 36.1262 33.6492 36.1257 33.3476C36.1253 33.0226 36.1263 32.6975 36.1271 32.3724C36.1284 31.7355 36.1285 31.0985 36.1281 30.4616C36.1278 29.944 36.1279 29.4265 36.1283 28.9089C36.1283 28.8353 36.1284 28.7617 36.1285 28.6859C36.1286 28.5365 36.1287 28.387 36.1288 28.2375C36.1299 26.835 36.1295 25.4324 36.1286 24.0299C36.1278 22.7459 36.1288 21.462 36.1307 20.178C36.1326 18.8604 36.1333 17.5429 36.1328 16.2254C36.1325 15.4853 36.1327 14.7453 36.1341 14.0053C36.1352 13.3753 36.1353 12.7454 36.1339 12.1155C36.1333 11.7939 36.1331 11.4724 36.1343 11.1508C36.1354 10.8567 36.135 10.5626 36.1335 10.2684C36.1331 10.1111 36.1342 9.95387 36.1353 9.79661C36.1345 9.70365 36.1338 9.6107 36.133 9.51492C36.133 9.43452 36.133 9.35412 36.133 9.27128C36.0818 8.99784 36.009 8.90877 35.7814 8.75001C35.5336 8.70311 35.5336 8.70311 35.2509 8.71068C35.1973 8.71023 35.1438 8.70977 35.0886 8.7093C34.9083 8.70816 34.728 8.70925 34.5477 8.71032C34.4174 8.70996 34.2872 8.70947 34.157 8.70885C33.7984 8.70754 33.4399 8.70819 33.0813 8.70916C32.6949 8.70986 32.3085 8.70877 31.922 8.70791C31.1648 8.70652 30.4075 8.70682 29.6502 8.70773C29.035 8.70843 28.4197 8.70853 27.8044 8.70819C27.7169 8.70814 27.6295 8.70809 27.5394 8.70804C27.3617 8.70794 27.184 8.70784 27.0064 8.70774C25.3392 8.70685 23.672 8.70787 22.0048 8.70955C20.5733 8.71095 19.1418 8.71071 17.7103 8.70927C16.0492 8.70759 14.3881 8.70693 12.7269 8.70789C12.5499 8.70799 12.3729 8.70809 12.1959 8.70819C12.1088 8.70824 12.0217 8.70829 11.9319 8.70833C11.3172 8.70861 10.7024 8.70815 10.0876 8.70741C9.33877 8.70654 8.58991 8.70677 7.84104 8.70844C7.45872 8.70926 7.07642 8.70958 6.69411 8.70855C6.34444 8.70762 5.9948 8.70812 5.64514 8.70979C5.51834 8.71014 5.39153 8.70996 5.26473 8.70921C5.09291 8.70826 4.92121 8.70922 4.74941 8.71068C4.65381 8.71073 4.55822 8.71078 4.45973 8.71083C4.21475 8.73284 4.21475 8.73284 4.03194 8.88044Z" fill="#575757"/>
<path d="M28.2422 12.7832C28.5745 13.0989 28.8181 13.4233 28.837 13.8921C28.8364 14.0228 28.8364 14.0228 28.8357 14.1562C28.8354 14.2978 28.8354 14.2978 28.835 14.4423C28.834 14.5903 28.834 14.5903 28.833 14.7412C28.8326 14.8408 28.8323 14.9403 28.8319 15.0429C28.831 15.289 28.8297 15.5351 28.8281 15.7813C28.899 15.78 28.9699 15.7788 29.043 15.7775C29.3077 15.7735 29.5724 15.7706 29.8371 15.7684C29.9514 15.7672 30.0656 15.7656 30.1799 15.7636C30.3447 15.7607 30.5095 15.7594 30.6744 15.7584C30.7734 15.7571 30.8724 15.7559 30.9744 15.7547C31.3958 15.7954 31.6401 15.9352 31.9336 16.2354C32.2137 16.6322 32.3112 16.9319 32.229 17.4204C32.1242 17.8187 31.9688 18.0605 31.6275 18.2952C31.3257 18.4587 31.0722 18.4736 30.7278 18.468C30.6731 18.4676 30.6184 18.4671 30.562 18.4667C30.3893 18.465 30.2166 18.461 30.0439 18.457C29.926 18.4555 29.808 18.4541 29.6901 18.4528C29.4027 18.4493 29.1154 18.444 28.8281 18.4375C28.8293 18.5084 28.8306 18.5793 28.8318 18.6524C28.8358 18.9171 28.8388 19.1818 28.841 19.4465C28.8422 19.5608 28.8438 19.675 28.8458 19.7893C28.8487 19.9541 28.85 20.119 28.851 20.2838C28.8522 20.3828 28.8535 20.4818 28.8547 20.5839C28.8197 20.946 28.7062 21.2062 28.4595 21.4737C28.4135 21.5111 28.3676 21.5484 28.3203 21.5869C28.2514 21.6445 28.2514 21.6445 28.1811 21.7032C27.8562 21.9299 27.4888 21.9102 27.1094 21.875C26.7054 21.7352 26.4948 21.5187 26.25 21.1719C26.1084 20.8249 26.0752 20.5351 26.0785 20.1618C26.079 20.061 26.0795 19.9603 26.08 19.8566C26.0813 19.7514 26.0826 19.6462 26.084 19.541C26.0848 19.434 26.0855 19.327 26.0861 19.22C26.0879 18.9591 26.0905 18.6983 26.0937 18.4375C26.0303 18.4392 25.9669 18.4408 25.9016 18.4425C25.6125 18.449 25.3233 18.453 25.0342 18.457C24.9344 18.4597 24.8347 18.4623 24.7319 18.465C24.1808 18.4707 23.7992 18.4735 23.3594 18.125C23.0306 17.7011 22.9027 17.3329 22.9687 16.7969C23.0945 16.3612 23.3166 16.0898 23.7028 15.8595C24.1298 15.6953 24.5887 15.742 25.039 15.7569C25.1406 15.7586 25.2421 15.7604 25.3467 15.7622C25.5958 15.7668 25.8447 15.7732 26.0937 15.7813C26.0925 15.6968 26.0925 15.6968 26.0913 15.6107C26.088 15.3534 26.086 15.0961 26.084 14.8389C26.0827 14.7503 26.0814 14.6617 26.08 14.5705C26.0767 14.0102 26.0787 13.5504 26.3867 13.0664C26.8868 12.5664 27.6059 12.4878 28.2422 12.7832Z" fill="#575757"/>
<path d="M24.8222 29.3536C24.8891 29.3532 24.956 29.3528 25.0249 29.3523C25.2451 29.3513 25.4652 29.3513 25.6854 29.3515C25.8392 29.3512 25.9929 29.3509 26.1466 29.3505C26.4685 29.3499 26.7904 29.3499 27.1124 29.3504C27.5239 29.3508 27.9354 29.3495 28.347 29.3477C28.6644 29.3465 28.9818 29.3464 29.2993 29.3467C29.451 29.3467 29.6026 29.3462 29.7543 29.3455C29.9669 29.3445 30.1794 29.345 30.392 29.3459C30.454 29.3453 30.516 29.3447 30.58 29.3441C31.0567 29.3486 31.5056 29.427 31.8796 29.747C32.1381 30.108 32.3013 30.4071 32.2656 30.8594C32.1991 31.2333 32.097 31.537 31.8067 31.792C31.3519 32.0922 31.0069 32.1324 30.4752 32.1308C30.3711 32.1314 30.3711 32.1314 30.2649 32.1321C30.0359 32.1331 29.8069 32.1331 29.578 32.1329C29.4185 32.1332 29.259 32.1335 29.0996 32.1339C28.7655 32.1345 28.4314 32.1345 28.0973 32.134C27.6696 32.1336 27.2418 32.1349 26.8141 32.1367C26.4848 32.1379 26.1555 32.138 25.8262 32.1377C25.6685 32.1377 25.5108 32.1382 25.3531 32.1389C25.1325 32.1399 24.9119 32.1394 24.6912 32.1385C24.5938 32.1394 24.5938 32.1394 24.4945 32.1403C24.0451 32.1362 23.7117 32.0559 23.3701 31.7407C23.3327 31.6948 23.2953 31.6489 23.2569 31.6016C23.2185 31.5557 23.1801 31.5097 23.1406 31.4624C22.93 31.1606 22.9233 30.8228 22.9688 30.4688C23.1055 30.0579 23.2983 29.7625 23.6719 29.5313C24.0638 29.369 24.4056 29.3523 24.8222 29.3536Z" fill="#575757"/>
</svg>
