<svg width="40" height="40" viewBox="0 0 40 40" fill="none" xmlns="http://www.w3.org/2000/svg">
<g clip-path="url(#clip0_51_484)">
<mask id="path-1-outside-1_51_484" maskUnits="userSpaceOnUse" x="-0.414795" y="-1.03857" width="41" height="42" fill="black">
<rect fill="white" x="-0.414795" y="-1.03857" width="41" height="42"/>
<path d="M6.00653 -0.0114975C6.08485 -0.0119283 6.08485 -0.0119283 6.16475 -0.0123679C6.33871 -0.0132243 6.51265 -0.0135294 6.68661 -0.013828C6.81178 -0.0143179 6.93694 -0.0148372 7.06211 -0.0153837C7.47243 -0.0170228 7.88275 -0.0178368 8.29307 -0.0186155C8.43481 -0.0189319 8.57655 -0.0192535 8.71829 -0.0195803C9.38467 -0.0210679 10.051 -0.0221797 10.7174 -0.0228312C11.4842 -0.0235934 12.2509 -0.0256466 13.0176 -0.0288079C13.6117 -0.0311728 14.2059 -0.0323218 14.8001 -0.0325798C15.1542 -0.0327625 15.5083 -0.0334505 15.8624 -0.0354283C16.1962 -0.0372624 16.5299 -0.0375717 16.8637 -0.0367751C16.9853 -0.0367367 17.1069 -0.0372198 17.2285 -0.0383029C18.8597 -0.0520049 20.268 0.452858 21.4843 1.5625C22.3194 2.40459 23.1249 3.68812 23.1249 4.92188C23.1761 4.92863 23.2272 4.93537 23.2799 4.94233C24.7536 5.16921 25.9669 5.96364 26.8438 7.1518C27.5524 8.15149 27.8365 9.22903 27.8515 10.4395C27.8529 10.5136 27.8544 10.5877 27.8559 10.664C27.8529 10.9889 27.841 11.1979 27.683 11.4862C27.227 11.8708 26.6827 11.8196 26.1176 11.8183C26.0261 11.8187 25.9346 11.8191 25.8403 11.8196C25.5382 11.8206 25.2361 11.8206 24.934 11.8204C24.777 11.8206 24.6199 11.8208 24.4629 11.8211C23.9695 11.822 23.4761 11.822 22.9827 11.8215C22.4744 11.8211 21.9661 11.822 21.4578 11.8237C21.0206 11.8251 20.5835 11.8255 20.1463 11.8253C19.8855 11.8251 19.6247 11.8255 19.3639 11.8264C19.0731 11.8274 18.7824 11.8269 18.4916 11.826C18.4056 11.8266 18.3196 11.8272 18.2311 11.8278C17.7991 11.8248 17.48 11.8111 17.1093 11.5625C16.7999 11.2318 16.7783 10.8975 16.7849 10.4541C16.8748 8.79459 17.4135 7.40695 18.6123 6.23536C19.3744 5.57954 20.345 5.12181 21.328 4.92188C21.0987 3.8638 20.5793 2.97676 19.6728 2.36328C18.9424 1.92265 18.1591 1.71006 17.3086 1.70778C17.2087 1.70733 17.1088 1.70689 17.0059 1.70643C16.8962 1.70633 16.7865 1.70624 16.6768 1.70616C16.5605 1.7058 16.4442 1.70541 16.3279 1.70499C16.0126 1.70397 15.6973 1.70346 15.3821 1.70311C15.1847 1.70288 14.9874 1.70256 14.7901 1.70221C14.1716 1.70115 13.5532 1.70039 12.9347 1.70009C12.2228 1.69974 11.5109 1.69837 10.7989 1.6961C10.2474 1.69441 9.6958 1.69363 9.14422 1.69352C8.8154 1.69344 8.48658 1.69299 8.15776 1.69158C7.84803 1.69029 7.53832 1.69013 7.22859 1.69081C7.1156 1.69087 7.00261 1.69054 6.88962 1.68976C5.52322 1.68091 4.45997 1.98999 3.45482 2.94098C2.42106 4.03651 2.32004 5.30977 2.32192 6.7456C2.32153 6.88233 2.32107 7.01906 2.32055 7.15579C2.31932 7.52974 2.31905 7.9037 2.31893 8.27765C2.31864 8.68158 2.31746 9.08551 2.31639 9.48944C2.31465 10.1887 2.31347 10.8879 2.31269 11.5872C2.31154 12.5982 2.30955 13.6091 2.30735 14.6201C2.3038 16.2605 2.30094 17.9009 2.29851 19.5412C2.29615 21.1344 2.29347 22.7276 2.29034 24.3208C2.29006 24.4682 2.29006 24.4682 2.28976 24.6186C2.2888 25.1115 2.28782 25.6044 2.28685 26.0973C2.27876 30.1847 2.27192 34.272 2.26555 38.3594C4.43117 38.3336 6.5968 38.3078 8.82804 38.2813C8.64757 38.1266 8.46711 37.9719 8.28117 37.8125C8.09379 37.5611 8.09379 37.5611 7.93937 37.3047C7.86112 37.1778 7.86112 37.1778 7.78129 37.0484C7.65793 36.8004 7.60691 36.6019 7.57804 36.3282C7.5147 36.3318 7.45135 36.3354 7.38609 36.3391C6.36123 36.3725 5.60819 36.082 4.84367 35.3907C4.65941 35.1689 4.51306 34.9401 4.37492 34.6875C4.30725 34.5715 4.30725 34.5715 4.2382 34.4532C3.94532 33.7502 3.9552 33.0317 3.95534 32.2834C3.955 32.0914 3.95216 31.8995 3.9492 31.7075C3.9419 30.691 4.05101 29.7641 4.76555 28.9844C4.82839 28.9151 4.89123 28.8458 4.95598 28.7744C5.8127 28.0013 6.87393 27.8074 7.97019 27.5339C8.22467 27.4694 8.47913 27.4049 8.73354 27.3401C8.99545 27.2737 9.25756 27.2085 9.52039 27.1458C11.0371 26.8409 11.0371 26.8409 12.1389 25.8549C12.1807 25.779 12.2225 25.7032 12.2655 25.625C12.3562 25.5015 12.4485 25.3791 12.5426 25.2582C12.6263 25.143 12.7097 25.0277 12.7929 24.9121C13.2938 24.2246 13.8107 23.5512 14.3371 22.8831C14.4376 22.7542 14.5356 22.6233 14.6331 22.4921C15.2578 21.6616 16.1541 21.109 17.1874 20.9375C17.348 20.9301 17.5087 20.9267 17.6695 20.926C17.7665 20.9255 17.8635 20.9249 17.9635 20.9243C18.0704 20.9241 18.1773 20.9239 18.2842 20.9237C18.3973 20.9232 18.5104 20.9227 18.6235 20.9221C18.9944 20.9205 19.3653 20.9197 19.7362 20.9189C19.8643 20.9186 19.9924 20.9183 20.1205 20.9179C20.7226 20.9164 21.3248 20.9153 21.9269 20.9147C22.6199 20.9139 23.3129 20.9119 24.0059 20.9087C24.5428 20.9063 25.0797 20.9052 25.6166 20.9049C25.9367 20.9048 26.2567 20.9041 26.5768 20.9021C26.8784 20.9003 27.1801 20.8999 27.4817 20.9007C27.5917 20.9008 27.7016 20.9003 27.8115 20.8992C29.0685 20.8875 30.0989 21.2107 31.0399 22.0389C31.6152 22.6601 32.0494 23.3895 32.4852 24.1113C32.893 24.7823 33.3063 25.4485 33.7422 26.1016C33.9843 26.4681 33.9843 26.4681 33.9843 26.6406C34.0502 26.6615 34.1161 26.6824 34.184 26.7039C34.4649 26.801 34.7355 26.9141 35.0066 27.0349C35.0582 27.0579 35.1098 27.0808 35.163 27.1045C35.2717 27.1529 35.3802 27.2015 35.4888 27.2502C35.6529 27.3236 35.8174 27.396 35.9819 27.4683C36.5311 27.7127 37.044 27.9598 37.4999 28.3594C37.5737 28.4222 37.5737 28.4222 37.649 28.4863C38.1518 28.926 38.494 29.5751 38.5936 30.2344C38.6074 30.4867 38.6102 30.7389 38.6123 30.9915C38.6129 31.0651 38.6135 31.1386 38.6142 31.2143C38.6152 31.3699 38.6161 31.5255 38.6167 31.681C38.6176 31.8387 38.6192 31.9963 38.6215 32.154C38.6406 33.4555 38.5551 34.4529 37.6561 35.4688C37.2502 35.8609 36.7815 36.0737 36.2499 36.25C36.2033 36.2661 36.1566 36.2823 36.1086 36.2989C35.9374 36.3282 35.9374 36.3282 35.6527 36.3144C35.3067 36.2985 35.0238 36.3121 34.6874 36.4063C34.4848 36.6566 34.3886 36.8834 34.2849 37.1872C34.1738 37.4832 33.9933 37.6791 33.7799 37.9102C33.716 37.9799 33.652 38.0496 33.5861 38.1214C33.537 38.1741 33.488 38.2269 33.4374 38.2813C33.5041 38.2817 33.5707 38.2822 33.6394 38.2827C34.2682 38.2872 34.8969 38.2928 35.5257 38.2997C35.8489 38.3032 36.1722 38.3063 36.4954 38.3083C36.8075 38.3104 37.1195 38.3135 37.4315 38.3175C37.5505 38.3188 37.6694 38.3197 37.7884 38.3202C37.9552 38.3209 38.122 38.3231 38.2888 38.3256C38.3837 38.3265 38.4786 38.3274 38.5764 38.3283C38.8502 38.3621 38.9979 38.4317 39.2186 38.5938C39.4015 38.8289 39.4071 39.0842 39.4005 39.3775C39.36 39.6206 39.2354 39.754 39.0624 39.9219C38.82 40.0431 38.5636 40.011 38.2975 40.0105C38.2336 40.0107 38.1697 40.0109 38.1038 40.0111C37.8874 40.0116 37.6709 40.0116 37.4545 40.0115C37.2986 40.0118 37.1428 40.0121 36.987 40.0124C36.557 40.0132 36.127 40.0135 35.697 40.0137C35.2339 40.014 34.7708 40.0147 34.3078 40.0154C33.2416 40.0169 32.1753 40.0177 31.1091 40.0183C30.5825 40.0187 30.0558 40.0191 29.5292 40.0195C27.7272 40.0209 25.9252 40.0221 24.1231 40.0226C24.01 40.0227 23.8968 40.0227 23.7837 40.0228C23.6995 40.0228 23.6995 40.0228 23.6136 40.0228C23.3293 40.0229 23.0449 40.023 22.7606 40.0231C22.7042 40.0231 22.6477 40.0231 22.5896 40.0231C20.7594 40.0238 18.9292 40.0256 17.099 40.0281C15.165 40.0308 13.2309 40.0324 11.2969 40.0326C11.0847 40.0326 10.8725 40.0327 10.6603 40.0327C10.608 40.0327 10.5558 40.0327 10.5019 40.0327C9.71226 40.0329 8.92259 40.034 8.13291 40.0355C7.235 40.0371 6.33708 40.0378 5.43916 40.037C4.98073 40.0367 4.52232 40.0368 4.06389 40.0383C3.64459 40.0397 3.2253 40.0396 2.806 40.0384C2.65395 40.0382 2.5019 40.0386 2.34986 40.0395C2.14382 40.0407 1.93787 40.0399 1.73184 40.0387C1.67224 40.0395 1.61265 40.0403 1.55125 40.0411C1.1686 40.0361 0.971157 39.9611 0.703051 39.6875C0.588106 39.4576 0.613908 39.2256 0.61444 38.9736C0.614256 38.9152 0.614072 38.8568 0.613883 38.7966C0.613359 38.5989 0.613396 38.4012 0.613428 38.2035C0.613171 38.0611 0.61288 37.9187 0.612558 37.7764C0.611773 37.3835 0.611484 36.9906 0.611277 36.5977C0.610973 36.1746 0.610225 35.7515 0.609542 35.3283C0.607996 34.3054 0.607211 33.2824 0.606517 32.2594C0.606174 31.7778 0.605755 31.2962 0.605345 30.8145C0.604016 29.2134 0.602883 27.6122 0.602318 26.0111C0.602169 25.5953 0.602019 25.1795 0.601866 24.7638C0.601847 24.7121 0.601829 24.6604 0.60181 24.6072C0.601174 22.8821 0.599204 21.157 0.596586 19.4318C0.594002 17.7145 0.592596 15.9971 0.592346 14.2797C0.592177 13.3155 0.591495 12.3512 0.589498 11.3869C0.5878 10.5653 0.587174 9.74376 0.587932 8.9222C0.588287 8.50323 0.588142 8.08428 0.586623 7.66531C0.585242 7.28113 0.585326 6.89699 0.586536 6.51282C0.586722 6.37443 0.586387 6.23604 0.585456 6.09765C0.578624 5.01395 0.709151 4.01109 1.21575 3.03223C1.24193 2.98082 1.26811 2.92942 1.29509 2.87646C1.58757 2.33208 1.97983 1.91063 2.4218 1.48438C2.47125 1.43251 2.52069 1.38065 2.57164 1.32721C3.4353 0.478805 4.81653 -0.00723025 6.00653 -0.0114975ZM20.9374 6.79688C20.884 6.81863 20.8307 6.84039 20.7757 6.8628C19.7291 7.3389 19.096 8.17212 18.6648 9.21723C18.5685 9.5129 18.5685 9.5129 18.5155 10.0781C21.0163 10.0781 23.5171 10.0781 26.0937 10.0781C25.9877 9.01891 25.6939 8.23663 24.9032 7.49146C23.7872 6.5894 22.2992 6.23471 20.9374 6.79688ZM16.188 23.2785C15.9939 23.509 15.8085 23.7455 15.6249 23.9844C15.5808 24.0418 15.5366 24.0992 15.4911 24.1583C15.1736 24.5721 14.8581 24.9875 14.5431 25.4032C14.2646 25.7705 13.9853 26.1372 13.706 26.5039C13.6558 26.5699 13.6056 26.6358 13.554 26.7038C13.4576 26.8304 13.3603 26.9564 13.2622 27.0818C13.1225 27.2624 13.1225 27.2624 13.0111 27.4556C12.6478 28.0253 12.1686 28.1505 11.5427 28.3058C11.2964 28.3673 11.0514 28.4327 10.8062 28.4985C10.409 28.6048 10.0116 28.7104 9.61402 28.8152C9.56286 28.8287 9.51169 28.8422 9.45897 28.8561C9.19693 28.9251 8.93477 28.9937 8.67239 29.0614C8.46463 29.1151 8.25709 29.1695 8.04972 29.2247C7.85644 29.2761 7.66289 29.3265 7.46904 29.3757C6.87394 29.5358 6.29169 29.7148 5.90467 30.224C5.69569 30.596 5.6578 30.9426 5.66429 31.3629C5.66418 31.4234 5.66406 31.4838 5.66394 31.5461C5.66407 31.6728 5.66497 31.7995 5.6666 31.9262C5.66887 32.1192 5.6682 32.3121 5.66719 32.5052C5.66768 32.629 5.66833 32.7528 5.66917 32.8766C5.66894 32.9338 5.66871 32.9909 5.66848 33.0498C5.67726 33.5307 5.80692 33.8367 6.12297 34.1944C6.5474 34.5683 6.86818 34.6525 7.42179 34.6875C7.44455 34.612 7.46731 34.5365 7.49076 34.4586C7.85076 33.301 8.3621 32.3378 9.45304 31.7188C10.6795 31.1887 11.8061 31.0881 13.0611 31.5824C14.1073 32.0715 14.7792 32.8146 15.1855 33.8965C15.277 34.1631 15.3347 34.4082 15.3905 34.6875C19.1546 34.6875 22.9187 34.6875 26.7968 34.6875C26.9257 34.275 27.0546 33.8625 27.1874 33.4375C27.3403 33.1764 27.4716 32.9646 27.6561 32.7344C27.7432 32.6135 27.7432 32.6135 27.8319 32.4903C28.6057 31.6813 29.6744 31.2576 30.7909 31.2305C31.9283 31.2479 32.9378 31.7206 33.7499 32.5C34.3021 33.1451 34.5833 33.8678 34.7655 34.6875C35.4042 34.7229 35.9114 34.6679 36.4306 34.2725C37.0582 33.6448 36.9673 32.8298 36.9677 32.002C36.9686 31.9013 36.9696 31.8006 36.9706 31.6968C36.9759 30.7141 36.9758 30.7141 36.5624 29.8438C36.2008 29.4845 35.8276 29.2606 35.3606 29.064C35.2999 29.0375 35.2392 29.011 35.1766 28.9837C34.9846 28.9 34.7921 28.8176 34.5995 28.7354C34.4065 28.652 34.2136 28.5684 34.0207 28.4846C33.9013 28.4327 33.7818 28.3812 33.6621 28.3301C33.1715 28.1187 32.8216 27.9587 32.5393 27.4838C32.4649 27.3607 32.4649 27.3607 32.3891 27.235C32.3371 27.1468 32.285 27.0586 32.2313 26.9678C32.1484 26.8298 32.0651 26.692 31.9818 26.5543C31.9252 26.4606 31.8687 26.3668 31.8123 26.273C30.6834 24.0835 30.6834 24.0835 28.828 22.6563C28.3088 22.5588 27.7928 22.566 27.2658 22.5656C27.1643 22.5652 27.0629 22.5648 26.9584 22.5644C26.6812 22.5634 26.404 22.5629 26.1269 22.5625C25.9533 22.5623 25.7796 22.562 25.606 22.5616C25.0616 22.5605 24.5171 22.5598 23.9727 22.5595C23.3466 22.5591 22.7205 22.5578 22.0944 22.5555C21.6088 22.5538 21.1233 22.553 20.6377 22.5529C20.3484 22.5528 20.0592 22.5524 19.7699 22.551C19.4467 22.5494 19.1235 22.5498 18.8002 22.5503C18.7058 22.5496 18.6114 22.5489 18.5142 22.5481C17.6733 22.5522 16.7831 22.6263 16.188 23.2785ZM9.5507 33.7256C9.16702 34.2211 8.994 34.853 9.06242 35.4688C9.19031 36.1272 9.4686 36.5861 9.94621 37.0508C10.5625 37.4521 11.1834 37.6605 11.9189 37.5293C12.6637 37.3356 13.2076 36.8243 13.5937 36.1719C13.8358 35.5495 13.8517 34.8851 13.6132 34.2578C13.3171 33.6227 12.8621 33.2426 12.224 32.959C11.1872 32.5915 10.2952 32.9981 9.5507 33.7256ZM29.2968 33.3594C28.743 33.8973 28.4266 34.4128 28.3983 35.1953C28.4263 35.9702 28.7375 36.5053 29.2968 37.0313C29.7541 37.4205 30.2628 37.562 30.8593 37.5782C31.6415 37.4778 32.1827 37.1871 32.6864 36.583C33.0796 36.0316 33.229 35.4357 33.1249 34.7657C32.9107 34.0093 32.564 33.5545 31.9384 33.1006C31.0958 32.6681 30.0238 32.7338 29.2968 33.3594ZM15.3124 36.3282C15.1319 36.6891 14.9515 37.05 14.7655 37.4219C14.5412 37.714 14.5412 37.714 14.3407 37.9151C14.1112 38.1081 14.1112 38.1081 13.9843 38.3594C18.7023 38.3594 23.4202 38.3594 28.2811 38.3594C28.1522 38.2305 28.0233 38.1016 27.8905 37.9688C27.4388 37.4605 27.1869 36.9522 26.8749 36.3282C23.0593 36.3282 19.2437 36.3282 15.3124 36.3282Z"/>
</mask>
<path d="M6.00653 -0.0114975C6.08485 -0.0119283 6.08485 -0.0119283 6.16475 -0.0123679C6.33871 -0.0132243 6.51265 -0.0135294 6.68661 -0.013828C6.81178 -0.0143179 6.93694 -0.0148372 7.06211 -0.0153837C7.47243 -0.0170228 7.88275 -0.0178368 8.29307 -0.0186155C8.43481 -0.0189319 8.57655 -0.0192535 8.71829 -0.0195803C9.38467 -0.0210679 10.051 -0.0221797 10.7174 -0.0228312C11.4842 -0.0235934 12.2509 -0.0256466 13.0176 -0.0288079C13.6117 -0.0311728 14.2059 -0.0323218 14.8001 -0.0325798C15.1542 -0.0327625 15.5083 -0.0334505 15.8624 -0.0354283C16.1962 -0.0372624 16.5299 -0.0375717 16.8637 -0.0367751C16.9853 -0.0367367 17.1069 -0.0372198 17.2285 -0.0383029C18.8597 -0.0520049 20.268 0.452858 21.4843 1.5625C22.3194 2.40459 23.1249 3.68812 23.1249 4.92188C23.1761 4.92863 23.2272 4.93537 23.2799 4.94233C24.7536 5.16921 25.9669 5.96364 26.8438 7.1518C27.5524 8.15149 27.8365 9.22903 27.8515 10.4395C27.8529 10.5136 27.8544 10.5877 27.8559 10.664C27.8529 10.9889 27.841 11.1979 27.683 11.4862C27.227 11.8708 26.6827 11.8196 26.1176 11.8183C26.0261 11.8187 25.9346 11.8191 25.8403 11.8196C25.5382 11.8206 25.2361 11.8206 24.934 11.8204C24.777 11.8206 24.6199 11.8208 24.4629 11.8211C23.9695 11.822 23.4761 11.822 22.9827 11.8215C22.4744 11.8211 21.9661 11.822 21.4578 11.8237C21.0206 11.8251 20.5835 11.8255 20.1463 11.8253C19.8855 11.8251 19.6247 11.8255 19.3639 11.8264C19.0731 11.8274 18.7824 11.8269 18.4916 11.826C18.4056 11.8266 18.3196 11.8272 18.2311 11.8278C17.7991 11.8248 17.48 11.8111 17.1093 11.5625C16.7999 11.2318 16.7783 10.8975 16.7849 10.4541C16.8748 8.79459 17.4135 7.40695 18.6123 6.23536C19.3744 5.57954 20.345 5.12181 21.328 4.92188C21.0987 3.8638 20.5793 2.97676 19.6728 2.36328C18.9424 1.92265 18.1591 1.71006 17.3086 1.70778C17.2087 1.70733 17.1088 1.70689 17.0059 1.70643C16.8962 1.70633 16.7865 1.70624 16.6768 1.70616C16.5605 1.7058 16.4442 1.70541 16.3279 1.70499C16.0126 1.70397 15.6973 1.70346 15.3821 1.70311C15.1847 1.70288 14.9874 1.70256 14.7901 1.70221C14.1716 1.70115 13.5532 1.70039 12.9347 1.70009C12.2228 1.69974 11.5109 1.69837 10.7989 1.6961C10.2474 1.69441 9.6958 1.69363 9.14422 1.69352C8.8154 1.69344 8.48658 1.69299 8.15776 1.69158C7.84803 1.69029 7.53832 1.69013 7.22859 1.69081C7.1156 1.69087 7.00261 1.69054 6.88962 1.68976C5.52322 1.68091 4.45997 1.98999 3.45482 2.94098C2.42106 4.03651 2.32004 5.30977 2.32192 6.7456C2.32153 6.88233 2.32107 7.01906 2.32055 7.15579C2.31932 7.52974 2.31905 7.9037 2.31893 8.27765C2.31864 8.68158 2.31746 9.08551 2.31639 9.48944C2.31465 10.1887 2.31347 10.8879 2.31269 11.5872C2.31154 12.5982 2.30955 13.6091 2.30735 14.6201C2.3038 16.2605 2.30094 17.9009 2.29851 19.5412C2.29615 21.1344 2.29347 22.7276 2.29034 24.3208C2.29006 24.4682 2.29006 24.4682 2.28976 24.6186C2.2888 25.1115 2.28782 25.6044 2.28685 26.0973C2.27876 30.1847 2.27192 34.272 2.26555 38.3594C4.43117 38.3336 6.5968 38.3078 8.82804 38.2813C8.64757 38.1266 8.46711 37.9719 8.28117 37.8125C8.09379 37.5611 8.09379 37.5611 7.93937 37.3047C7.86112 37.1778 7.86112 37.1778 7.78129 37.0484C7.65793 36.8004 7.60691 36.6019 7.57804 36.3282C7.5147 36.3318 7.45135 36.3354 7.38609 36.3391C6.36123 36.3725 5.60819 36.082 4.84367 35.3907C4.65941 35.1689 4.51306 34.9401 4.37492 34.6875C4.30725 34.5715 4.30725 34.5715 4.2382 34.4532C3.94532 33.7502 3.9552 33.0317 3.95534 32.2834C3.955 32.0914 3.95216 31.8995 3.9492 31.7075C3.9419 30.691 4.05101 29.7641 4.76555 28.9844C4.82839 28.9151 4.89123 28.8458 4.95598 28.7744C5.8127 28.0013 6.87393 27.8074 7.97019 27.5339C8.22467 27.4694 8.47913 27.4049 8.73354 27.3401C8.99545 27.2737 9.25756 27.2085 9.52039 27.1458C11.0371 26.8409 11.0371 26.8409 12.1389 25.8549C12.1807 25.779 12.2225 25.7032 12.2655 25.625C12.3562 25.5015 12.4485 25.3791 12.5426 25.2582C12.6263 25.143 12.7097 25.0277 12.7929 24.9121C13.2938 24.2246 13.8107 23.5512 14.3371 22.8831C14.4376 22.7542 14.5356 22.6233 14.6331 22.4921C15.2578 21.6616 16.1541 21.109 17.1874 20.9375C17.348 20.9301 17.5087 20.9267 17.6695 20.926C17.7665 20.9255 17.8635 20.9249 17.9635 20.9243C18.0704 20.9241 18.1773 20.9239 18.2842 20.9237C18.3973 20.9232 18.5104 20.9227 18.6235 20.9221C18.9944 20.9205 19.3653 20.9197 19.7362 20.9189C19.8643 20.9186 19.9924 20.9183 20.1205 20.9179C20.7226 20.9164 21.3248 20.9153 21.9269 20.9147C22.6199 20.9139 23.3129 20.9119 24.0059 20.9087C24.5428 20.9063 25.0797 20.9052 25.6166 20.9049C25.9367 20.9048 26.2567 20.9041 26.5768 20.9021C26.8784 20.9003 27.1801 20.8999 27.4817 20.9007C27.5917 20.9008 27.7016 20.9003 27.8115 20.8992C29.0685 20.8875 30.0989 21.2107 31.0399 22.0389C31.6152 22.6601 32.0494 23.3895 32.4852 24.1113C32.893 24.7823 33.3063 25.4485 33.7422 26.1016C33.9843 26.4681 33.9843 26.4681 33.9843 26.6406C34.0502 26.6615 34.1161 26.6824 34.184 26.7039C34.4649 26.801 34.7355 26.9141 35.0066 27.0349C35.0582 27.0579 35.1098 27.0808 35.163 27.1045C35.2717 27.1529 35.3802 27.2015 35.4888 27.2502C35.6529 27.3236 35.8174 27.396 35.9819 27.4683C36.5311 27.7127 37.044 27.9598 37.4999 28.3594C37.5737 28.4222 37.5737 28.4222 37.649 28.4863C38.1518 28.926 38.494 29.5751 38.5936 30.2344C38.6074 30.4867 38.6102 30.7389 38.6123 30.9915C38.6129 31.0651 38.6135 31.1386 38.6142 31.2143C38.6152 31.3699 38.6161 31.5255 38.6167 31.681C38.6176 31.8387 38.6192 31.9963 38.6215 32.154C38.6406 33.4555 38.5551 34.4529 37.6561 35.4688C37.2502 35.8609 36.7815 36.0737 36.2499 36.25C36.2033 36.2661 36.1566 36.2823 36.1086 36.2989C35.9374 36.3282 35.9374 36.3282 35.6527 36.3144C35.3067 36.2985 35.0238 36.3121 34.6874 36.4063C34.4848 36.6566 34.3886 36.8834 34.2849 37.1872C34.1738 37.4832 33.9933 37.6791 33.7799 37.9102C33.716 37.9799 33.652 38.0496 33.5861 38.1214C33.537 38.1741 33.488 38.2269 33.4374 38.2813C33.5041 38.2817 33.5707 38.2822 33.6394 38.2827C34.2682 38.2872 34.8969 38.2928 35.5257 38.2997C35.8489 38.3032 36.1722 38.3063 36.4954 38.3083C36.8075 38.3104 37.1195 38.3135 37.4315 38.3175C37.5505 38.3188 37.6694 38.3197 37.7884 38.3202C37.9552 38.3209 38.122 38.3231 38.2888 38.3256C38.3837 38.3265 38.4786 38.3274 38.5764 38.3283C38.8502 38.3621 38.9979 38.4317 39.2186 38.5938C39.4015 38.8289 39.4071 39.0842 39.4005 39.3775C39.36 39.6206 39.2354 39.754 39.0624 39.9219C38.82 40.0431 38.5636 40.011 38.2975 40.0105C38.2336 40.0107 38.1697 40.0109 38.1038 40.0111C37.8874 40.0116 37.6709 40.0116 37.4545 40.0115C37.2986 40.0118 37.1428 40.0121 36.987 40.0124C36.557 40.0132 36.127 40.0135 35.697 40.0137C35.2339 40.014 34.7708 40.0147 34.3078 40.0154C33.2416 40.0169 32.1753 40.0177 31.1091 40.0183C30.5825 40.0187 30.0558 40.0191 29.5292 40.0195C27.7272 40.0209 25.9252 40.0221 24.1231 40.0226C24.01 40.0227 23.8968 40.0227 23.7837 40.0228C23.6995 40.0228 23.6995 40.0228 23.6136 40.0228C23.3293 40.0229 23.0449 40.023 22.7606 40.0231C22.7042 40.0231 22.6477 40.0231 22.5896 40.0231C20.7594 40.0238 18.9292 40.0256 17.099 40.0281C15.165 40.0308 13.2309 40.0324 11.2969 40.0326C11.0847 40.0326 10.8725 40.0327 10.6603 40.0327C10.608 40.0327 10.5558 40.0327 10.5019 40.0327C9.71226 40.0329 8.92259 40.034 8.13291 40.0355C7.235 40.0371 6.33708 40.0378 5.43916 40.037C4.98073 40.0367 4.52232 40.0368 4.06389 40.0383C3.64459 40.0397 3.2253 40.0396 2.806 40.0384C2.65395 40.0382 2.5019 40.0386 2.34986 40.0395C2.14382 40.0407 1.93787 40.0399 1.73184 40.0387C1.67224 40.0395 1.61265 40.0403 1.55125 40.0411C1.1686 40.0361 0.971157 39.9611 0.703051 39.6875C0.588106 39.4576 0.613908 39.2256 0.61444 38.9736C0.614256 38.9152 0.614072 38.8568 0.613883 38.7966C0.613359 38.5989 0.613396 38.4012 0.613428 38.2035C0.613171 38.0611 0.61288 37.9187 0.612558 37.7764C0.611773 37.3835 0.611484 36.9906 0.611277 36.5977C0.610973 36.1746 0.610225 35.7515 0.609542 35.3283C0.607996 34.3054 0.607211 33.2824 0.606517 32.2594C0.606174 31.7778 0.605755 31.2962 0.605345 30.8145C0.604016 29.2134 0.602883 27.6122 0.602318 26.0111C0.602169 25.5953 0.602019 25.1795 0.601866 24.7638C0.601847 24.7121 0.601829 24.6604 0.60181 24.6072C0.601174 22.8821 0.599204 21.157 0.596586 19.4318C0.594002 17.7145 0.592596 15.9971 0.592346 14.2797C0.592177 13.3155 0.591495 12.3512 0.589498 11.3869C0.5878 10.5653 0.587174 9.74376 0.587932 8.9222C0.588287 8.50323 0.588142 8.08428 0.586623 7.66531C0.585242 7.28113 0.585326 6.89699 0.586536 6.51282C0.586722 6.37443 0.586387 6.23604 0.585456 6.09765C0.578624 5.01395 0.709151 4.01109 1.21575 3.03223C1.24193 2.98082 1.26811 2.92942 1.29509 2.87646C1.58757 2.33208 1.97983 1.91063 2.4218 1.48438C2.47125 1.43251 2.52069 1.38065 2.57164 1.32721C3.4353 0.478805 4.81653 -0.00723025 6.00653 -0.0114975ZM20.9374 6.79688C20.884 6.81863 20.8307 6.84039 20.7757 6.8628C19.7291 7.3389 19.096 8.17212 18.6648 9.21723C18.5685 9.5129 18.5685 9.5129 18.5155 10.0781C21.0163 10.0781 23.5171 10.0781 26.0937 10.0781C25.9877 9.01891 25.6939 8.23663 24.9032 7.49146C23.7872 6.5894 22.2992 6.23471 20.9374 6.79688ZM16.188 23.2785C15.9939 23.509 15.8085 23.7455 15.6249 23.9844C15.5808 24.0418 15.5366 24.0992 15.4911 24.1583C15.1736 24.5721 14.8581 24.9875 14.5431 25.4032C14.2646 25.7705 13.9853 26.1372 13.706 26.5039C13.6558 26.5699 13.6056 26.6358 13.554 26.7038C13.4576 26.8304 13.3603 26.9564 13.2622 27.0818C13.1225 27.2624 13.1225 27.2624 13.0111 27.4556C12.6478 28.0253 12.1686 28.1505 11.5427 28.3058C11.2964 28.3673 11.0514 28.4327 10.8062 28.4985C10.409 28.6048 10.0116 28.7104 9.61402 28.8152C9.56286 28.8287 9.51169 28.8422 9.45897 28.8561C9.19693 28.9251 8.93477 28.9937 8.67239 29.0614C8.46463 29.1151 8.25709 29.1695 8.04972 29.2247C7.85644 29.2761 7.66289 29.3265 7.46904 29.3757C6.87394 29.5358 6.29169 29.7148 5.90467 30.224C5.69569 30.596 5.6578 30.9426 5.66429 31.3629C5.66418 31.4234 5.66406 31.4838 5.66394 31.5461C5.66407 31.6728 5.66497 31.7995 5.6666 31.9262C5.66887 32.1192 5.6682 32.3121 5.66719 32.5052C5.66768 32.629 5.66833 32.7528 5.66917 32.8766C5.66894 32.9338 5.66871 32.9909 5.66848 33.0498C5.67726 33.5307 5.80692 33.8367 6.12297 34.1944C6.5474 34.5683 6.86818 34.6525 7.42179 34.6875C7.44455 34.612 7.46731 34.5365 7.49076 34.4586C7.85076 33.301 8.3621 32.3378 9.45304 31.7188C10.6795 31.1887 11.8061 31.0881 13.0611 31.5824C14.1073 32.0715 14.7792 32.8146 15.1855 33.8965C15.277 34.1631 15.3347 34.4082 15.3905 34.6875C19.1546 34.6875 22.9187 34.6875 26.7968 34.6875C26.9257 34.275 27.0546 33.8625 27.1874 33.4375C27.3403 33.1764 27.4716 32.9646 27.6561 32.7344C27.7432 32.6135 27.7432 32.6135 27.8319 32.4903C28.6057 31.6813 29.6744 31.2576 30.7909 31.2305C31.9283 31.2479 32.9378 31.7206 33.7499 32.5C34.3021 33.1451 34.5833 33.8678 34.7655 34.6875C35.4042 34.7229 35.9114 34.6679 36.4306 34.2725C37.0582 33.6448 36.9673 32.8298 36.9677 32.002C36.9686 31.9013 36.9696 31.8006 36.9706 31.6968C36.9759 30.7141 36.9758 30.7141 36.5624 29.8438C36.2008 29.4845 35.8276 29.2606 35.3606 29.064C35.2999 29.0375 35.2392 29.011 35.1766 28.9837C34.9846 28.9 34.7921 28.8176 34.5995 28.7354C34.4065 28.652 34.2136 28.5684 34.0207 28.4846C33.9013 28.4327 33.7818 28.3812 33.6621 28.3301C33.1715 28.1187 32.8216 27.9587 32.5393 27.4838C32.4649 27.3607 32.4649 27.3607 32.3891 27.235C32.3371 27.1468 32.285 27.0586 32.2313 26.9678C32.1484 26.8298 32.0651 26.692 31.9818 26.5543C31.9252 26.4606 31.8687 26.3668 31.8123 26.273C30.6834 24.0835 30.6834 24.0835 28.828 22.6563C28.3088 22.5588 27.7928 22.566 27.2658 22.5656C27.1643 22.5652 27.0629 22.5648 26.9584 22.5644C26.6812 22.5634 26.404 22.5629 26.1269 22.5625C25.9533 22.5623 25.7796 22.562 25.606 22.5616C25.0616 22.5605 24.5171 22.5598 23.9727 22.5595C23.3466 22.5591 22.7205 22.5578 22.0944 22.5555C21.6088 22.5538 21.1233 22.553 20.6377 22.5529C20.3484 22.5528 20.0592 22.5524 19.7699 22.551C19.4467 22.5494 19.1235 22.5498 18.8002 22.5503C18.7058 22.5496 18.6114 22.5489 18.5142 22.5481C17.6733 22.5522 16.7831 22.6263 16.188 23.2785ZM9.5507 33.7256C9.16702 34.2211 8.994 34.853 9.06242 35.4688C9.19031 36.1272 9.4686 36.5861 9.94621 37.0508C10.5625 37.4521 11.1834 37.6605 11.9189 37.5293C12.6637 37.3356 13.2076 36.8243 13.5937 36.1719C13.8358 35.5495 13.8517 34.8851 13.6132 34.2578C13.3171 33.6227 12.8621 33.2426 12.224 32.959C11.1872 32.5915 10.2952 32.9981 9.5507 33.7256ZM29.2968 33.3594C28.743 33.8973 28.4266 34.4128 28.3983 35.1953C28.4263 35.9702 28.7375 36.5053 29.2968 37.0313C29.7541 37.4205 30.2628 37.562 30.8593 37.5782C31.6415 37.4778 32.1827 37.1871 32.6864 36.583C33.0796 36.0316 33.229 35.4357 33.1249 34.7657C32.9107 34.0093 32.564 33.5545 31.9384 33.1006C31.0958 32.6681 30.0238 32.7338 29.2968 33.3594ZM15.3124 36.3282C15.1319 36.6891 14.9515 37.05 14.7655 37.4219C14.5412 37.714 14.5412 37.714 14.3407 37.9151C14.1112 38.1081 14.1112 38.1081 13.9843 38.3594C18.7023 38.3594 23.4202 38.3594 28.2811 38.3594C28.1522 38.2305 28.0233 38.1016 27.8905 37.9688C27.4388 37.4605 27.1869 36.9522 26.8749 36.3282C23.0593 36.3282 19.2437 36.3282 15.3124 36.3282Z" fill="#575757"/>
<path d="M6.00653 -0.0114975C6.08485 -0.0119283 6.08485 -0.0119283 6.16475 -0.0123679C6.33871 -0.0132243 6.51265 -0.0135294 6.68661 -0.013828C6.81178 -0.0143179 6.93694 -0.0148372 7.06211 -0.0153837C7.47243 -0.0170228 7.88275 -0.0178368 8.29307 -0.0186155C8.43481 -0.0189319 8.57655 -0.0192535 8.71829 -0.0195803C9.38467 -0.0210679 10.051 -0.0221797 10.7174 -0.0228312C11.4842 -0.0235934 12.2509 -0.0256466 13.0176 -0.0288079C13.6117 -0.0311728 14.2059 -0.0323218 14.8001 -0.0325798C15.1542 -0.0327625 15.5083 -0.0334505 15.8624 -0.0354283C16.1962 -0.0372624 16.5299 -0.0375717 16.8637 -0.0367751C16.9853 -0.0367367 17.1069 -0.0372198 17.2285 -0.0383029C18.8597 -0.0520049 20.268 0.452858 21.4843 1.5625C22.3194 2.40459 23.1249 3.68812 23.1249 4.92188C23.1761 4.92863 23.2272 4.93537 23.2799 4.94233C24.7536 5.16921 25.9669 5.96364 26.8438 7.1518C27.5524 8.15149 27.8365 9.22903 27.8515 10.4395C27.8529 10.5136 27.8544 10.5877 27.8559 10.664C27.8529 10.9889 27.841 11.1979 27.683 11.4862C27.227 11.8708 26.6827 11.8196 26.1176 11.8183C26.0261 11.8187 25.9346 11.8191 25.8403 11.8196C25.5382 11.8206 25.2361 11.8206 24.934 11.8204C24.777 11.8206 24.6199 11.8208 24.4629 11.8211C23.9695 11.822 23.4761 11.822 22.9827 11.8215C22.4744 11.8211 21.9661 11.822 21.4578 11.8237C21.0206 11.8251 20.5835 11.8255 20.1463 11.8253C19.8855 11.8251 19.6247 11.8255 19.3639 11.8264C19.0731 11.8274 18.7824 11.8269 18.4916 11.826C18.4056 11.8266 18.3196 11.8272 18.2311 11.8278C17.7991 11.8248 17.48 11.8111 17.1093 11.5625C16.7999 11.2318 16.7783 10.8975 16.7849 10.4541C16.8748 8.79459 17.4135 7.40695 18.6123 6.23536C19.3744 5.57954 20.345 5.12181 21.328 4.92188C21.0987 3.8638 20.5793 2.97676 19.6728 2.36328C18.9424 1.92265 18.1591 1.71006 17.3086 1.70778C17.2087 1.70733 17.1088 1.70689 17.0059 1.70643C16.8962 1.70633 16.7865 1.70624 16.6768 1.70616C16.5605 1.7058 16.4442 1.70541 16.3279 1.70499C16.0126 1.70397 15.6973 1.70346 15.3821 1.70311C15.1847 1.70288 14.9874 1.70256 14.7901 1.70221C14.1716 1.70115 13.5532 1.70039 12.9347 1.70009C12.2228 1.69974 11.5109 1.69837 10.7989 1.6961C10.2474 1.69441 9.6958 1.69363 9.14422 1.69352C8.8154 1.69344 8.48658 1.69299 8.15776 1.69158C7.84803 1.69029 7.53832 1.69013 7.22859 1.69081C7.1156 1.69087 7.00261 1.69054 6.88962 1.68976C5.52322 1.68091 4.45997 1.98999 3.45482 2.94098C2.42106 4.03651 2.32004 5.30977 2.32192 6.7456C2.32153 6.88233 2.32107 7.01906 2.32055 7.15579C2.31932 7.52974 2.31905 7.9037 2.31893 8.27765C2.31864 8.68158 2.31746 9.08551 2.31639 9.48944C2.31465 10.1887 2.31347 10.8879 2.31269 11.5872C2.31154 12.5982 2.30955 13.6091 2.30735 14.6201C2.3038 16.2605 2.30094 17.9009 2.29851 19.5412C2.29615 21.1344 2.29347 22.7276 2.29034 24.3208C2.29006 24.4682 2.29006 24.4682 2.28976 24.6186C2.2888 25.1115 2.28782 25.6044 2.28685 26.0973C2.27876 30.1847 2.27192 34.272 2.26555 38.3594C4.43117 38.3336 6.5968 38.3078 8.82804 38.2813C8.64757 38.1266 8.46711 37.9719 8.28117 37.8125C8.09379 37.5611 8.09379 37.5611 7.93937 37.3047C7.86112 37.1778 7.86112 37.1778 7.78129 37.0484C7.65793 36.8004 7.60691 36.6019 7.57804 36.3282C7.5147 36.3318 7.45135 36.3354 7.38609 36.3391C6.36123 36.3725 5.60819 36.082 4.84367 35.3907C4.65941 35.1689 4.51306 34.9401 4.37492 34.6875C4.30725 34.5715 4.30725 34.5715 4.2382 34.4532C3.94532 33.7502 3.9552 33.0317 3.95534 32.2834C3.955 32.0914 3.95216 31.8995 3.9492 31.7075C3.9419 30.691 4.05101 29.7641 4.76555 28.9844C4.82839 28.9151 4.89123 28.8458 4.95598 28.7744C5.8127 28.0013 6.87393 27.8074 7.97019 27.5339C8.22467 27.4694 8.47913 27.4049 8.73354 27.3401C8.99545 27.2737 9.25756 27.2085 9.52039 27.1458C11.0371 26.8409 11.0371 26.8409 12.1389 25.8549C12.1807 25.779 12.2225 25.7032 12.2655 25.625C12.3562 25.5015 12.4485 25.3791 12.5426 25.2582C12.6263 25.143 12.7097 25.0277 12.7929 24.9121C13.2938 24.2246 13.8107 23.5512 14.3371 22.8831C14.4376 22.7542 14.5356 22.6233 14.6331 22.4921C15.2578 21.6616 16.1541 21.109 17.1874 20.9375C17.348 20.9301 17.5087 20.9267 17.6695 20.926C17.7665 20.9255 17.8635 20.9249 17.9635 20.9243C18.0704 20.9241 18.1773 20.9239 18.2842 20.9237C18.3973 20.9232 18.5104 20.9227 18.6235 20.9221C18.9944 20.9205 19.3653 20.9197 19.7362 20.9189C19.8643 20.9186 19.9924 20.9183 20.1205 20.9179C20.7226 20.9164 21.3248 20.9153 21.9269 20.9147C22.6199 20.9139 23.3129 20.9119 24.0059 20.9087C24.5428 20.9063 25.0797 20.9052 25.6166 20.9049C25.9367 20.9048 26.2567 20.9041 26.5768 20.9021C26.8784 20.9003 27.1801 20.8999 27.4817 20.9007C27.5917 20.9008 27.7016 20.9003 27.8115 20.8992C29.0685 20.8875 30.0989 21.2107 31.0399 22.0389C31.6152 22.6601 32.0494 23.3895 32.4852 24.1113C32.893 24.7823 33.3063 25.4485 33.7422 26.1016C33.9843 26.4681 33.9843 26.4681 33.9843 26.6406C34.0502 26.6615 34.1161 26.6824 34.184 26.7039C34.4649 26.801 34.7355 26.9141 35.0066 27.0349C35.0582 27.0579 35.1098 27.0808 35.163 27.1045C35.2717 27.1529 35.3802 27.2015 35.4888 27.2502C35.6529 27.3236 35.8174 27.396 35.9819 27.4683C36.5311 27.7127 37.044 27.9598 37.4999 28.3594C37.5737 28.4222 37.5737 28.4222 37.649 28.4863C38.1518 28.926 38.494 29.5751 38.5936 30.2344C38.6074 30.4867 38.6102 30.7389 38.6123 30.9915C38.6129 31.0651 38.6135 31.1386 38.6142 31.2143C38.6152 31.3699 38.6161 31.5255 38.6167 31.681C38.6176 31.8387 38.6192 31.9963 38.6215 32.154C38.6406 33.4555 38.5551 34.4529 37.6561 35.4688C37.2502 35.8609 36.7815 36.0737 36.2499 36.25C36.2033 36.2661 36.1566 36.2823 36.1086 36.2989C35.9374 36.3282 35.9374 36.3282 35.6527 36.3144C35.3067 36.2985 35.0238 36.3121 34.6874 36.4063C34.4848 36.6566 34.3886 36.8834 34.2849 37.1872C34.1738 37.4832 33.9933 37.6791 33.7799 37.9102C33.716 37.9799 33.652 38.0496 33.5861 38.1214C33.537 38.1741 33.488 38.2269 33.4374 38.2813C33.5041 38.2817 33.5707 38.2822 33.6394 38.2827C34.2682 38.2872 34.8969 38.2928 35.5257 38.2997C35.8489 38.3032 36.1722 38.3063 36.4954 38.3083C36.8075 38.3104 37.1195 38.3135 37.4315 38.3175C37.5505 38.3188 37.6694 38.3197 37.7884 38.3202C37.9552 38.3209 38.122 38.3231 38.2888 38.3256C38.3837 38.3265 38.4786 38.3274 38.5764 38.3283C38.8502 38.3621 38.9979 38.4317 39.2186 38.5938C39.4015 38.8289 39.4071 39.0842 39.4005 39.3775C39.36 39.6206 39.2354 39.754 39.0624 39.9219C38.82 40.0431 38.5636 40.011 38.2975 40.0105C38.2336 40.0107 38.1697 40.0109 38.1038 40.0111C37.8874 40.0116 37.6709 40.0116 37.4545 40.0115C37.2986 40.0118 37.1428 40.0121 36.987 40.0124C36.557 40.0132 36.127 40.0135 35.697 40.0137C35.2339 40.014 34.7708 40.0147 34.3078 40.0154C33.2416 40.0169 32.1753 40.0177 31.1091 40.0183C30.5825 40.0187 30.0558 40.0191 29.5292 40.0195C27.7272 40.0209 25.9252 40.0221 24.1231 40.0226C24.01 40.0227 23.8968 40.0227 23.7837 40.0228C23.6995 40.0228 23.6995 40.0228 23.6136 40.0228C23.3293 40.0229 23.0449 40.023 22.7606 40.0231C22.7042 40.0231 22.6477 40.0231 22.5896 40.0231C20.7594 40.0238 18.9292 40.0256 17.099 40.0281C15.165 40.0308 13.2309 40.0324 11.2969 40.0326C11.0847 40.0326 10.8725 40.0327 10.6603 40.0327C10.608 40.0327 10.5558 40.0327 10.5019 40.0327C9.71226 40.0329 8.92259 40.034 8.13291 40.0355C7.235 40.0371 6.33708 40.0378 5.43916 40.037C4.98073 40.0367 4.52232 40.0368 4.06389 40.0383C3.64459 40.0397 3.2253 40.0396 2.806 40.0384C2.65395 40.0382 2.5019 40.0386 2.34986 40.0395C2.14382 40.0407 1.93787 40.0399 1.73184 40.0387C1.67224 40.0395 1.61265 40.0403 1.55125 40.0411C1.1686 40.0361 0.971157 39.9611 0.703051 39.6875C0.588106 39.4576 0.613908 39.2256 0.61444 38.9736C0.614256 38.9152 0.614072 38.8568 0.613883 38.7966C0.613359 38.5989 0.613396 38.4012 0.613428 38.2035C0.613171 38.0611 0.61288 37.9187 0.612558 37.7764C0.611773 37.3835 0.611484 36.9906 0.611277 36.5977C0.610973 36.1746 0.610225 35.7515 0.609542 35.3283C0.607996 34.3054 0.607211 33.2824 0.606517 32.2594C0.606174 31.7778 0.605755 31.2962 0.605345 30.8145C0.604016 29.2134 0.602883 27.6122 0.602318 26.0111C0.602169 25.5953 0.602019 25.1795 0.601866 24.7638C0.601847 24.7121 0.601829 24.6604 0.60181 24.6072C0.601174 22.8821 0.599204 21.157 0.596586 19.4318C0.594002 17.7145 0.592596 15.9971 0.592346 14.2797C0.592177 13.3155 0.591495 12.3512 0.589498 11.3869C0.5878 10.5653 0.587174 9.74376 0.587932 8.9222C0.588287 8.50323 0.588142 8.08428 0.586623 7.66531C0.585242 7.28113 0.585326 6.89699 0.586536 6.51282C0.586722 6.37443 0.586387 6.23604 0.585456 6.09765C0.578624 5.01395 0.709151 4.01109 1.21575 3.03223C1.24193 2.98082 1.26811 2.92942 1.29509 2.87646C1.58757 2.33208 1.97983 1.91063 2.4218 1.48438C2.47125 1.43251 2.52069 1.38065 2.57164 1.32721C3.4353 0.478805 4.81653 -0.00723025 6.00653 -0.0114975ZM20.9374 6.79688C20.884 6.81863 20.8307 6.84039 20.7757 6.8628C19.7291 7.3389 19.096 8.17212 18.6648 9.21723C18.5685 9.5129 18.5685 9.5129 18.5155 10.0781C21.0163 10.0781 23.5171 10.0781 26.0937 10.0781C25.9877 9.01891 25.6939 8.23663 24.9032 7.49146C23.7872 6.5894 22.2992 6.23471 20.9374 6.79688ZM16.188 23.2785C15.9939 23.509 15.8085 23.7455 15.6249 23.9844C15.5808 24.0418 15.5366 24.0992 15.4911 24.1583C15.1736 24.5721 14.8581 24.9875 14.5431 25.4032C14.2646 25.7705 13.9853 26.1372 13.706 26.5039C13.6558 26.5699 13.6056 26.6358 13.554 26.7038C13.4576 26.8304 13.3603 26.9564 13.2622 27.0818C13.1225 27.2624 13.1225 27.2624 13.0111 27.4556C12.6478 28.0253 12.1686 28.1505 11.5427 28.3058C11.2964 28.3673 11.0514 28.4327 10.8062 28.4985C10.409 28.6048 10.0116 28.7104 9.61402 28.8152C9.56286 28.8287 9.51169 28.8422 9.45897 28.8561C9.19693 28.9251 8.93477 28.9937 8.67239 29.0614C8.46463 29.1151 8.25709 29.1695 8.04972 29.2247C7.85644 29.2761 7.66289 29.3265 7.46904 29.3757C6.87394 29.5358 6.29169 29.7148 5.90467 30.224C5.69569 30.596 5.6578 30.9426 5.66429 31.3629C5.66418 31.4234 5.66406 31.4838 5.66394 31.5461C5.66407 31.6728 5.66497 31.7995 5.6666 31.9262C5.66887 32.1192 5.6682 32.3121 5.66719 32.5052C5.66768 32.629 5.66833 32.7528 5.66917 32.8766C5.66894 32.9338 5.66871 32.9909 5.66848 33.0498C5.67726 33.5307 5.80692 33.8367 6.12297 34.1944C6.5474 34.5683 6.86818 34.6525 7.42179 34.6875C7.44455 34.612 7.46731 34.5365 7.49076 34.4586C7.85076 33.301 8.3621 32.3378 9.45304 31.7188C10.6795 31.1887 11.8061 31.0881 13.0611 31.5824C14.1073 32.0715 14.7792 32.8146 15.1855 33.8965C15.277 34.1631 15.3347 34.4082 15.3905 34.6875C19.1546 34.6875 22.9187 34.6875 26.7968 34.6875C26.9257 34.275 27.0546 33.8625 27.1874 33.4375C27.3403 33.1764 27.4716 32.9646 27.6561 32.7344C27.7432 32.6135 27.7432 32.6135 27.8319 32.4903C28.6057 31.6813 29.6744 31.2576 30.7909 31.2305C31.9283 31.2479 32.9378 31.7206 33.7499 32.5C34.3021 33.1451 34.5833 33.8678 34.7655 34.6875C35.4042 34.7229 35.9114 34.6679 36.4306 34.2725C37.0582 33.6448 36.9673 32.8298 36.9677 32.002C36.9686 31.9013 36.9696 31.8006 36.9706 31.6968C36.9759 30.7141 36.9758 30.7141 36.5624 29.8438C36.2008 29.4845 35.8276 29.2606 35.3606 29.064C35.2999 29.0375 35.2392 29.011 35.1766 28.9837C34.9846 28.9 34.7921 28.8176 34.5995 28.7354C34.4065 28.652 34.2136 28.5684 34.0207 28.4846C33.9013 28.4327 33.7818 28.3812 33.6621 28.3301C33.1715 28.1187 32.8216 27.9587 32.5393 27.4838C32.4649 27.3607 32.4649 27.3607 32.3891 27.235C32.3371 27.1468 32.285 27.0586 32.2313 26.9678C32.1484 26.8298 32.0651 26.692 31.9818 26.5543C31.9252 26.4606 31.8687 26.3668 31.8123 26.273C30.6834 24.0835 30.6834 24.0835 28.828 22.6563C28.3088 22.5588 27.7928 22.566 27.2658 22.5656C27.1643 22.5652 27.0629 22.5648 26.9584 22.5644C26.6812 22.5634 26.404 22.5629 26.1269 22.5625C25.9533 22.5623 25.7796 22.562 25.606 22.5616C25.0616 22.5605 24.5171 22.5598 23.9727 22.5595C23.3466 22.5591 22.7205 22.5578 22.0944 22.5555C21.6088 22.5538 21.1233 22.553 20.6377 22.5529C20.3484 22.5528 20.0592 22.5524 19.7699 22.551C19.4467 22.5494 19.1235 22.5498 18.8002 22.5503C18.7058 22.5496 18.6114 22.5489 18.5142 22.5481C17.6733 22.5522 16.7831 22.6263 16.188 23.2785ZM9.5507 33.7256C9.16702 34.2211 8.994 34.853 9.06242 35.4688C9.19031 36.1272 9.4686 36.5861 9.94621 37.0508C10.5625 37.4521 11.1834 37.6605 11.9189 37.5293C12.6637 37.3356 13.2076 36.8243 13.5937 36.1719C13.8358 35.5495 13.8517 34.8851 13.6132 34.2578C13.3171 33.6227 12.8621 33.2426 12.224 32.959C11.1872 32.5915 10.2952 32.9981 9.5507 33.7256ZM29.2968 33.3594C28.743 33.8973 28.4266 34.4128 28.3983 35.1953C28.4263 35.9702 28.7375 36.5053 29.2968 37.0313C29.7541 37.4205 30.2628 37.562 30.8593 37.5782C31.6415 37.4778 32.1827 37.1871 32.6864 36.583C33.0796 36.0316 33.229 35.4357 33.1249 34.7657C32.9107 34.0093 32.564 33.5545 31.9384 33.1006C31.0958 32.6681 30.0238 32.7338 29.2968 33.3594ZM15.3124 36.3282C15.1319 36.6891 14.9515 37.05 14.7655 37.4219C14.5412 37.714 14.5412 37.714 14.3407 37.9151C14.1112 38.1081 14.1112 38.1081 13.9843 38.3594C18.7023 38.3594 23.4202 38.3594 28.2811 38.3594C28.1522 38.2305 28.0233 38.1016 27.8905 37.9688C27.4388 37.4605 27.1869 36.9522 26.8749 36.3282C23.0593 36.3282 19.2437 36.3282 15.3124 36.3282Z" stroke="#575757" mask="url(#path-1-outside-1_51_484)"/>
<path d="M26.8687 16.2063L26.831 16.178L26.7857 16.1654C26.5741 16.1065 26.3471 16.0591 26.12 16.0779C25.883 16.0975 25.6582 16.1879 25.4536 16.3805L25.4236 16.4086L25.4043 16.4449C25.1814 16.8631 25.1119 17.201 25.1123 17.6624H25.1123L25.1124 17.6671L25.1161 17.8584C25.1148 18.2101 25.1215 18.552 25.2181 18.9253L25.223 18.9442L25.2307 18.9621C25.2952 19.1107 25.3639 19.2323 25.4643 19.3383C25.5632 19.4429 25.68 19.5183 25.8164 19.5938L25.8568 19.6161L25.9026 19.6226C26.0916 19.6492 26.2751 19.667 26.459 19.6432C26.6494 19.6185 26.8272 19.551 27.0136 19.4268L27.0529 19.4006L27.0799 19.3619C27.3875 18.9213 27.3859 18.514 27.3837 18.0802L27.3837 18.0802L27.3836 18.0765L27.3788 17.8338C27.3786 17.795 27.3785 17.7559 27.3784 17.7165C27.3775 17.4624 27.3767 17.199 27.3587 16.9361L27.3565 16.9043L27.3465 16.8741C27.2983 16.7297 27.2499 16.608 27.1709 16.4968C27.0914 16.3848 26.9922 16.2989 26.8687 16.2063Z" fill="#575757" stroke="#575757" stroke-width="0.5"/>
<path d="M22.6884 12.1974L22.6503 12.1787L22.6082 12.1736C22.4648 12.1563 22.3245 12.142 22.1824 12.1553C22.0336 12.1693 21.8933 12.2121 21.7389 12.2935L21.7035 12.3122L21.6758 12.341C21.4699 12.5542 21.346 12.7593 21.2793 12.9929C21.215 13.2176 21.2088 13.4535 21.2101 13.7097L21.2101 13.7097L21.2101 13.7134L21.215 13.9581C21.2152 13.9971 21.2153 14.0363 21.2154 14.0757C21.2163 14.3314 21.2171 14.5963 21.2351 14.8607L21.2372 14.8925L21.2473 14.9228C21.3735 15.3012 21.5948 15.5104 21.909 15.6867L21.9426 15.7055L21.9802 15.7134C22.3143 15.7833 22.6207 15.7641 22.9464 15.6056L22.9903 15.5843L23.0229 15.5481C23.2105 15.3396 23.3288 15.1294 23.3977 14.8992C23.4653 14.6731 23.4817 14.4393 23.4815 14.1917H23.4815L23.4814 14.1873L23.4814 14.1869L23.4814 14.1864L23.4814 14.186L23.4814 14.1856L23.4814 14.1852L23.4814 14.1848L23.4814 14.1844L23.4814 14.184L23.4814 14.1836L23.4814 14.1831L23.4814 14.1827L23.4814 14.1823L23.4813 14.1819L23.4813 14.1815L23.4813 14.1811L23.4813 14.1807L23.4813 14.1803L23.4813 14.1798L23.4813 14.1794L23.4813 14.179L23.4813 14.1786L23.4813 14.1782L23.4813 14.1778L23.4813 14.1774L23.4813 14.177L23.4813 14.1765L23.4812 14.1761L23.4812 14.1757L23.4812 14.1753L23.4812 14.1749L23.4812 14.1745L23.4812 14.1741L23.4812 14.1737L23.4812 14.1732L23.4812 14.1728L23.4812 14.1724L23.4812 14.172L23.4812 14.1716L23.4812 14.1712L23.4811 14.1708L23.4811 14.1704L23.4811 14.1699L23.4811 14.1695L23.4811 14.1691L23.4811 14.1687L23.4811 14.1683L23.4811 14.1679L23.4811 14.1675L23.4811 14.1671L23.4811 14.1667L23.4811 14.1662L23.4811 14.1658L23.481 14.1654L23.481 14.165L23.481 14.1646L23.481 14.1642L23.481 14.1638L23.481 14.1634L23.481 14.163L23.481 14.1625L23.481 14.1621L23.481 14.1617L23.481 14.1613L23.481 14.1609L23.481 14.1605L23.4809 14.1601L23.4809 14.1597L23.4809 14.1593L23.4809 14.1589L23.4809 14.1584L23.4809 14.158L23.4809 14.1576L23.4809 14.1572L23.4809 14.1568L23.4809 14.1564L23.4809 14.156L23.4809 14.1556L23.4809 14.1552L23.4808 14.1548L23.4808 14.1543L23.4808 14.1539L23.4808 14.1535L23.4808 14.1531L23.4808 14.1527L23.4808 14.1523L23.4808 14.1519L23.4808 14.1515L23.4808 14.1511L23.4808 14.1507L23.4808 14.1502L23.4808 14.1498L23.4808 14.1494L23.4807 14.149L23.4807 14.1486L23.4807 14.1482L23.4807 14.1478L23.4807 14.1474L23.4807 14.147L23.4807 14.1466L23.4807 14.1462L23.4807 14.1457L23.4807 14.1453L23.4807 14.1449L23.4807 14.1445L23.4807 14.1441L23.4806 14.1437L23.4806 14.1433L23.4806 14.1429L23.4806 14.1425L23.4806 14.1421L23.4806 14.1417L23.4806 14.1412L23.4806 14.1408L23.4806 14.1404L23.4806 14.14L23.4806 14.1396L23.4806 14.1392L23.4806 14.1388L23.4805 14.1384L23.4805 14.138L23.4805 14.1376L23.4805 14.1372L23.4805 14.1368L23.4805 14.1363L23.4805 14.1359L23.4805 14.1355L23.4805 14.1351L23.4805 14.1347L23.4805 14.1343L23.4805 14.1339L23.4805 14.1335L23.4805 14.1331L23.4804 14.1327L23.4804 14.1323L23.4804 14.1319L23.4804 14.1314L23.4804 14.131L23.4804 14.1306L23.4804 14.1302L23.4804 14.1298L23.4804 14.1294L23.4804 14.129L23.4804 14.1286L23.4804 14.1282L23.4804 14.1278L23.4803 14.1274L23.4803 14.127L23.4803 14.1266L23.4803 14.1261L23.4803 14.1257L23.4803 14.1253L23.4803 14.1249L23.4803 14.1245L23.4803 14.1241L23.4803 14.1237L23.4803 14.1233L23.4803 14.1229L23.4803 14.1225L23.4802 14.1221L23.4802 14.1217L23.4802 14.1213L23.4802 14.1209L23.4802 14.1204L23.4802 14.12L23.4802 14.1196L23.4802 14.1192L23.4802 14.1188L23.4802 14.1184L23.4802 14.118L23.4802 14.1176L23.4802 14.1172L23.4802 14.1168L23.4801 14.1164L23.4801 14.116L23.4801 14.1156L23.4801 14.1152L23.4801 14.1148L23.4801 14.1143L23.4801 14.1139L23.4801 14.1135L23.4801 14.1131L23.4801 14.1127L23.4801 14.1123L23.4801 14.1119L23.4801 14.1115L23.48 14.1111L23.48 14.1107L23.48 14.1103L23.48 14.1099L23.48 14.1095L23.48 14.1091L23.48 14.1087L23.48 14.1083L23.48 14.1078L23.48 14.1074L23.48 14.107L23.48 14.1066L23.48 14.1062L23.4799 14.1058L23.4799 14.1054L23.4799 14.105L23.4799 14.1046L23.4799 14.1042L23.4799 14.1038L23.4799 14.1034L23.4799 14.103L23.4799 14.1026L23.4799 14.1022L23.4799 14.1018L23.4799 14.1014L23.4799 14.101L23.4799 14.1005L23.4798 14.1001L23.4798 14.0997L23.4798 14.0993L23.4798 14.0989L23.4798 14.0985L23.4798 14.0981L23.4798 14.0977L23.4798 14.0973L23.4798 14.0969L23.4798 14.0965L23.4798 14.0961L23.4798 14.0957L23.4798 14.0953L23.4797 14.0949L23.4797 14.0945L23.4797 14.0941L23.4797 14.0937L23.4797 14.0933L23.4797 14.0928L23.4797 14.0924L23.4797 14.092L23.4797 14.0916L23.4797 14.0912L23.4797 14.0908L23.4797 14.0904L23.4797 14.09L23.4797 14.0896L23.4796 14.0892L23.4796 14.0888L23.4796 14.0884L23.4796 14.088L23.4796 14.0876L23.4796 14.0872L23.4796 14.0868L23.4796 14.0864L23.4796 14.086L23.4796 14.0856L23.4796 14.0852L23.4796 14.0848L23.4796 14.0844L23.4795 14.0839L23.4795 14.0835L23.4795 14.0831L23.4795 14.0827L23.4795 14.0823L23.4795 14.0819L23.4795 14.0815L23.4795 14.0811L23.4795 14.0807L23.4795 14.0803L23.4795 14.0799L23.4795 14.0795L23.4795 14.0791L23.4795 14.0787L23.4794 14.0783L23.4794 14.0779L23.4794 14.0775L23.4794 14.0771L23.4794 14.0767L23.4794 14.0763L23.4794 14.0759L23.4794 14.0755L23.4794 14.0751L23.4794 14.0747L23.4794 14.0742L23.4794 14.0738L23.4794 14.0734L23.4793 14.073L23.4793 14.0726L23.4793 14.0722L23.4793 14.0718L23.4793 14.0714L23.4793 14.071L23.4793 14.0706L23.4793 14.0702L23.4793 14.0698L23.4793 14.0694L23.4793 14.069L23.4793 14.0686L23.4793 14.0682L23.4793 14.0678L23.4792 14.0674L23.4792 14.067L23.4792 14.0666L23.4792 14.0662L23.4792 14.0658L23.4792 14.0654L23.4792 14.065L23.4792 14.0646L23.4792 14.0642L23.4792 14.0638L23.4792 14.0634L23.4792 14.0629L23.4792 14.0625L23.4791 14.0621L23.4791 14.0617L23.4791 14.0613L23.4791 14.0609L23.4791 14.0605L23.4791 14.0601L23.4791 14.0597L23.4791 14.0593L23.4791 14.0589L23.4791 14.0585L23.4791 14.0581L23.4791 14.0577L23.4791 14.0573L23.4791 14.0569L23.479 14.0565L23.479 14.0561L23.479 14.0557L23.479 14.0553L23.479 14.0549L23.479 14.0545L23.479 14.0541L23.479 14.0537L23.479 14.0533L23.479 14.0529L23.479 14.0525L23.479 14.0521L23.479 14.0517L23.4789 14.0513L23.4789 14.0509L23.4789 14.0505L23.4789 14.0501L23.4789 14.0497L23.4789 14.0492L23.4789 14.0488L23.4789 14.0484L23.4789 14.048L23.4789 14.0476L23.4789 14.0472L23.4789 14.0468L23.4789 14.0464L23.4789 14.046L23.4788 14.0456L23.4788 14.0452L23.4788 14.0448L23.4788 14.0444L23.4788 14.044L23.4788 14.0436L23.4788 14.0432L23.4788 14.0428L23.4788 14.0424L23.4788 14.042L23.4788 14.0416L23.4788 14.0412L23.4788 14.0408L23.4787 14.0404L23.4787 14.04L23.4787 14.0396L23.4787 14.0392L23.4787 14.0388L23.4787 14.0384L23.4787 14.038L23.4787 14.0376L23.4787 14.0372L23.4787 14.0368L23.4787 14.0364L23.4787 14.036L23.4787 14.0356L23.4787 14.0352L23.4786 14.0348L23.4786 14.0344L23.4786 14.034L23.4786 14.0336L23.4786 14.0332L23.4786 14.0328L23.4786 14.0324L23.4786 14.0319L23.4786 14.0315L23.4786 14.0311L23.4786 14.0307L23.4786 14.0303L23.4786 14.0299L23.4785 14.0295L23.4785 14.0291L23.4785 14.0287L23.4785 14.0283L23.4785 14.0279L23.4785 14.0275L23.4785 14.0271L23.4785 14.0267L23.4785 14.0263L23.4785 14.0259L23.4785 14.0255L23.4785 14.0251L23.4785 14.0247L23.4785 14.0243L23.4784 14.0239L23.4784 14.0235L23.4784 14.0231L23.4784 14.0227L23.4784 14.0223L23.4784 14.0219L23.4784 14.0215L23.4784 14.0211L23.4784 14.0207L23.4784 14.0203L23.4784 14.0199L23.4784 14.0195L23.4784 14.0191L23.4783 14.0187L23.4783 14.0183L23.4783 14.0179L23.4783 14.0175L23.4783 14.0171L23.4783 14.0167L23.4783 14.0163L23.4783 14.0159L23.4783 14.0155L23.4783 14.0151L23.4783 14.0147L23.4783 14.0143L23.4783 14.0139L23.4783 14.0135L23.4782 14.0131L23.4782 14.0127L23.4782 14.0123L23.4782 14.0119L23.4782 14.0115L23.4782 14.0111L23.4782 14.0107L23.4782 14.0103L23.4782 14.0099L23.4782 14.0095L23.4782 14.009L23.4782 14.0086L23.4782 14.0082L23.4781 14.0078L23.4781 14.0074L23.4781 14.007L23.4781 14.0066L23.4781 14.0062L23.4781 14.0058L23.4781 14.0054L23.4781 14.005L23.4781 14.0046L23.4781 14.0042L23.4781 14.0038L23.4781 14.0034L23.4781 14.003L23.4781 14.0026L23.478 14.0022L23.478 14.0018L23.478 14.0014L23.478 14.001L23.478 14.0006L23.478 14.0002L23.478 13.9998L23.478 13.9994L23.478 13.999L23.478 13.9986L23.478 13.9982L23.478 13.9978L23.478 13.9974L23.4779 13.997L23.4779 13.9966L23.4779 13.9962L23.4779 13.9958L23.4779 13.9954L23.4779 13.995L23.4779 13.9946L23.4779 13.9942L23.4779 13.9938L23.4779 13.9934L23.4779 13.993L23.4779 13.9926L23.4779 13.9922L23.4779 13.9918L23.4778 13.9914L23.4778 13.991L23.4778 13.9906L23.4778 13.9902L23.4778 13.9898L23.4778 13.9894L23.4778 13.989L23.4778 13.9886L23.4778 13.9882L23.4778 13.9878L23.4778 13.9874L23.4778 13.987L23.4778 13.9866L23.4778 13.9862L23.4777 13.9858L23.4777 13.9854L23.4777 13.985L23.4777 13.9846L23.4777 13.9842L23.4777 13.9838L23.4777 13.9834L23.4777 13.983L23.4777 13.9826L23.4777 13.9825C23.479 13.6187 23.4742 13.2586 23.3796 12.872L23.374 12.8493L23.3643 12.8279C23.2871 12.6584 23.1962 12.533 23.0742 12.4301C22.9591 12.3329 22.8256 12.2647 22.6884 12.1974Z" fill="#575757" stroke="#575757" stroke-width="0.5"/>
<path d="M22.69 16.1045L22.6537 16.0864L22.6135 16.0806C22.4124 16.0519 22.232 16.0515 22.0539 16.1007C21.8764 16.1497 21.7222 16.2422 21.5646 16.3657L21.5454 16.3807L21.5296 16.3991C21.5241 16.4055 21.5186 16.4118 21.5131 16.4181C21.3959 16.5537 21.2936 16.6719 21.2467 16.8625C21.2068 17.0246 21.208 17.2399 21.2098 17.5693C21.2098 17.5846 21.2099 17.6002 21.21 17.616L21.21 17.616L21.2101 17.6197L21.2149 17.8644C21.2151 17.9034 21.2152 17.9426 21.2153 17.982C21.2162 18.2377 21.217 18.5025 21.235 18.7669L21.2372 18.7988L21.2473 18.829C21.3734 19.2075 21.5947 19.4166 21.9089 19.593L21.9425 19.6118L21.9801 19.6197C22.3142 19.6896 22.6206 19.6704 22.9463 19.5119L22.9902 19.4906L23.0228 19.4543C23.2104 19.2459 23.3287 19.0357 23.3976 18.8054C23.4652 18.5794 23.4816 18.3456 23.4814 18.0979H23.4814L23.4814 18.0935L23.4814 18.0931L23.4813 18.0927L23.4813 18.0923L23.4813 18.0919L23.4813 18.0915L23.4813 18.0911L23.4813 18.0906L23.4813 18.0902L23.4813 18.0898L23.4813 18.0894L23.4813 18.089L23.4813 18.0886L23.4813 18.0882L23.4813 18.0878L23.4812 18.0873L23.4812 18.0869L23.4812 18.0865L23.4812 18.0861L23.4812 18.0857L23.4812 18.0853L23.4812 18.0849L23.4812 18.0845L23.4812 18.084L23.4812 18.0836L23.4812 18.0832L23.4812 18.0828L23.4812 18.0824L23.4811 18.082L23.4811 18.0816L23.4811 18.0812L23.4811 18.0807L23.4811 18.0803L23.4811 18.0799L23.4811 18.0795L23.4811 18.0791L23.4811 18.0787L23.4811 18.0783L23.4811 18.0779L23.4811 18.0775L23.4811 18.077L23.481 18.0766L23.481 18.0762L23.481 18.0758L23.481 18.0754L23.481 18.075L23.481 18.0746L23.481 18.0742L23.481 18.0737L23.481 18.0733L23.481 18.0729L23.481 18.0725L23.481 18.0721L23.481 18.0717L23.4809 18.0713L23.4809 18.0709L23.4809 18.0705L23.4809 18.0701L23.4809 18.0696L23.4809 18.0692L23.4809 18.0688L23.4809 18.0684L23.4809 18.068L23.4809 18.0676L23.4809 18.0672L23.4809 18.0668L23.4809 18.0664L23.4809 18.0659L23.4808 18.0655L23.4808 18.0651L23.4808 18.0647L23.4808 18.0643L23.4808 18.0639L23.4808 18.0635L23.4808 18.0631L23.4808 18.0627L23.4808 18.0623L23.4808 18.0618L23.4808 18.0614L23.4808 18.061L23.4808 18.0606L23.4807 18.0602L23.4807 18.0598L23.4807 18.0594L23.4807 18.059L23.4807 18.0586L23.4807 18.0582L23.4807 18.0577L23.4807 18.0573L23.4807 18.0569L23.4807 18.0565L23.4807 18.0561L23.4807 18.0557L23.4807 18.0553L23.4806 18.0549L23.4806 18.0545L23.4806 18.0541L23.4806 18.0536L23.4806 18.0532L23.4806 18.0528L23.4806 18.0524L23.4806 18.052L23.4806 18.0516L23.4806 18.0512L23.4806 18.0508L23.4806 18.0504L23.4806 18.05L23.4805 18.0496L23.4805 18.0491L23.4805 18.0487L23.4805 18.0483L23.4805 18.0479L23.4805 18.0475L23.4805 18.0471L23.4805 18.0467L23.4805 18.0463L23.4805 18.0459L23.4805 18.0455L23.4805 18.0451L23.4805 18.0447L23.4805 18.0442L23.4804 18.0438L23.4804 18.0434L23.4804 18.043L23.4804 18.0426L23.4804 18.0422L23.4804 18.0418L23.4804 18.0414L23.4804 18.041L23.4804 18.0406L23.4804 18.0402L23.4804 18.0398L23.4804 18.0393L23.4804 18.0389L23.4803 18.0385L23.4803 18.0381L23.4803 18.0377L23.4803 18.0373L23.4803 18.0369L23.4803 18.0365L23.4803 18.0361L23.4803 18.0357L23.4803 18.0353L23.4803 18.0349L23.4803 18.0345L23.4803 18.034L23.4803 18.0336L23.4802 18.0332L23.4802 18.0328L23.4802 18.0324L23.4802 18.032L23.4802 18.0316L23.4802 18.0312L23.4802 18.0308L23.4802 18.0304L23.4802 18.03L23.4802 18.0296L23.4802 18.0292L23.4802 18.0288L23.4802 18.0283L23.4802 18.0279L23.4801 18.0275L23.4801 18.0271L23.4801 18.0267L23.4801 18.0263L23.4801 18.0259L23.4801 18.0255L23.4801 18.0251L23.4801 18.0247L23.4801 18.0243L23.4801 18.0239L23.4801 18.0235L23.4801 18.0231L23.4801 18.0227L23.48 18.0222L23.48 18.0218L23.48 18.0214L23.48 18.021L23.48 18.0206L23.48 18.0202L23.48 18.0198L23.48 18.0194L23.48 18.019L23.48 18.0186L23.48 18.0182L23.48 18.0178L23.48 18.0174L23.48 18.017L23.4799 18.0166L23.4799 18.0161L23.4799 18.0157L23.4799 18.0153L23.4799 18.0149L23.4799 18.0145L23.4799 18.0141L23.4799 18.0137L23.4799 18.0133L23.4799 18.0129L23.4799 18.0125L23.4799 18.0121L23.4799 18.0117L23.4798 18.0113L23.4798 18.0109L23.4798 18.0105L23.4798 18.0101L23.4798 18.0097L23.4798 18.0092L23.4798 18.0088L23.4798 18.0084L23.4798 18.008L23.4798 18.0076L23.4798 18.0072L23.4798 18.0068L23.4798 18.0064L23.4797 18.006L23.4797 18.0056L23.4797 18.0052L23.4797 18.0048L23.4797 18.0044L23.4797 18.004L23.4797 18.0036L23.4797 18.0032L23.4797 18.0028L23.4797 18.0024L23.4797 18.002L23.4797 18.0015L23.4797 18.0011L23.4797 18.0007L23.4796 18.0003L23.4796 17.9999L23.4796 17.9995L23.4796 17.9991L23.4796 17.9987L23.4796 17.9983L23.4796 17.9979L23.4796 17.9975L23.4796 17.9971L23.4796 17.9967L23.4796 17.9963L23.4796 17.9959L23.4796 17.9955L23.4795 17.9951L23.4795 17.9947L23.4795 17.9943L23.4795 17.9939L23.4795 17.9935L23.4795 17.993L23.4795 17.9926L23.4795 17.9922L23.4795 17.9918L23.4795 17.9914L23.4795 17.991L23.4795 17.9906L23.4795 17.9902L23.4795 17.9898L23.4794 17.9894L23.4794 17.989L23.4794 17.9886L23.4794 17.9882L23.4794 17.9878L23.4794 17.9874L23.4794 17.987L23.4794 17.9866L23.4794 17.9862L23.4794 17.9858L23.4794 17.9854L23.4794 17.985L23.4794 17.9846L23.4793 17.9842L23.4793 17.9837L23.4793 17.9833L23.4793 17.9829L23.4793 17.9825L23.4793 17.9821L23.4793 17.9817L23.4793 17.9813L23.4793 17.9809L23.4793 17.9805L23.4793 17.9801L23.4793 17.9797L23.4793 17.9793L23.4793 17.9789L23.4792 17.9785L23.4792 17.9781L23.4792 17.9777L23.4792 17.9773L23.4792 17.9769L23.4792 17.9765L23.4792 17.9761L23.4792 17.9757L23.4792 17.9753L23.4792 17.9749L23.4792 17.9745L23.4792 17.9741L23.4792 17.9737L23.4791 17.9733L23.4791 17.9728L23.4791 17.9724L23.4791 17.972L23.4791 17.9716L23.4791 17.9712L23.4791 17.9708L23.4791 17.9704L23.4791 17.97L23.4791 17.9696L23.4791 17.9692L23.4791 17.9688L23.4791 17.9684L23.4791 17.968L23.479 17.9676L23.479 17.9672L23.479 17.9668L23.479 17.9664L23.479 17.966L23.479 17.9656L23.479 17.9652L23.479 17.9648L23.479 17.9644L23.479 17.964L23.479 17.9636L23.479 17.9632L23.479 17.9628L23.4789 17.9624L23.4789 17.962L23.4789 17.9616L23.4789 17.9612L23.4789 17.9608L23.4789 17.9604L23.4789 17.9599L23.4789 17.9595L23.4789 17.9591L23.4789 17.9587L23.4789 17.9583L23.4789 17.9579L23.4789 17.9575L23.4789 17.9571L23.4788 17.9567L23.4788 17.9563L23.4788 17.9559L23.4788 17.9555L23.4788 17.9551L23.4788 17.9547L23.4788 17.9543L23.4788 17.9539L23.4788 17.9535L23.4788 17.9531L23.4788 17.9527L23.4788 17.9523L23.4788 17.9519L23.4787 17.9515L23.4787 17.9511L23.4787 17.9507L23.4787 17.9503L23.4787 17.9499L23.4787 17.9495L23.4787 17.9491L23.4787 17.9487L23.4787 17.9483L23.4787 17.9479L23.4787 17.9475L23.4787 17.9471L23.4787 17.9467L23.4787 17.9463L23.4786 17.9459L23.4786 17.9455L23.4786 17.9451L23.4786 17.9447L23.4786 17.9443L23.4786 17.9438L23.4786 17.9434L23.4786 17.943L23.4786 17.9426L23.4786 17.9422L23.4786 17.9418L23.4786 17.9414L23.4786 17.941L23.4785 17.9406L23.4785 17.9402L23.4785 17.9398L23.4785 17.9394L23.4785 17.939L23.4785 17.9386L23.4785 17.9382L23.4785 17.9378L23.4785 17.9374L23.4785 17.937L23.4785 17.9366L23.4785 17.9362L23.4785 17.9358L23.4785 17.9354L23.4784 17.935L23.4784 17.9346L23.4784 17.9342L23.4784 17.9338L23.4784 17.9334L23.4784 17.933L23.4784 17.9326L23.4784 17.9322L23.4784 17.9318L23.4784 17.9314L23.4784 17.931L23.4784 17.9306L23.4784 17.9302L23.4783 17.9298L23.4783 17.9294L23.4783 17.929L23.4783 17.9286L23.4783 17.9282L23.4783 17.9278L23.4783 17.9274L23.4783 17.927L23.4783 17.9266L23.4783 17.9262L23.4783 17.9258L23.4783 17.9254L23.4783 17.925L23.4783 17.9246L23.4782 17.9242L23.4782 17.9238L23.4782 17.9234L23.4782 17.9229L23.4782 17.9225L23.4782 17.9221L23.4782 17.9217L23.4782 17.9213L23.4782 17.9209L23.4782 17.9205L23.4782 17.9201L23.4782 17.9197L23.4782 17.9193L23.4781 17.9189L23.4781 17.9185L23.4781 17.9181L23.4781 17.9177L23.4781 17.9173L23.4781 17.9169L23.4781 17.9165L23.4781 17.9161L23.4781 17.9157L23.4781 17.9153L23.4781 17.9149L23.4781 17.9145L23.4781 17.9141L23.4781 17.9137L23.478 17.9133L23.478 17.9129L23.478 17.9125L23.478 17.9121L23.478 17.9117L23.478 17.9113L23.478 17.9109L23.478 17.9105L23.478 17.9101L23.478 17.9097L23.478 17.9093L23.478 17.9089L23.478 17.9085L23.4779 17.9081L23.4779 17.9077L23.4779 17.9073L23.4779 17.9069L23.4779 17.9065L23.4779 17.9061L23.4779 17.9057L23.4779 17.9053L23.4779 17.9049L23.4779 17.9045L23.4779 17.9041L23.4779 17.9037L23.4779 17.9033L23.4779 17.9029L23.4778 17.9025L23.4778 17.9021L23.4778 17.9017L23.4778 17.9013L23.4778 17.9009L23.4778 17.9005L23.4778 17.9001L23.4778 17.8997L23.4778 17.8993L23.4778 17.8989L23.4778 17.8985L23.4778 17.8981L23.4778 17.8977L23.4778 17.8973L23.4777 17.8969L23.4777 17.8965L23.4777 17.8961L23.4777 17.8957L23.4777 17.8953L23.4777 17.8948L23.4777 17.8944L23.4777 17.894L23.4777 17.8936L23.4777 17.8932L23.4777 17.8928L23.4777 17.8924L23.4777 17.892L23.4776 17.8916L23.4776 17.8912L23.4776 17.8908L23.4776 17.8904L23.4776 17.89L23.4776 17.8896L23.4776 17.8892L23.4776 17.8888L23.4776 17.8888C23.4789 17.525 23.474 17.1649 23.3798 16.7785L23.3742 16.7555L23.3644 16.7339C23.2869 16.5643 23.1946 16.4395 23.0728 16.3372C22.9578 16.2407 22.8249 16.172 22.69 16.1045Z" fill="#575757" stroke="#575757" stroke-width="0.5"/>
<path d="M26.6885 12.206L26.6459 12.1811L26.5972 12.1743C26.393 12.1456 26.1984 12.136 26.0064 12.1789C25.8096 12.2229 25.6351 12.3175 25.4618 12.4668L25.4266 12.4971L25.4046 12.5381C25.1803 12.9564 25.1119 13.2955 25.1123 13.7561H25.1123L25.1124 13.7608L25.1161 13.9522C25.1145 14.382 25.1199 14.8017 25.3175 15.256L25.3336 15.2929L25.3605 15.3229C25.4465 15.419 25.5367 15.5137 25.6479 15.5881C25.7647 15.6662 25.8935 15.7149 26.0516 15.74L26.0675 15.7426L26.0835 15.743C26.3697 15.7516 26.7221 15.7595 27.0328 15.5063L27.0615 15.483L27.0821 15.4523C27.3814 15.009 27.386 14.6145 27.3837 14.174L27.3837 14.174L27.3836 14.1703L27.3788 13.9275C27.3786 13.8887 27.3785 13.8496 27.3784 13.8103C27.3775 13.5561 27.3767 13.2927 27.3587 13.0298L27.3565 12.998L27.3465 12.9678C27.2198 12.5877 26.9925 12.3835 26.6885 12.206Z" fill="#575757" stroke="#575757" stroke-width="0.5"/>
<path d="M18.7735 12.1934L18.733 12.1754L18.6889 12.1724C18.4876 12.1588 18.3131 12.1556 18.1405 12.1929C17.9634 12.2311 17.8064 12.3076 17.6284 12.4249L17.606 12.4397L17.5872 12.4589C17.5828 12.4633 17.5785 12.4677 17.5742 12.4721C17.4654 12.5831 17.3618 12.6888 17.3174 12.8877C17.2824 13.0445 17.2838 13.2672 17.286 13.6162C17.2861 13.6322 17.2862 13.6483 17.2863 13.6648L17.2862 13.6648L17.2863 13.67L17.2941 13.959C17.2943 14.0084 17.2943 14.0585 17.2944 14.1089C17.2947 14.4053 17.2951 14.7175 17.3298 15.0278L17.3365 15.0881L17.3702 15.1387C17.4603 15.2739 17.543 15.3811 17.6498 15.4723C17.7563 15.5633 17.8745 15.6277 18.0194 15.6953L18.0616 15.715L18.1082 15.7182C18.3095 15.7318 18.4846 15.7354 18.6577 15.6977C18.8355 15.6591 18.9927 15.5813 19.1706 15.4617L19.1919 15.4474L19.2099 15.429C19.2145 15.4242 19.2192 15.4195 19.2238 15.4148C19.3312 15.3052 19.4346 15.1998 19.4792 15.0062C19.4994 14.9189 19.5067 14.8202 19.5098 14.7063C19.5129 14.5921 19.512 14.447 19.5108 14.2621L19.5108 14.2573L19.5109 14.2573L19.5107 14.2519L19.503 13.9754C19.5028 13.9327 19.5027 13.8897 19.5026 13.8463C19.502 13.5543 19.5013 13.2472 19.4673 12.9412L19.4637 12.9083L19.4516 12.8774C19.3848 12.7073 19.3063 12.5687 19.1875 12.4529C19.0712 12.3396 18.932 12.2638 18.7735 12.1934Z" fill="#575757" stroke="#575757" stroke-width="0.5"/>
<path d="M18.9838 16.2106L18.9429 16.1781L18.8925 16.1647C18.6733 16.1063 18.4634 16.0749 18.2504 16.0974C18.0344 16.1202 17.8326 16.1966 17.626 16.3287L17.6009 16.3448L17.5803 16.3663C17.5762 16.3705 17.5722 16.3747 17.5682 16.3789C17.4612 16.4902 17.3598 16.5957 17.3173 16.7957C17.2839 16.9529 17.2861 17.1771 17.2896 17.5315C17.2898 17.5473 17.2899 17.5633 17.2901 17.5796L17.29 17.5796L17.2902 17.5848L17.299 17.8763C17.2995 17.927 17.3 17.978 17.3005 18.0293C17.3031 18.3219 17.3058 18.6242 17.3289 18.9254L17.336 19.0176L17.4014 19.083L17.4687 19.1503C17.5386 19.2399 17.5862 19.3008 17.6456 19.3601C17.7036 19.4182 17.7716 19.4734 17.8778 19.5597L17.8893 19.569L17.9415 19.6114L18.0079 19.6219C18.2741 19.6641 18.5259 19.66 18.7859 19.6224L18.8681 19.6105L18.9269 19.5518L18.9886 19.4901C19.0729 19.4324 19.127 19.3952 19.1706 19.3605C19.2199 19.3213 19.2557 19.2855 19.304 19.2371L19.3094 19.2317L19.3324 19.2086L19.3488 19.1805C19.3505 19.1776 19.3521 19.1747 19.3538 19.1718C19.4177 19.0618 19.4718 18.9685 19.4941 18.8075C19.5123 18.6767 19.5104 18.4927 19.5073 18.189C19.5072 18.1778 19.5071 18.1665 19.507 18.155L19.507 18.155L19.5069 18.1497L19.4981 17.8706C19.4976 17.8272 19.4971 17.7835 19.4967 17.7396C19.4938 17.4511 19.4907 17.1532 19.4681 16.856L19.4644 16.8071L19.4424 16.7632C19.3176 16.5136 19.1926 16.3766 18.9838 16.2106Z" fill="#575757" stroke="#575757" stroke-width="0.5"/>
</g>
<defs>
<clipPath id="clip0_51_484">
<rect width="40" height="40" fill="white"/>
</clipPath>
</defs>
</svg>
