<svg width="40" height="40" viewBox="0 0 40 40" fill="none" xmlns="http://www.w3.org/2000/svg">
<path d="M21.7963 3.02145C21.8655 3.0206 21.9348 3.01974 22.0062 3.01885C22.2337 3.01653 22.4612 3.01668 22.6888 3.01707C22.848 3.01642 23.0071 3.01569 23.1663 3.01489C23.4995 3.01364 23.8326 3.01368 24.1658 3.01457C24.5913 3.01554 25.0167 3.0127 25.4422 3.0088C25.7709 3.00632 26.0995 3.00618 26.4282 3.00671C26.585 3.00662 26.7418 3.00575 26.8986 3.00405C28.406 2.98975 28.406 2.98975 28.9198 3.42519C29.3484 3.89566 29.4371 4.30786 29.4213 4.93217C29.4208 5.004 29.4203 5.07582 29.4198 5.14983C29.418 5.37733 29.4138 5.60471 29.4095 5.83218C29.4078 5.98721 29.4063 6.14224 29.4049 6.29727C29.4012 6.67562 29.3954 7.05389 29.3885 7.4322C29.4545 7.44441 29.5205 7.45662 29.5885 7.4692C29.8052 7.51549 29.9277 7.56872 30.1072 7.69449C30.154 7.72587 30.2009 7.75725 30.2492 7.78958C30.7365 8.27578 30.7703 8.71331 30.7732 9.37947C30.772 9.49388 30.7708 9.60828 30.7696 9.72269C30.7695 9.84434 30.7695 9.96598 30.7697 10.0876C30.7698 10.4166 30.7679 10.7455 30.7655 11.0744C30.7634 11.4187 30.7632 11.7629 30.7628 12.1072C30.7618 12.7584 30.759 13.4097 30.7556 14.061C30.7519 14.8027 30.75 15.5444 30.7484 16.2862C30.7449 17.8114 30.739 19.3366 30.7315 20.8618C30.7963 20.8867 30.8612 20.9116 30.928 20.9372C32.536 21.6036 33.8275 23.3358 34.5086 24.8907C35.3494 26.9621 35.3955 29.3903 34.5565 31.4687C33.6131 33.6768 31.9299 35.2166 29.7639 36.1712C29.6394 36.2177 29.5141 36.2624 29.3885 36.3059C29.3086 36.334 29.2288 36.3621 29.1465 36.391C28.1476 36.6997 27.1748 36.6891 26.1366 36.6851C25.9378 36.6856 25.739 36.6862 25.5402 36.6869C25.0036 36.6884 24.4671 36.6878 23.9306 36.6868C23.5949 36.6863 23.2592 36.6863 22.9236 36.6866C22.8676 36.6866 22.8117 36.6867 22.7541 36.6867C22.6404 36.6869 22.5267 36.687 22.413 36.6871C21.3506 36.688 20.2881 36.6869 19.2257 36.6851C18.3158 36.6836 17.4059 36.6839 16.496 36.6854C15.4365 36.6872 14.377 36.6879 13.3175 36.6869C13.2044 36.6868 13.0912 36.6867 12.9781 36.6866C12.8947 36.6865 12.8947 36.6865 12.8095 36.6864C12.419 36.6861 12.0285 36.6866 11.638 36.6874C11.1119 36.6884 10.5859 36.6877 10.0598 36.6858C9.86718 36.6853 9.67455 36.6855 9.48193 36.6862C8.17967 36.6908 7.12939 36.6644 6.13843 35.7184C5.24679 34.7844 5.16535 33.7783 5.1717 32.5472C5.17125 32.3981 5.17065 32.2489 5.16992 32.0998C5.1684 31.6971 5.16898 31.2944 5.17005 30.8918C5.1709 30.469 5.17011 30.0462 5.16958 29.6234C5.16897 28.9136 5.16977 28.2038 5.17137 27.494C5.1732 26.6751 5.17261 25.8563 5.17076 25.0374C5.16923 24.3325 5.16902 23.6275 5.1699 22.9226C5.17042 22.5024 5.1705 22.0822 5.16939 21.6619C5.16841 21.2668 5.1691 20.8716 5.17103 20.4764C5.17147 20.332 5.17135 20.1875 5.1706 20.0431C5.16403 18.6384 5.46646 17.7716 6.44512 16.7567C6.59968 16.6012 6.75464 16.4461 6.91004 16.2914C6.99589 16.2053 7.0817 16.1192 7.16748 16.0331C7.39896 15.8009 7.63096 15.5691 7.86309 15.3375C8.1069 15.0942 8.35029 14.8504 8.59376 14.6066C9.00254 14.1976 9.41167 13.7888 9.82101 13.3803C10.2931 12.9092 10.7645 12.4374 11.2356 11.9654C11.6414 11.5588 12.0476 11.1526 12.454 10.7466C12.6961 10.5047 12.9382 10.2627 13.1799 10.0204C13.4073 9.7925 13.6351 9.56505 13.8632 9.3379C13.9465 9.25488 14.0296 9.17172 14.1125 9.0884C15.0972 8.09971 15.9528 7.40303 17.3976 7.39121C17.7085 7.39238 18.0192 7.39885 18.33 7.40597C18.4912 7.40807 18.6524 7.40999 18.8136 7.4117C19.2051 7.41629 19.5964 7.4235 19.9878 7.4322C19.9851 7.33699 19.9825 7.24178 19.9798 7.14369C19.9706 6.78752 19.9648 6.43136 19.9601 6.07511C19.9576 5.92149 19.9541 5.76787 19.9498 5.61429C19.9071 4.07992 19.9071 4.07992 20.3249 3.54214C20.8081 3.13909 21.1811 3.01747 21.7963 3.02145ZM22.6737 5.75349C22.6737 6.30746 22.6737 6.86144 22.6737 7.4322C24.0032 7.4322 25.3327 7.4322 26.7026 7.4322C26.7026 6.87822 26.7026 6.32425 26.7026 5.75349C25.373 5.75349 24.0435 5.75349 22.6737 5.75349ZM16.6366 10.5939C16.5466 10.6856 16.5466 10.6856 16.4548 10.7793C16.3933 10.8433 16.3317 10.9073 16.2684 10.9732C16.1465 11.0988 16.0244 11.2241 15.9021 11.3493C15.8485 11.4049 15.795 11.4606 15.7397 11.5179C15.5755 11.6776 15.4088 11.8265 15.2351 11.9755C14.8624 12.3008 14.5109 12.6442 14.161 12.9936C14.0939 13.0603 14.0268 13.127 13.9577 13.1957C13.738 13.4141 13.5187 13.6328 13.2995 13.8516C13.1463 14.0043 12.9932 14.1569 12.84 14.3096C12.5609 14.5879 12.282 14.8664 12.0031 15.145C11.5932 15.5545 11.1828 15.9634 10.7719 16.3719C10.4149 16.7269 10.0586 17.0825 9.70252 17.4385C9.55122 17.5895 9.39972 17.7403 9.24801 17.8909C9.03664 18.1009 8.82607 18.3116 8.61569 18.5225C8.55269 18.5848 8.48969 18.647 8.42478 18.7111C8.36772 18.7686 8.31066 18.8261 8.25188 18.8854C8.20207 18.9351 8.15227 18.9848 8.10095 19.036C7.85434 19.349 7.89024 19.693 7.88929 20.0784C7.88904 20.1346 7.88879 20.1907 7.88853 20.2486C7.8878 20.4366 7.88767 20.6246 7.88755 20.8126C7.88716 20.9475 7.88674 21.0823 7.88629 21.2172C7.88519 21.5834 7.88464 21.9497 7.88427 22.316C7.88402 22.5448 7.88368 22.7737 7.8833 23.0025C7.88216 23.7186 7.88135 24.4346 7.88102 25.1507C7.88065 25.9772 7.87917 26.8037 7.87674 27.6302C7.87493 28.2692 7.87408 28.9082 7.87397 29.5472C7.87388 29.9288 7.87338 30.3104 7.87189 30.692C7.8705 31.0509 7.87032 31.4098 7.87106 31.7688C7.87112 31.9004 7.87076 32.032 7.86993 32.1636C7.86886 32.3436 7.86935 32.5234 7.87023 32.7034C7.87004 32.8543 7.87004 32.8543 7.86986 33.0082C7.90573 33.3254 7.97625 33.5221 8.15288 33.7879C8.4554 33.9656 8.72619 33.9765 9.07232 33.9759C9.17248 33.9762 9.27264 33.9764 9.37583 33.9766C9.48498 33.976 9.59414 33.9754 9.7066 33.9748C9.82326 33.9747 9.93992 33.9748 10.0566 33.9749C10.3727 33.9749 10.6888 33.9739 11.0049 33.9728C11.3355 33.9717 11.6661 33.9716 11.9966 33.9714C12.6224 33.9709 13.2481 33.9695 13.8738 33.9678C14.5863 33.966 15.2988 33.965 16.0113 33.9642C17.4767 33.9624 18.942 33.9595 20.4074 33.9557C20.246 33.6834 20.0776 33.4276 19.8881 33.1741C18.5254 31.2369 18.1074 28.9588 18.4477 26.6255C18.8295 24.5561 20.0717 22.6537 21.7658 21.4232C23.7761 20.0452 25.5314 19.9385 28.0455 19.9385C28.0455 16.6978 28.0455 13.4571 28.0455 10.1181C26.1612 10.1132 26.1612 10.1132 24.2768 10.1099C23.5085 10.1089 22.7401 10.1078 21.9718 10.1055C21.4122 10.1038 20.8526 10.1027 20.2931 10.1023C19.9968 10.1021 19.7005 10.1016 19.4043 10.1004C19.0735 10.099 18.7427 10.099 18.4119 10.0991C18.3138 10.0985 18.2156 10.0979 18.1145 10.0972C18.0242 10.0975 17.9339 10.0977 17.8409 10.0979C17.7236 10.0977 17.7236 10.0977 17.6039 10.0975C17.1831 10.1373 16.9255 10.2949 16.6366 10.5939ZM22.6134 24.2717C21.4728 25.4592 21.0355 26.8835 21.0496 28.4937C21.0894 30.0733 21.7511 31.3886 22.8858 32.4813C24.0601 33.5039 25.5301 34.0308 27.0885 33.9377C28.6918 33.7636 30.11 33.0787 31.1485 31.8259C32.2281 30.3486 32.5063 28.8169 32.2898 27.0232C31.973 25.5592 31.029 24.302 29.8082 23.4638C27.4095 22.0434 24.65 22.3639 22.6134 24.2717Z" fill="#575757"/>
<path d="M21.2416 12.3739C22.1104 13.013 22.5823 13.7545 22.7576 14.8185C22.8678 15.663 22.5361 16.4719 22.0862 17.1687C21.8759 17.4236 21.6458 17.655 21.411 17.8873C21.3442 17.9547 21.2774 18.0221 21.2086 18.0915C20.9891 18.3124 20.7685 18.5321 20.5478 18.7517C20.394 18.9057 20.2402 19.0598 20.0864 19.214C19.7647 19.5362 19.4423 19.8579 19.1195 20.1791C18.7477 20.5491 18.3771 20.9203 18.0072 21.2921C17.6495 21.6515 17.2908 22.01 16.9317 22.3681C16.7798 22.5197 16.6282 22.6717 16.4768 22.8239C16.2647 23.0368 16.0516 23.2486 15.8381 23.4602C15.7764 23.5226 15.7146 23.5851 15.651 23.6494C14.9307 24.3581 14.1046 24.7847 13.0795 24.815C12.1928 24.7722 11.4003 24.5102 10.7549 23.8835C10.1385 23.1458 9.79684 22.3623 9.81358 21.3878C9.91493 20.3189 10.4336 19.5368 11.1783 18.8003C11.2451 18.7329 11.3119 18.6655 11.3807 18.5961C11.6001 18.3752 11.8207 18.1555 12.0415 17.9359C12.1953 17.7819 12.3491 17.6278 12.5028 17.4736C12.8246 17.1513 13.1469 16.8297 13.4697 16.5085C13.8415 16.1385 14.2121 15.7673 14.5821 15.3955C14.9398 15.0361 15.2985 14.6776 15.6575 14.3195C15.8094 14.1678 15.9611 14.0159 16.1125 13.8637C16.3246 13.6508 16.5377 13.439 16.7511 13.2274C16.8129 13.165 16.8746 13.1025 16.9383 13.0382C18.0956 11.8994 19.8002 11.4418 21.2416 12.3739ZM18.0991 15.8543C18.0107 15.9421 18.0107 15.9421 17.9206 16.0316C17.7282 16.2227 17.5361 16.4142 17.3441 16.6057C17.2782 16.6715 17.2122 16.7372 17.1443 16.8049C16.7962 17.1517 16.4484 17.4988 16.1007 17.8461C15.7415 18.2048 15.3815 18.5628 15.0214 18.9205C14.7442 19.1961 14.4677 19.4722 14.1912 19.7485C14.0587 19.8808 13.9259 20.0129 13.793 20.1448C13.6077 20.3286 13.4233 20.5132 13.239 20.698C13.1839 20.7524 13.1287 20.8067 13.0719 20.8628C13.0219 20.9132 12.9719 20.9637 12.9204 21.0157C12.8768 21.0592 12.8332 21.1027 12.7882 21.1475C12.6657 21.3073 12.619 21.4164 12.6015 21.6173C12.7991 21.8499 12.7991 21.8499 13.0212 22.0369C13.4819 21.9122 13.7546 21.5907 14.0804 21.2621C14.1434 21.1995 14.2064 21.137 14.2712 21.0726C14.479 20.8659 14.6858 20.6584 14.8926 20.4507C15.0367 20.3068 15.1808 20.1629 15.3249 20.0191C15.6268 19.7177 15.9281 19.4158 16.2292 19.1136C16.6155 18.7258 17.0029 18.3392 17.3907 17.953C17.6884 17.6562 17.9855 17.3588 18.2824 17.0612C18.425 16.9184 18.5678 16.7758 18.7109 16.6334C18.9104 16.4344 19.1092 16.2347 19.3077 16.0348C19.3969 15.9464 19.3969 15.9464 19.4879 15.8561C19.5418 15.8015 19.5957 15.7469 19.6512 15.6907C19.6983 15.6435 19.7453 15.5964 19.7938 15.5478C19.9206 15.3845 19.9702 15.2766 19.9878 15.0703C19.8007 14.8342 19.8007 14.8342 19.5681 14.6506C19.0677 14.6506 18.4436 15.5104 18.0991 15.8543Z" fill="#575757"/>
<path d="M27.4986 23.8451C27.8534 24.0654 28.0799 24.3683 28.3235 24.7019C28.3937 24.796 28.3937 24.796 28.4653 24.8921C29.5479 26.3641 30.5722 27.865 30.3957 29.759C30.2263 30.5904 29.7244 31.38 29.0606 31.9095C28.0225 32.5932 27.0806 32.7221 25.8632 32.6128C24.8101 32.377 24.007 31.7493 23.429 30.8501C22.9653 29.972 22.8531 29.0113 23.0766 28.0399C23.504 26.8575 24.2774 25.8067 25.0238 24.8068C25.0847 24.7239 25.1456 24.641 25.2084 24.5556C25.8031 23.7741 26.5338 23.4179 27.4986 23.8451ZM26.6186 27.4088C26.2545 27.9018 25.8371 28.4811 25.7373 29.0927C25.7941 29.4266 25.9433 29.5459 26.1989 29.759C26.4668 29.8929 26.7468 29.8748 27.0383 29.8429C27.3392 29.7055 27.4406 29.6171 27.6258 29.3393C27.6774 28.9081 27.5584 28.6521 27.3478 28.2796C27.2962 28.1868 27.2446 28.0939 27.1914 27.9983C27.0654 27.7896 26.9465 27.5925 26.7865 27.4088C26.7311 27.4088 26.6757 27.4088 26.6186 27.4088Z" fill="#575757"/>
</svg>
