<svg width="40" height="40" viewBox="0 0 40 40" fill="none" xmlns="http://www.w3.org/2000/svg">
<g clip-path="url(#clip0_51_520)">
<path d="M23.4371 -0.0262447C23.6286 -0.0267483 23.8201 -0.027274 24.0116 -0.0278206C24.41 -0.0287486 24.8083 -0.0290464 25.2066 -0.0289531C25.7148 -0.0289371 26.2229 -0.0310817 26.7311 -0.0337613C27.1254 -0.035504 27.5197 -0.0358153 27.914 -0.0357328C28.1014 -0.035916 28.2887 -0.0366002 28.476 -0.037816C30.3394 -0.0487921 30.3394 -0.0487921 31.1718 0.3125C31.2651 0.351172 31.3585 0.389844 31.4547 0.429688C33.6819 1.6159 34.9953 3.88727 35.9423 6.14257C35.9731 6.21479 36.0039 6.287 36.0357 6.3614C36.2191 6.81187 36.343 7.19464 36.1953 7.67913C35.994 8.06484 35.8118 8.33363 35.3902 8.49883C34.9972 8.61297 34.7026 8.59133 34.3154 8.46954C33.7736 8.12823 33.5474 7.58627 33.3202 7.01171C33.2596 6.8648 33.1986 6.71801 33.1374 6.57134C33.0939 6.46706 33.0939 6.46706 33.0495 6.36066C32.4618 4.98926 31.434 3.38186 30.006 2.79114C29.6451 2.66497 29.3142 2.64425 28.9331 2.64366C28.8732 2.64327 28.8133 2.64288 28.7516 2.64248C28.5538 2.64134 28.356 2.64081 28.1582 2.64038C28.0202 2.63993 27.8822 2.63948 27.7442 2.63903C27.4547 2.63821 27.1653 2.63775 26.8759 2.63748C26.5064 2.63705 26.1369 2.63518 25.7674 2.63295C25.4822 2.63149 25.197 2.63109 24.9118 2.63097C24.7757 2.63073 24.6395 2.63011 24.5034 2.62908C23.2636 2.62037 22.384 2.82891 21.4538 3.69293C19.4163 5.82494 18.5403 9.07726 17.9686 11.875C17.9539 11.9456 17.9391 12.0163 17.9239 12.0891C17.7307 13.0253 17.6013 13.9686 17.4853 14.917C17.4753 14.9977 17.4753 14.9977 17.4652 15.08C17.3158 16.3038 17.2496 17.528 17.2167 18.7598C17.215 18.8241 17.2132 18.8885 17.2115 18.9548C17.1804 20.1654 17.1952 21.3686 17.2655 22.5781C17.2703 22.6604 17.275 22.7427 17.2799 22.8275C17.3762 24.4035 17.5799 25.9727 17.8628 27.5259C17.9241 27.9865 17.8878 28.3727 17.6708 28.7842C17.4096 29.0902 17.1894 29.2716 16.7785 29.3155C16.2916 29.3298 16.0189 29.2759 15.6249 28.9844C15.2965 28.6528 15.231 28.3445 15.1562 27.9004C15.1436 27.8298 15.131 27.7592 15.118 27.6865C15.0087 27.0503 14.9193 26.4112 14.8339 25.7715C14.8215 25.6801 14.8091 25.5888 14.7964 25.4947C14.571 23.7241 14.5013 21.9519 14.5063 20.1681C14.5067 20.0068 14.507 19.8454 14.5072 19.6841C14.5103 17.9838 14.5561 16.298 14.7655 14.6094C14.772 14.5563 14.7784 14.5032 14.7851 14.4485C15.0723 12.1007 15.5248 9.72874 16.328 7.49999C16.3522 7.43197 16.3763 7.36394 16.4012 7.29385C16.9305 5.81386 17.5703 4.43742 18.4374 3.125C14.1339 4.20444 10.3199 5.83487 7.10928 8.98437C7.06216 9.03006 7.01504 9.07576 6.96648 9.12284C6.67089 9.41278 6.40096 9.71184 6.14737 10.0391C6.11104 10.0857 6.0747 10.1324 6.03726 10.1805C3.37837 13.6411 2.22267 17.8665 2.78098 22.2044C3.21181 25.1847 4.39868 27.9698 6.40616 30.2344C6.46367 30.3003 6.52117 30.3663 6.58042 30.4342C9.53195 33.7719 13.552 35.6496 17.8124 36.7187C17.8773 36.735 17.9423 36.7514 18.0092 36.7682C18.1519 36.804 18.2946 36.8395 18.4374 36.875C18.3939 36.8049 18.3504 36.7348 18.3056 36.6626C15.9523 32.8326 15.9523 32.8326 16.1718 31.4062C16.3397 30.933 16.5728 30.6198 17.0312 30.3906C17.4818 30.345 17.9295 30.3202 18.3118 30.5921C18.7212 30.9539 18.9043 31.4928 19.0722 31.997C19.5084 33.236 20.0518 34.502 20.8593 35.5468C20.8915 35.5889 20.9237 35.6309 20.9569 35.6742C21.5898 36.4909 22.2332 37.1342 23.2811 37.3437C23.7523 37.3787 24.2222 37.3787 24.6944 37.3776C24.8314 37.378 24.9683 37.3784 25.1053 37.3788C25.3912 37.3795 25.6772 37.3793 25.9632 37.3786C26.3276 37.3777 26.6919 37.3792 27.0563 37.3815C27.3389 37.383 27.6214 37.3829 27.9039 37.3825C28.0382 37.3825 28.1724 37.3829 28.3067 37.3839C29.4207 37.3909 30.2362 37.2529 31.0936 36.4843C31.1448 36.4404 31.196 36.3965 31.2487 36.3513C32.295 35.3886 32.9822 33.9484 33.4862 32.6416C33.7024 32.0907 33.897 31.7374 34.4481 31.4963C34.8372 31.3694 35.1731 31.4008 35.5468 31.5625C35.8968 31.7871 36.0959 32.0069 36.2132 32.4021C36.3484 33.0508 36.0444 33.6472 35.7811 34.2236C35.7423 34.3099 35.7034 34.3961 35.6633 34.485C35.1207 35.6724 34.4906 36.7167 33.6718 37.7343C33.6122 37.8085 33.5527 37.8826 33.4914 37.959C32.6386 38.9604 31.4691 39.7646 30.1561 40C29.8757 40.0216 29.5966 40.0221 29.3154 40.0214C29.2334 40.0218 29.1513 40.0222 29.0668 40.0226C28.7963 40.0237 28.5257 40.0236 28.2552 40.0235C28.065 40.0238 27.8747 40.0241 27.6845 40.0245C27.2852 40.0251 26.8858 40.025 26.4865 40.0246C25.9808 40.0242 25.4752 40.0255 24.9696 40.0273C24.5759 40.0285 24.1822 40.0285 23.7885 40.0283C23.6025 40.0283 23.4165 40.0287 23.2305 40.0295C21.4951 40.036 19.7788 39.8959 18.0761 39.5507C17.9756 39.5307 17.8751 39.5107 17.7715 39.4901C15.6216 39.054 13.5406 38.3687 11.5624 37.4218C11.508 37.3961 11.4536 37.3703 11.3975 37.3438C10.1076 36.7303 8.87179 36.0217 7.73428 35.1562C7.66621 35.1049 7.66621 35.1049 7.59676 35.0525C7.01028 34.6084 6.45437 34.141 5.91788 33.6377C5.72438 33.4574 5.52708 33.2833 5.32706 33.1103C5.06432 32.8772 4.82879 32.6345 4.60288 32.3657C4.4931 32.2351 4.38059 32.1068 4.26658 31.98C1.3473 28.7004 -0.0418701 24.371 -0.0244973 20.0293C-0.0243289 19.9535 -0.0241606 19.8776 -0.0239871 19.7995C-0.0200005 18.6803 0.00649397 17.584 0.234291 16.4844C0.250229 16.4063 0.266166 16.3283 0.282586 16.2479C0.966505 12.9945 2.39339 10.133 4.60929 7.65624C4.67951 7.57642 4.7497 7.49657 4.81986 7.41668C5.14799 7.04791 5.47974 6.70092 5.85807 6.38366C5.96549 6.29247 6.07043 6.19829 6.17301 6.10168C7.69171 4.67325 9.52205 3.52492 11.4096 2.64976C11.5698 2.57465 11.7282 2.49622 11.8868 2.4176C15.4628 0.686262 19.492 -0.0237726 23.4371 -0.0262447Z" fill="#575757"/>
<path d="M30.8872 4.80165C31.04 4.91461 31.1842 5.03238 31.3282 5.15627C31.3906 5.2031 31.4529 5.24993 31.5171 5.29818C32.198 5.874 32.9275 6.90392 33.1037 7.78322C33.1384 8.21094 33.0586 8.52768 32.8321 8.89162C32.5002 9.21429 32.2148 9.31248 31.7579 9.33108C31.372 9.31956 31.1526 9.24897 30.8595 8.9844C30.6171 8.69974 30.4191 8.40007 30.2247 8.08108C30.1713 7.99396 30.1179 7.90685 30.063 7.8171C29.922 7.57815 29.922 7.57815 29.8338 7.39687C29.7723 7.25423 29.7723 7.25423 29.6241 7.16311C29.3965 7.09157 29.2873 7.10532 29.0626 7.18752C26.8141 9.03244 26.5685 13.5603 26.2998 16.2186C25.8493 21.0307 25.5597 28.7011 28.8282 32.6563C28.9696 32.8076 28.9696 32.8076 29.1407 32.8907C29.3851 32.8834 29.4983 32.8398 29.687 32.6841C30.0423 32.2749 30.3096 31.8546 30.5729 31.3816C30.7698 31.0647 30.9931 30.8707 31.3282 30.7032C31.8859 30.6467 32.2862 30.668 32.7345 31.0157C33.0211 31.3476 33.1429 31.6714 33.1251 32.1094C32.9543 33.1542 32.0615 34.3171 31.2452 34.9561C30.5243 35.4525 29.7897 35.716 28.9063 35.625C28.264 35.4919 27.7489 35.289 27.2657 34.8438C27.1819 34.7705 27.1819 34.7705 27.0963 34.6958C23.9709 31.7963 23.627 25.925 23.4669 21.958C23.2963 17.1537 23.4878 11.6489 25.7032 7.26565C25.74 7.19132 25.7767 7.117 25.8146 7.04043C26.4322 5.84524 27.2869 4.918 28.545 4.42873C29.3668 4.27288 30.1657 4.35413 30.8872 4.80165Z" fill="#575757"/>
<path d="M33.0423 18.6593C33.1054 18.6589 33.1686 18.6585 33.2337 18.6581C33.4428 18.657 33.652 18.6564 33.8611 18.656C34.0066 18.6556 34.1521 18.6551 34.2976 18.6547C34.6029 18.6538 34.9081 18.6534 35.2134 18.6531C35.6038 18.6527 35.9943 18.6508 36.3847 18.6486C36.6854 18.6471 36.9861 18.6467 37.2867 18.6466C37.4306 18.6464 37.5745 18.6457 37.7184 18.6447C37.9202 18.6434 38.1219 18.6435 38.3237 18.644C38.3827 18.6433 38.4417 18.6426 38.5025 18.6418C38.9431 18.6453 39.3258 18.7252 39.6674 19.0262C40.0298 19.5148 40.0571 19.8633 40.0001 20.4687C39.8251 20.8316 39.5595 21.1554 39.1679 21.2965C38.8973 21.3431 38.6277 21.3403 38.354 21.3407C38.2907 21.3411 38.2274 21.3415 38.1622 21.3419C37.9531 21.343 37.744 21.3436 37.5349 21.344C37.3893 21.3444 37.2437 21.3449 37.0982 21.3453C36.793 21.3462 36.4879 21.3466 36.1828 21.3469C35.7923 21.3473 35.4017 21.3492 35.0112 21.3514C34.7105 21.3529 34.4099 21.3533 34.1092 21.3534C33.9652 21.3536 33.8213 21.3543 33.6773 21.3553C33.4757 21.3566 33.2742 21.3565 33.0726 21.356C33.0134 21.3567 32.9542 21.3574 32.8933 21.3582C32.4554 21.3547 32.1503 21.2495 31.8076 20.9787C31.5146 20.6573 31.4103 20.3908 31.3938 19.9548C31.4229 19.5142 31.5936 19.2417 31.9141 18.9551C32.2708 18.6625 32.5961 18.6599 33.0423 18.6593Z" fill="#575757"/>
<path d="M38.3155 8.90622C38.6621 9.17678 38.8697 9.4629 38.9414 9.90292C38.9596 10.3636 38.9127 10.6622 38.5938 11.0156C38.2392 11.3658 37.8398 11.4576 37.3719 11.5847C37.2895 11.6079 37.2072 11.6311 37.1223 11.6549C36.9471 11.704 36.7717 11.7527 36.5962 11.8011C36.3336 11.8735 36.0714 11.9472 35.8092 12.0214C35.3742 12.1442 34.9386 12.2644 34.5025 12.3835C34.3246 12.4324 34.1468 12.4817 33.9691 12.5315C33.7064 12.605 33.4432 12.677 33.18 12.7487C33.0628 12.782 33.0628 12.782 32.9432 12.816C32.3286 12.9805 31.6499 13.1181 31.0547 12.8418C30.6788 12.4847 30.4967 12.175 30.4612 11.6592C30.4779 11.2765 30.6414 11.0152 30.8741 10.7226C31.4343 10.2744 32.2442 10.1554 32.9261 9.96487C32.9838 9.94871 33.0415 9.93255 33.101 9.9159C33.4064 9.83045 33.712 9.74538 34.0176 9.6606C34.3308 9.57361 34.6436 9.48525 34.9563 9.39657C35.1991 9.328 35.4422 9.26051 35.6854 9.1933C35.8007 9.16122 35.916 9.12874 36.0311 9.09583C36.7844 8.88092 37.54 8.68063 38.3155 8.90622Z" fill="#575757"/>
<path d="M33.6054 27.3621C33.7325 27.3964 33.8597 27.4307 33.9869 27.4649C34.2517 27.5364 34.5162 27.6087 34.7807 27.6816C35.1186 27.7748 35.457 27.8661 35.7956 27.9569C36.0576 28.0273 36.3194 28.0985 36.581 28.1701C36.7057 28.2041 36.8305 28.2378 36.9553 28.2713C37.1298 28.3183 37.3038 28.3664 37.4779 28.4148C37.5767 28.4419 37.6755 28.469 37.7774 28.4968C38.2844 28.6791 38.6627 28.9659 38.9063 29.4531C38.9472 29.8637 38.9582 30.2067 38.7745 30.581C38.5209 30.862 38.2601 31.1502 37.8685 31.19C37.1823 31.2066 36.5711 31.0587 35.9174 30.8725C35.805 30.8414 35.6926 30.8105 35.5802 30.7796C35.2866 30.6987 34.9934 30.6163 34.7003 30.5336C34.4035 30.4502 34.1062 30.3682 33.8089 30.2861C33.1898 30.1146 32.571 29.9419 31.9532 29.7656C31.8746 29.7434 31.796 29.7211 31.715 29.6981C31.6452 29.6779 31.5755 29.6577 31.5037 29.6369C31.4148 29.6113 31.4148 29.6113 31.3241 29.5852C31.0198 29.4773 30.8419 29.2945 30.6446 29.0478C30.4608 28.6343 30.4128 28.2281 30.5518 27.793C31.0938 26.5359 32.6014 27.0842 33.6054 27.3621Z" fill="#575757"/>
<path d="M34.3811 23.0477C34.5079 23.0643 34.6347 23.0809 34.7614 23.0975C35.0254 23.1322 35.2894 23.1674 35.5533 23.2029C35.89 23.2481 36.227 23.2914 36.564 23.3342C36.8253 23.3677 37.0864 23.4025 37.3474 23.4378C37.4715 23.4543 37.5958 23.4703 37.72 23.4858C39.0311 23.6507 39.0311 23.6507 39.4531 24.0625C39.7189 24.4388 39.8249 24.7684 39.7656 25.2343C39.6275 25.6795 39.4462 25.9085 39.0625 26.1718C38.6829 26.3371 38.3734 26.3318 37.9718 26.2789C37.9087 26.2715 37.8456 26.264 37.7806 26.2563C37.5567 26.2293 37.333 26.2006 37.1094 26.1718C36.9264 26.149 36.7435 26.1263 36.5606 26.1035C36.0512 26.0396 35.5422 25.9732 35.0333 25.9059C34.7677 25.8708 34.502 25.8365 34.2362 25.8025C33.9787 25.7692 33.7212 25.735 33.4637 25.7009C33.3695 25.689 33.2752 25.677 33.1781 25.6647C31.8397 25.4843 31.8397 25.4843 31.4893 25.0878C31.2215 24.6822 31.1219 24.398 31.1719 23.9062C31.3146 23.4943 31.502 23.2078 31.875 22.9687C32.6481 22.711 33.5875 22.9422 34.3811 23.0477Z" fill="#575757"/>
<path d="M39.375 14.0625C39.6761 14.388 39.7486 14.5888 39.79 15.0195C39.7558 15.4298 39.6427 15.7525 39.3428 16.0452C38.8035 16.4227 38.1706 16.4579 37.5354 16.5372C37.4089 16.554 37.2824 16.571 37.156 16.5881C36.8916 16.6234 36.6271 16.6578 36.3625 16.6914C36.0257 16.7342 35.6892 16.7788 35.3528 16.824C35.0918 16.8591 34.8306 16.8934 34.5694 16.9276C34.4454 16.9438 34.3215 16.9602 34.1975 16.9766C32.2832 17.2295 32.2832 17.2295 31.7969 16.9824C31.478 16.73 31.3002 16.4787 31.1719 16.0938C31.1258 15.6242 31.2276 15.3071 31.4844 14.9219C31.8987 14.4963 32.4439 14.4399 33.0119 14.3624C33.0681 14.3547 33.1244 14.3469 33.1823 14.3389C33.3665 14.3136 33.5507 14.2889 33.735 14.2642C33.8641 14.2468 33.9932 14.2293 34.1223 14.2118C34.3922 14.1753 34.6622 14.1392 34.9322 14.1033C35.277 14.0573 35.6217 14.0103 35.9663 13.963C36.2327 13.9266 36.4991 13.8909 36.7656 13.8554C36.8927 13.8384 37.0197 13.8211 37.1467 13.8035C37.3248 13.779 37.5029 13.7555 37.6811 13.7323C37.7822 13.7187 37.8832 13.7051 37.9873 13.6911C38.5306 13.6556 38.9403 13.7068 39.375 14.0625Z" fill="#575757"/>
</g>
<defs>
<clipPath id="clip0_51_520">
<rect width="40" height="40" fill="white"/>
</clipPath>
</defs>
</svg>
