<svg width="40" height="40" viewBox="0 0 40 40" fill="none" xmlns="http://www.w3.org/2000/svg">
<g clip-path="url(#clip0_51_524)">
<path d="M30.6251 20C30.7765 20.1318 30.7765 20.1318 30.8595 20.3125C30.8951 20.8938 30.5016 21.2839 30.1564 21.7187C30.2168 21.7293 30.2772 21.7399 30.3395 21.7508C30.9224 21.8713 31.3411 22.0256 31.7189 22.5C31.9631 22.9215 32.0191 23.3463 31.9221 23.8257C31.7225 24.4997 31.1608 24.8093 30.586 25.1514C30.0546 25.4687 29.6742 25.8437 29.2677 26.3037C28.7607 26.7503 28.2718 26.9273 27.5976 26.8872C27.5107 26.8812 27.5107 26.8812 27.422 26.875C27.4361 26.9425 27.4502 27.0101 27.4647 27.0797C27.6435 27.953 27.7896 28.8304 27.9318 29.7103C27.9621 29.8969 27.9926 30.0835 28.0232 30.2701C28.0323 30.3271 28.0414 30.3841 28.0508 30.4429C28.0972 30.7382 28.0972 30.7382 28.2032 31.0156C28.4053 31.0522 28.4053 31.0522 28.6378 31.0644C28.7564 31.0732 28.7564 31.0732 28.8774 31.0821C28.9691 31.0879 28.9691 31.0879 29.0626 31.0937C29.0599 31.02 29.0572 30.9463 29.0544 30.8704C29.0265 29.5507 29.3477 28.4999 30.2754 27.5226C31.0556 26.8014 32.0594 26.3934 33.1251 26.4062C34.1235 26.4797 34.9016 26.7488 35.7032 27.3437C35.7671 27.3905 35.8309 27.4372 35.8967 27.4853C36.6584 28.1456 37.0529 29.0981 37.1876 30.0781C37.1944 30.2277 37.1978 30.3776 37.1974 30.5273C37.1976 30.6011 37.1978 30.6748 37.198 30.7507C37.1876 30.9375 37.1876 30.9375 37.1095 31.0937C37.2165 31.0919 37.2165 31.0919 37.3256 31.09C37.5913 31.086 37.857 31.0831 38.1228 31.0809C38.2376 31.0797 38.3524 31.0781 38.4671 31.0761C38.6326 31.0732 38.798 31.0719 38.9634 31.0709C39.1125 31.069 39.1125 31.069 39.2647 31.0671C39.5729 31.0979 39.7797 31.1858 40.0001 31.4062C40.046 31.9664 40.046 31.9664 39.8832 32.1963C39.6068 32.4046 39.3554 32.3779 39.0241 32.3666C38.892 32.3659 38.7599 32.3652 38.6277 32.3646C38.4202 32.3621 38.2129 32.3584 38.0054 32.3526C37.2238 32.2959 37.2238 32.2959 36.5313 32.5711C36.4129 32.7516 36.3301 32.925 36.2501 33.125C35.6024 33.9142 34.6836 34.4398 33.6619 34.549C32.427 34.6344 31.435 34.3392 30.4313 33.609C30.2048 33.4116 30.0372 33.2003 29.8585 32.959C29.7968 32.8766 29.735 32.7942 29.6714 32.7093C29.5314 32.5 29.5314 32.5 29.5314 32.3437C29.4617 32.3468 29.4617 32.3468 29.3907 32.3499C29.1772 32.3581 28.9637 32.3632 28.7501 32.3682C28.6406 32.3731 28.6406 32.3731 28.5289 32.3781C28.0034 32.3873 27.6647 32.3025 27.2657 31.9531C26.7588 31.454 26.7323 30.7661 26.631 30.0928C26.6112 29.9683 26.5914 29.8438 26.5714 29.7193C26.5327 29.4771 26.4947 29.2349 26.4572 28.9925C26.4074 28.6743 26.3499 28.3578 26.2903 28.0413C26.0066 26.4999 26.1657 25.0808 27.0314 23.75C27.215 23.4976 27.4054 23.2517 27.5996 23.0075C27.8337 22.7114 28.0504 22.404 28.2667 22.0947C28.3054 22.0398 28.344 21.9849 28.3838 21.9283C28.5514 21.6901 28.7186 21.4517 28.8845 21.2123C29.0195 21.0176 29.1557 20.8237 29.2921 20.6299C29.3336 20.5693 29.3751 20.5087 29.4179 20.4463C29.7611 19.9616 30.0305 19.7156 30.6251 20ZM28.1251 24.4531C28.0223 24.6179 27.9184 24.782 27.8145 24.946C27.7118 25.1156 27.6327 25.2779 27.5782 25.4687C27.604 25.5461 27.6298 25.6234 27.6564 25.7031C28.0966 25.6082 28.2869 25.4997 28.5939 25.1562C29.0402 24.6629 29.503 24.3013 30.077 23.9706C30.3027 23.8341 30.5014 23.6849 30.7032 23.5156C30.6158 23.2245 30.6158 23.2245 30.3907 23.0469C29.1185 22.7599 28.7276 23.424 28.1251 24.4531ZM31.0597 28.5428C30.5486 29.0833 30.3099 29.7662 30.2784 30.5029C30.304 31.3641 30.7164 32.0907 31.323 32.6816C32.0312 33.2558 32.787 33.3492 33.672 33.2812C34.4276 33.1006 35.1187 32.6012 35.547 31.9531C35.9369 31.1584 36.0576 30.416 35.7798 29.5669C35.5873 29.0844 35.3081 28.7068 34.922 28.3594C34.8656 28.3062 34.8092 28.253 34.7511 28.1982C33.5367 27.3616 32.1239 27.5747 31.0597 28.5428Z" fill="#575757"/>
<path d="M10.5996 21.4555C10.9567 21.5124 11.2581 21.6883 11.5721 21.8604C11.6442 21.8991 11.7162 21.9379 11.7905 21.9779C12.4203 22.3259 12.9813 22.7221 13.5155 23.2031C13.5543 23.2378 13.5931 23.2724 13.6331 23.308C14.4311 24.0313 15.3394 25.0433 15.3987 26.1715C15.4034 26.3624 15.4054 26.5531 15.4064 26.7441C15.4068 26.8145 15.4073 26.8849 15.4077 26.9575C15.4085 27.1064 15.409 27.2552 15.4093 27.4041C15.41 27.6297 15.4124 27.8553 15.4149 28.0809C15.4154 28.2261 15.4158 28.3713 15.4161 28.5166C15.4171 28.5831 15.4181 28.6496 15.4191 28.7181C15.4161 29.5386 15.1863 30.1937 14.6093 30.7813C14.0636 31.1869 13.4621 31.3967 12.8173 31.5918C12.7296 31.6195 12.6419 31.6472 12.5516 31.6757C11.9111 31.875 11.9111 31.875 11.6405 31.875C11.6325 31.9309 11.6246 31.9868 11.6164 32.0444C11.4176 32.8585 10.7077 33.5605 10.0243 34.0039C8.9776 34.5852 7.79506 34.7284 6.6405 34.4043C5.65175 34.0499 4.80013 33.4362 4.29675 32.5C4.29675 32.4485 4.29675 32.3969 4.29675 32.3438C4.24753 32.3445 4.19831 32.3452 4.14759 32.3459C3.63561 32.3528 3.12363 32.3575 2.61161 32.3609C2.42049 32.3625 2.22937 32.3646 2.03826 32.3673C1.76366 32.3711 1.4891 32.3729 1.21448 32.3743C1.12894 32.3759 1.0434 32.3775 0.955266 32.3792C0.87552 32.3792 0.795773 32.3792 0.71361 32.3792C0.643522 32.3799 0.573434 32.3806 0.501222 32.3813C0.251643 32.3317 0.15829 32.2257 -0.000119675 32.0313C-0.0554965 31.8041 -0.0266601 31.6451 -0.000119675 31.4063C0.141414 31.1973 0.224694 31.1751 0.46863 31.0938C0.580129 31.087 0.691917 31.0846 0.803618 31.0849C0.870857 31.0849 0.938097 31.0849 1.00737 31.0849C1.07965 31.0853 1.15192 31.0857 1.22638 31.0861C1.30061 31.0862 1.37485 31.0864 1.45133 31.0865C1.68854 31.0869 1.92575 31.0879 2.16297 31.0889C2.32374 31.0893 2.48452 31.0896 2.6453 31.09C3.03953 31.0908 3.43377 31.0922 3.828 31.0938C3.82647 31.0098 3.82494 30.9259 3.82337 30.8394C3.82213 30.7271 3.82093 30.6149 3.81976 30.5026C3.81866 30.4476 3.81755 30.3925 3.81642 30.3357C3.80793 29.2444 4.30546 28.3079 5.03803 27.5281C5.81357 26.7996 6.82494 26.3948 7.8905 26.4063C8.89563 26.4713 9.78387 26.7518 10.5468 27.4219C10.5988 27.4649 10.6509 27.5079 10.7045 27.5522C11.3916 28.1684 11.8565 29.1498 11.9237 30.0684C11.9325 30.1817 11.9325 30.1817 11.9414 30.2973C11.9452 30.3539 11.9491 30.4105 11.953 30.4688C12.2059 30.3877 12.4579 30.3039 12.7098 30.2197C12.7811 30.1969 12.8523 30.1741 12.9257 30.1506C13.3392 30.0108 13.6317 29.888 13.9061 29.5313C14.0357 29.2563 14.0841 29.0293 14.0947 28.7265C14.0993 28.6121 14.0993 28.6121 14.1039 28.4953C14.1063 28.4166 14.1087 28.3379 14.1112 28.2569C14.1157 28.1365 14.1157 28.1365 14.1204 28.0138C14.1277 27.8165 14.1344 27.6192 14.1405 27.4219C14.0632 27.4477 13.9858 27.4735 13.9061 27.5C12.8187 27.5777 11.8002 27.4474 10.9374 26.7188C10.4705 26.2734 10.2258 25.8205 10.2001 25.166C10.2234 24.4185 10.5019 23.9833 11.0308 23.4714C11.1718 23.3594 11.1718 23.3594 11.328 23.3594C11.0841 23.0642 10.7301 22.9387 10.391 22.7817C10.1306 22.6571 10.0075 22.5895 9.84363 22.3438C9.80605 22.0557 9.82572 21.9093 9.96081 21.6504C10.1843 21.4605 10.3114 21.447 10.5996 21.4555ZM11.6014 24.7217C11.4504 24.9797 11.4253 25.0961 11.4843 25.3906C11.7292 25.8469 12.0953 26.0453 12.5765 26.1994C13.0669 26.3047 13.5784 26.3126 14.0624 26.1719C14.029 25.761 13.8768 25.5121 13.6229 25.2002C13.5878 25.156 13.5527 25.1119 13.5166 25.0663C13.1247 24.5647 13.1247 24.5647 12.6561 24.1406C12.2294 24.1406 11.8978 24.4328 11.6014 24.7217ZM5.91174 28.4436C5.27135 29.122 5.04636 29.8277 5.05664 30.7462C5.11337 31.4617 5.42599 32.0781 5.93738 32.5781C6.72356 33.1837 7.44835 33.3823 8.43738 33.2813C9.22718 33.0777 9.85933 32.6248 10.3075 31.9434C10.6806 31.2805 10.7813 30.578 10.62 29.834C10.3999 29.0701 9.94124 28.5064 9.29675 28.0469C8.1665 27.432 6.87712 27.5819 5.91174 28.4436Z" fill="#575757"/>
<path d="M21.5184 5.60058C21.9913 5.85763 22.2674 6.27002 22.5145 6.73339C22.5467 6.79242 22.5788 6.85144 22.612 6.91226C22.7319 7.13365 22.8504 7.35579 22.9686 7.57811C22.9934 7.62462 23.0181 7.67112 23.0436 7.71902C23.3377 8.27205 23.6307 8.82565 23.9231 9.37956C24.2768 10.0496 24.6323 10.7188 24.9901 11.3867C25.0374 11.475 25.0847 11.5633 25.1334 11.6543C25.3608 12.0785 25.59 12.5015 25.8223 12.923C25.8657 13.0017 25.9091 13.0805 25.9537 13.1617C26.0344 13.3079 26.1155 13.454 26.1969 13.5998C26.5407 14.2224 26.7333 14.7489 26.6405 15.4687C26.4622 16.0467 26.1491 16.4215 25.6249 16.7187C25.3964 16.7949 25.2486 16.8072 25.0106 16.8084C24.9323 16.8089 24.854 16.8095 24.7733 16.81C24.6875 16.8103 24.6017 16.8105 24.5132 16.8107C24.4228 16.8112 24.3323 16.8117 24.2391 16.8122C23.939 16.8138 23.6389 16.8147 23.3388 16.8155C23.2364 16.8158 23.1339 16.8161 23.0284 16.8164C22.5421 16.8179 22.0558 16.819 21.5695 16.8197C21.009 16.8204 20.4486 16.8225 19.8881 16.8257C19.4544 16.828 19.0207 16.8292 18.587 16.8294C18.3282 16.8296 18.0694 16.8305 17.8106 16.8323C17.5215 16.8342 17.2325 16.8341 16.9433 16.8336C16.8583 16.8346 16.7732 16.8356 16.6856 16.8366C16.106 16.8326 15.6645 16.7504 15.2324 16.3309C15.1802 16.2546 15.1802 16.2546 15.1268 16.1767C15.0908 16.1261 15.0547 16.0754 15.0176 16.0232C14.8305 15.7032 14.7416 15.43 14.7362 15.0586C14.734 14.9905 14.7318 14.9224 14.7295 14.8523C14.8351 14.1402 15.2971 13.4673 15.6249 12.8369C15.6635 12.7623 15.6635 12.7623 15.703 12.6863C16.0757 11.9673 16.457 11.2537 16.8476 10.5444C17.1242 10.041 17.3919 9.53341 17.6561 9.02343C17.9761 8.40674 18.3009 7.79303 18.6327 7.18261C18.6712 7.11151 18.7096 7.04041 18.7493 6.96715C19.3117 5.93698 19.3117 5.93698 19.6923 5.71777C19.771 5.67109 19.771 5.67109 19.8513 5.62347C20.3469 5.36799 21.0146 5.36211 21.5184 5.60058ZM20.1831 7.03383C19.9726 7.34159 19.8108 7.67527 19.6434 8.0078C19.5605 8.16982 19.4774 8.33177 19.3941 8.49364C19.352 8.57562 19.3099 8.65759 19.2665 8.74205C19.0739 9.11241 18.8731 9.47811 18.6718 9.84374C18.3114 10.4995 17.9626 11.1607 17.6184 11.8251C17.301 12.4361 16.9735 13.0411 16.6411 13.6441C16.536 13.8352 16.4317 14.0268 16.328 14.2187C16.2962 14.2772 16.2644 14.3356 16.2317 14.3958C16.0366 14.7668 15.9704 14.98 16.0936 15.3906C16.3416 15.5559 16.4024 15.5666 16.6863 15.5677C16.7598 15.5684 16.8333 15.5691 16.909 15.5698C16.9895 15.5697 17.07 15.5696 17.1529 15.5696C17.2802 15.5703 17.2802 15.5703 17.4101 15.5711C17.6914 15.5726 17.9727 15.5729 18.254 15.5731C18.4491 15.5736 18.6442 15.5741 18.8392 15.5747C19.2485 15.5756 19.6577 15.5759 20.0669 15.5758C20.5399 15.5757 21.0128 15.5774 21.4857 15.5798C21.9408 15.5821 22.3958 15.5827 22.8509 15.5826C23.0445 15.5828 23.2381 15.5835 23.4317 15.5847C23.7021 15.5862 23.9725 15.5858 24.243 15.5848C24.3234 15.5857 24.4037 15.5866 24.4864 15.5875C24.9131 15.5887 24.9131 15.5887 25.2857 15.4027C25.408 15.2062 25.4193 15.0847 25.3712 14.859C25.2325 14.4544 25.0207 14.082 24.8192 13.706C24.7694 13.6116 24.7196 13.5172 24.6699 13.4228C24.3279 12.775 23.9779 12.1316 23.625 11.4898C23.347 10.9838 23.078 10.4735 22.8124 9.96093C22.4924 9.34424 22.1676 8.73052 21.8358 8.12011C21.7973 8.04901 21.7589 7.97791 21.7192 7.90465C21.3837 7.2725 21.3837 7.2725 20.9374 6.71874C20.5524 6.65031 20.419 6.73359 20.1831 7.03383Z" fill="#575757"/>
<path d="M0.937652 16.25C1.13441 16.3462 1.31043 16.4417 1.49429 16.5576C1.54487 16.5888 1.59545 16.6199 1.64757 16.652C2.41056 17.1314 3.10047 17.7075 3.7941 18.2806C3.85694 18.3324 3.91978 18.3841 3.98453 18.4375C4.04515 18.4949 4.10578 18.5523 4.16824 18.6114C4.4393 18.7929 4.62757 18.7864 4.95132 18.789C5.48866 18.8075 5.80905 18.868 6.20712 19.2489C6.52761 19.5988 6.64077 19.9227 6.64077 20.3906C6.6872 20.3935 6.73363 20.3964 6.78146 20.3995C8.0098 20.4969 8.0098 20.4969 8.42086 20.809C8.55976 20.997 8.55747 21.183 8.54782 21.4108C8.51577 21.5625 8.51577 21.5625 8.35464 21.7578C7.82411 22.0287 7.20197 21.8219 6.64077 21.7187C6.62547 21.764 6.61016 21.8094 6.59439 21.8561C6.40429 22.3526 6.16459 22.6254 5.70327 22.8906C5.32486 23.0167 4.93745 22.9864 4.54117 22.9883C4.45607 22.9899 4.37097 22.9915 4.28329 22.9931C4.20101 22.9935 4.11874 22.9939 4.03396 22.9944C3.95895 22.9951 3.88393 22.9958 3.80665 22.9966C3.55323 22.9634 3.40911 22.8836 3.20328 22.7344C2.99377 22.4382 2.95762 22.2115 2.9631 21.8582C2.96394 21.7881 2.96478 21.718 2.96564 21.6458C2.96672 21.5925 2.96779 21.5392 2.9689 21.4844C2.85066 21.4868 2.85066 21.4868 2.73003 21.4893C2.43709 21.495 2.14417 21.4986 1.8512 21.5015C1.72449 21.5031 1.59779 21.5052 1.4711 21.5079C1.28879 21.5117 1.10656 21.5135 0.924225 21.5149C0.839491 21.5173 0.839491 21.5173 0.753045 21.5198C0.480738 21.5199 0.339149 21.5048 0.120602 21.3361C-0.0813678 21.0607 -0.0370659 20.8818 0.000152856 20.5469C0.141687 20.3379 0.224966 20.3157 0.468903 20.2344C0.659612 20.2277 0.848011 20.2253 1.03867 20.2267C1.1214 20.2269 1.1214 20.2269 1.20581 20.2271C1.38173 20.2275 1.55764 20.2285 1.73355 20.2295C1.85292 20.2299 1.9723 20.2302 2.09167 20.2305C2.38409 20.2314 2.67649 20.2327 2.9689 20.2344C3.03523 19.675 3.03523 19.675 2.88525 19.1515C2.76204 19.0366 2.63771 18.9474 2.49527 18.8574C2.44646 18.823 2.39766 18.7886 2.34737 18.7531C2.1919 18.6447 2.03386 18.5411 1.87515 18.4375C1.77114 18.3665 1.66727 18.2953 1.56357 18.2239C1.15641 17.9458 0.743213 17.6788 0.322418 17.4219C0.0782778 17.2656 0.0782778 17.2656 0.000152856 17.1094C-0.0538393 16.5514 -0.0538393 16.5514 0.161286 16.2842C0.464104 16.136 0.61043 16.1773 0.937652 16.25ZM4.2189 20C4.2189 20.5672 4.2189 21.1344 4.2189 21.7187C4.38326 21.7236 4.54761 21.7284 4.71695 21.7334C4.8094 21.7361 4.90185 21.7388 4.9971 21.7416C5.07545 21.7341 5.1538 21.7265 5.23453 21.7187C5.42837 21.428 5.41947 21.1962 5.42007 20.8594C5.42199 20.8028 5.4239 20.7462 5.42587 20.6878C5.43047 20.5014 5.43047 20.5014 5.39078 20.2344C5.0288 19.914 5.0288 19.914 4.2189 20Z" fill="#575757"/>
<path d="M17.4218 20.1563C17.6199 20.4535 17.6251 20.5848 17.5781 20.9375C17.4234 21.118 17.2687 21.2985 17.1093 21.4844C19.4812 21.4844 21.8531 21.4844 24.2968 21.4844C24.1421 21.3039 23.9874 21.1235 23.8281 20.9375C23.7792 20.6494 23.7792 20.6494 23.8281 20.3907C23.9788 20.1785 24.0891 20.0979 24.331 20.0049C24.632 19.9976 24.8161 20.1356 25.0336 20.3389C25.1538 20.4629 25.2703 20.5894 25.3857 20.7178C25.4474 20.786 25.4474 20.786 25.5103 20.8555C26.2473 21.6768 26.2473 21.6768 26.4355 22.1387C26.3873 22.6044 26.0857 22.8635 25.7812 23.2032C25.6992 23.2997 25.6175 23.3966 25.5361 23.4937C24.8078 24.359 24.8078 24.359 24.4677 24.4043C24.2187 24.375 24.2187 24.375 23.9941 24.209C23.8281 23.9844 23.8281 23.9844 23.7743 23.7647C23.8281 23.5157 23.8281 23.5157 24.2968 22.8907C21.9249 22.8907 19.5531 22.8907 17.1093 22.8907C17.264 23.0969 17.4187 23.3032 17.5781 23.5157C17.6318 23.7647 17.6318 23.7647 17.5781 23.9844C17.3858 24.2445 17.2737 24.3589 16.9531 24.419C16.4247 24.3199 16.1259 23.832 15.8096 23.4333C15.6893 23.2834 15.5655 23.1362 15.4379 22.9926C15.3803 22.9267 15.3228 22.8609 15.2636 22.793C15.211 22.7346 15.1585 22.6762 15.1043 22.616C14.9545 22.3374 14.9967 22.1761 15.0781 21.875C15.2093 21.6666 15.2093 21.6666 15.3808 21.4698C15.4436 21.3972 15.5065 21.3245 15.5712 21.2497C15.6411 21.1717 15.7111 21.0936 15.7812 21.0157C15.8577 20.9287 15.9342 20.8417 16.0107 20.7547C16.087 20.6691 16.1635 20.5835 16.2402 20.4981C16.2764 20.4574 16.3126 20.4167 16.35 20.3747C16.7168 19.974 16.9167 19.9726 17.4218 20.1563Z" fill="#575757"/>
<path d="M39.1064 15.9033C39.1595 15.9015 39.2126 15.8998 39.2672 15.8979C39.5258 15.8992 39.6667 15.9222 39.8773 16.0763C40.0059 16.2583 40.0444 16.3427 40.0439 16.5625C40.0457 16.614 40.0474 16.6656 40.0491 16.7187C39.9705 16.9688 39.8282 17.0519 39.6094 17.1875C39.3649 17.2241 39.3649 17.2241 39.0967 17.2265C38.0393 17.2762 37.0801 17.6909 36.3452 18.4619C35.8831 19.0216 35.4804 19.6308 35.0781 20.2343C35.133 20.2338 35.188 20.2333 35.2446 20.2327C35.7629 20.228 36.2813 20.2245 36.7997 20.2222C37.0662 20.221 37.3327 20.2193 37.5992 20.2166C37.9058 20.2136 38.2124 20.2125 38.519 20.2114C38.6144 20.2102 38.7098 20.209 38.808 20.2078C38.9417 20.2077 38.9417 20.2077 39.0781 20.2077C39.1564 20.2072 39.2346 20.2067 39.3152 20.2061C39.5917 20.2422 39.8015 20.3484 40 20.5468C40.0462 21.1108 40.0462 21.1108 39.8758 21.3358C39.6221 21.5359 39.463 21.5239 39.1419 21.5248C39.0876 21.5253 39.0333 21.5259 38.9774 21.5264C38.7983 21.5278 38.6193 21.5269 38.4402 21.5258C38.3155 21.526 38.1908 21.5263 38.0661 21.5267C37.8047 21.5272 37.5434 21.5265 37.2821 21.5251C36.9476 21.5233 36.6131 21.5243 36.2786 21.5262C36.021 21.5273 35.7635 21.527 35.5059 21.5261C35.3826 21.5259 35.2593 21.5262 35.136 21.5269C34.9634 21.5277 34.7909 21.5265 34.6182 21.5248C34.5201 21.5245 34.422 21.5243 34.3209 21.524C34.017 21.4773 33.8893 21.3848 33.6719 21.1718C33.4622 20.8465 33.4535 20.531 33.5156 20.1562C33.6046 19.9902 33.6046 19.9902 33.7216 19.8248C33.7642 19.7638 33.8068 19.7028 33.8507 19.64C33.8948 19.5783 33.9389 19.5166 33.9844 19.4531C34.0248 19.3951 34.0652 19.337 34.1068 19.2773C34.5995 18.5716 35.0943 17.8768 35.7031 17.2656C35.7505 17.2164 35.7978 17.1673 35.8466 17.1166C36.7251 16.2715 37.9143 15.9291 39.1064 15.9033Z" fill="#575757"/>
<path d="M38.657 13.8428C38.76 13.8429 38.8629 13.843 38.969 13.8431C39.6337 13.862 39.6337 13.862 39.8685 14.0561C40.0135 14.2358 40.0405 14.3092 40.034 14.5362C39.9998 14.8438 39.9998 14.8438 39.8973 14.9952C39.6488 15.1516 39.4429 15.1638 39.1581 15.159C37.1229 15.1605 35.1282 15.532 33.1248 15.8594C33.136 15.9174 33.1472 15.9753 33.1588 16.035C33.1733 16.1116 33.1877 16.1882 33.2026 16.2671C33.2171 16.3428 33.2315 16.4185 33.2464 16.4965C33.3468 17.1408 33.1764 17.5412 32.8093 18.0732C32.7587 18.1418 32.7081 18.2105 32.6561 18.2813C32.6103 18.3451 32.5646 18.409 32.5175 18.4748C32.2929 18.7624 32.1886 18.8915 31.8211 18.96C31.4219 18.8772 31.4219 18.8772 31.2498 18.6719C31.1582 18.4405 31.131 18.3621 31.1717 18.125C31.3286 17.82 31.5218 17.546 31.7186 17.2657C31.8583 17.0674 31.8583 17.0674 31.9529 16.875C31.9192 16.7478 31.8842 16.6207 31.8412 16.4963C31.733 16.0879 31.7059 15.6123 31.8678 15.217C32.1124 14.8465 32.4166 14.6677 32.8526 14.5616C33.0963 14.5146 33.3404 14.4727 33.5853 14.4327C33.6766 14.4174 33.7679 14.4021 33.862 14.3863C34.1581 14.3373 34.4544 14.29 34.7508 14.2432C34.851 14.2273 34.9512 14.2113 35.0545 14.1949C36.2534 14.0064 37.4415 13.8366 38.657 13.8428Z" fill="#575757"/>
<path d="M9.1975 29.1019C9.56352 29.4904 9.75913 29.9175 9.77032 30.4538C9.74371 30.8709 9.68289 31.2053 9.45324 31.5625C9.39281 31.6616 9.39281 31.6616 9.33117 31.7627C8.90593 32.1879 8.44085 32.3682 7.84191 32.3877C7.20803 32.3587 6.84401 32.1875 6.41613 31.7236C6.02196 31.2625 5.98098 30.845 5.99102 30.2524C6.04445 29.7069 6.30176 29.3336 6.71887 28.9844C7.49955 28.4419 8.47271 28.4706 9.1975 29.1019ZM7.59777 29.9414C7.32611 30.1424 7.32611 30.1424 7.23156 30.4541C7.24717 30.7156 7.24717 30.7156 7.43176 30.9277C7.64318 31.1094 7.64318 31.1094 7.89562 31.1377C8.17858 31.0835 8.26881 31.0126 8.43761 30.7813C8.53372 30.5314 8.5316 30.4307 8.43273 30.1807C8.18823 29.8888 7.9547 29.7792 7.59777 29.9414Z" fill="#575757"/>
<path d="M34.297 28.9843C34.7083 29.351 34.9529 29.7822 35.0221 30.3302C35.045 30.8864 34.8988 31.3359 34.5606 31.7773C34.1423 32.2243 33.6842 32.3611 33.0812 32.3828C32.56 32.364 32.2043 32.2628 31.8196 31.9079C31.3769 31.4286 31.2013 30.9457 31.2236 30.2948C31.2978 29.6891 31.5686 29.3206 32.0314 28.9383C32.7266 28.4481 33.6086 28.5051 34.297 28.9843ZM32.6564 30.0781C32.4731 30.3035 32.4731 30.3035 32.5099 30.5859C32.5555 30.8564 32.5555 30.8564 32.7101 31.0107C32.9459 31.1191 33.1024 31.1259 33.3595 31.0937C33.5488 31.0217 33.5488 31.0217 33.672 30.8593C33.7635 30.5963 33.7635 30.5963 33.7501 30.3125C33.6096 30.0638 33.5117 29.9523 33.2472 29.8437C32.9849 29.8437 32.8636 29.9212 32.6564 30.0781Z" fill="#575757"/>
<path d="M21.0154 9.14063C21.2477 9.31566 21.3201 9.40761 21.3696 9.69756C21.3747 10.2658 21.3747 10.2658 21.3729 10.4566C21.3719 10.6194 21.3745 10.7819 21.3775 10.9447C21.3774 11.0478 21.3772 11.1508 21.377 11.257C21.3771 11.3512 21.3772 11.4453 21.3772 11.5423C21.3142 11.8677 21.1934 11.9837 20.9373 12.1875C20.7029 12.2363 20.7029 12.2363 20.4685 12.1875C20.2125 11.9837 20.0916 11.8677 20.0286 11.5423C20.0287 11.4482 20.0287 11.354 20.0288 11.257C20.0286 11.154 20.0285 11.0509 20.0283 10.9447C20.0293 10.8914 20.0303 10.8381 20.0313 10.7832C20.034 10.6203 20.0329 10.4576 20.0314 10.2947C20.0372 9.50348 20.0372 9.50348 20.2272 9.26867C20.5173 9.04111 20.658 9.0477 21.0154 9.14063Z" fill="#575757"/>
<path d="M20.8665 13.0878C21.0154 13.125 21.0154 13.125 21.2108 13.2813C21.3716 13.603 21.3678 13.7823 21.3279 14.1407C21.2449 14.3311 21.2449 14.3311 21.0936 14.4532C20.7831 14.5394 20.6178 14.5637 20.3221 14.4287C20.1561 14.2969 20.1561 14.2969 20.0779 14.1407C20.0492 13.7904 20.0375 13.5965 20.1951 13.2813C20.4318 13.092 20.5692 13.0667 20.8665 13.0878Z" fill="#575757"/>
</g>
<defs>
<clipPath id="clip0_51_524">
<rect width="40" height="40" fill="white"/>
</clipPath>
</defs>
</svg>
