<svg width="40" height="40" viewBox="0 0 40 40" fill="none" xmlns="http://www.w3.org/2000/svg">
<path d="M11.2694 8.54493C11.4193 8.64211 11.5691 8.73925 11.719 8.83637C11.7955 8.88626 11.8721 8.93615 11.9509 8.98755C12.1905 9.14263 12.4314 9.29534 12.673 9.44733C12.7902 9.52122 12.7902 9.52122 12.9098 9.5966C13.0603 9.69135 13.2109 9.78593 13.3617 9.88034C13.4297 9.92335 13.4977 9.96637 13.5677 10.0107C13.6276 10.0483 13.6874 10.086 13.7491 10.1247C13.9995 10.2995 14.1208 10.4095 14.2187 10.7031C14.2288 10.8147 14.235 10.9266 14.2387 11.0386C14.241 11.1062 14.2432 11.1738 14.2456 11.2435C14.2533 11.5568 14.259 11.87 14.2632 12.1833C14.266 12.3469 14.2703 12.5106 14.276 12.6741C14.3142 13.7812 14.2069 14.5444 13.6016 15.4802C12.4462 17.4247 12.3377 20.3362 12.8756 22.4796C12.9061 22.5907 12.9371 22.7017 12.9687 22.8125C12.9829 22.8646 12.9971 22.9167 13.0117 22.9704C13.2206 23.7196 13.5443 24.4007 13.9065 25.085C13.9322 25.1343 13.9578 25.1836 13.9843 25.2344C14.0253 25.3006 14.0664 25.3668 14.1087 25.435C14.2593 25.8022 14.2523 26.1282 14.2498 26.5213C14.2501 26.6386 14.2501 26.6386 14.2505 26.7582C14.2506 26.923 14.2502 27.0877 14.2492 27.2525C14.248 27.5043 14.2492 27.7561 14.2507 28.008C14.2506 28.1683 14.2503 28.3287 14.2498 28.4891C14.2503 28.5642 14.2507 28.6393 14.2512 28.7167C14.2443 29.3822 14.2443 29.3822 13.9843 29.6875C13.818 29.8281 13.818 29.8281 13.6278 29.9548C13.5584 30.0014 13.4889 30.048 13.4173 30.096C13.0878 30.3089 12.7565 30.518 12.4218 30.7227C12.3164 30.7874 12.3164 30.7874 12.2089 30.8534C12.0645 30.942 11.9199 31.0306 11.7754 31.1191C11.5696 31.2456 11.3647 31.3732 11.1599 31.5012C11.0353 31.5786 10.9107 31.656 10.786 31.7334C10.7293 31.7691 10.6726 31.8049 10.6141 31.8417C10.1165 32.149 9.66043 32.3386 9.06241 32.2656C8.19637 32.0463 7.80541 31.4131 7.34366 30.7031C7.31039 30.6526 7.27712 30.602 7.24284 30.5499C6.77838 29.8383 6.37279 29.1039 6.00089 28.3399C5.96067 28.2576 5.92046 28.1754 5.87903 28.0906C5.68715 27.6856 5.52317 27.2912 5.40366 26.8588C5.22276 26.0917 5.22276 26.0917 4.74925 25.4971C4.41633 25.3235 4.07861 25.2127 3.71725 25.1144C3.37617 25.0193 3.18608 24.8994 2.96866 24.6094C2.85546 24.3345 2.81159 24.0492 2.76209 23.7565C2.74339 23.647 2.7233 23.5378 2.7019 23.4289C2.27162 21.2058 2.29818 18.6258 2.73428 16.4063C2.75238 16.3004 2.77039 16.1945 2.7883 16.0886C2.88222 15.5996 2.9512 15.3163 3.35928 15C3.52492 14.9448 3.52492 14.9448 3.71176 14.8993C4.23487 14.7713 4.74676 14.6427 5.05564 14.1703C5.29505 13.6471 5.44798 13.0934 5.61263 12.5432C6.05004 11.2005 7.18624 8.64126 8.47648 7.94923C9.51557 7.42968 10.3834 7.96103 11.2694 8.54493ZM9.37491 9.53126C8.44452 10.5987 6.95304 12.6998 6.95304 14.1406C6.9971 14.1414 7.04116 14.1421 7.08655 14.1428C7.28951 14.1471 7.49233 14.1536 7.69523 14.1602C7.76451 14.1613 7.8338 14.1624 7.90519 14.1635C8.42486 14.1826 8.86821 14.2793 9.25967 14.6415C9.6282 15.0582 9.72177 15.4435 9.71305 15.9836C9.68182 16.3081 9.615 16.6165 9.54093 16.9336C9.05663 19.0196 9.02803 21.2512 9.58488 23.3301C9.73156 23.8778 9.79795 24.4206 9.56046 24.9512C9.31871 25.368 8.97819 25.6393 8.51554 25.7813C8.24738 25.8108 7.9794 25.8209 7.70987 25.8301C7.63711 25.8331 7.56435 25.8361 7.48938 25.8392C7.31062 25.8466 7.13185 25.8533 6.95304 25.8594C6.99665 26.1783 7.06667 26.4444 7.19931 26.7374C7.23382 26.8137 7.26832 26.89 7.30387 26.9686C7.34117 27.0489 7.37847 27.1292 7.4169 27.2119C7.47467 27.3367 7.47467 27.3367 7.5336 27.4641C8.0416 28.5445 8.63031 29.5353 9.37491 30.4688C9.65405 30.3654 9.89412 30.2414 10.144 30.08C10.2151 30.0344 10.2863 29.9889 10.3597 29.942C10.5127 29.8425 10.6652 29.7422 10.8172 29.6411C11.4739 29.2085 11.4739 29.2085 11.823 29.09C12.1573 28.9623 12.2974 28.8924 12.4999 28.5938C12.8486 27.1462 12.4434 25.919 11.7461 24.6602C10.4671 22.15 10.6182 18.778 11.4315 16.1661C11.6355 15.5471 11.8793 14.9265 12.2077 14.3622C12.6649 13.5471 12.7396 12.5947 12.598 11.6802C12.3527 10.9949 11.6296 10.7035 11.0122 10.4083C10.9232 10.3684 10.8343 10.3284 10.7426 10.2873C10.3574 10.103 10.0045 9.87916 9.6449 9.64978C9.47955 9.52441 9.47955 9.52441 9.37491 9.53126ZM4.53116 16.4063C4.33113 16.7859 4.31116 17.2018 4.30247 17.6235C4.29655 17.8202 4.27774 18.0126 4.25681 18.2083C4.20277 18.7835 4.19989 19.3593 4.19913 19.9365C4.19897 19.9944 4.19881 20.0522 4.19865 20.1118C4.19797 21.154 4.27382 22.175 4.45303 23.2031C4.46217 23.2717 4.4713 23.3402 4.48071 23.4108C4.51745 23.6227 4.51745 23.6227 4.77225 23.7515C4.88275 23.801 4.9946 23.8475 5.10733 23.8916C5.16759 23.9155 5.22785 23.9395 5.28994 23.9641C6.173 24.2711 7.12652 24.1873 8.04679 24.1406C8.03536 24.0847 8.02394 24.0288 8.01217 23.9713C7.95999 23.7153 7.90817 23.4592 7.85636 23.2031C7.83838 23.1152 7.82041 23.0273 7.80188 22.9367C7.78451 22.8506 7.76714 22.7645 7.74924 22.6758C7.73329 22.5972 7.71733 22.5187 7.70089 22.4378C7.60701 21.9125 7.5652 21.4052 7.56217 20.8728C7.56163 20.8085 7.56109 20.7442 7.56053 20.678C7.55919 20.4715 7.55869 20.2651 7.55851 20.0586C7.5584 19.9884 7.5583 19.9181 7.55819 19.8457C7.55852 18.8389 7.5862 17.8603 7.81241 16.875C7.83239 16.7873 7.85237 16.6996 7.87295 16.6093C7.93036 16.3592 7.98833 16.1092 8.04679 15.8594C6.1759 15.6878 6.1759 15.6878 4.53116 16.4063Z" fill="#575757"/>
<path d="M22.3975 4.12107C22.4825 4.12099 22.4825 4.12099 22.5693 4.12091C25.0753 4.12459 27.5562 4.65851 29.7717 5.85645C29.922 5.93754 30.0733 6.01626 30.2249 6.09495C31.5747 6.80997 32.7455 7.75731 33.8281 8.82811C33.8742 8.87283 33.9203 8.91755 33.9678 8.96362C34.2658 9.25562 34.5357 9.55709 34.79 9.88768C34.8265 9.9349 34.863 9.98212 34.9007 10.0308C35.0125 10.1763 35.1235 10.3225 35.2344 10.4687C35.2677 10.5121 35.3011 10.5556 35.3355 10.6003C37.3702 13.2604 38.376 16.6086 38.3789 19.9365C38.3789 19.9914 38.379 20.0462 38.3791 20.1028C38.3753 22.5956 37.8345 25.069 36.6435 27.2717C36.5624 27.422 36.4837 27.5734 36.405 27.7249C35.69 29.0748 34.7427 30.2455 33.6719 31.3281C33.6271 31.3742 33.5824 31.4203 33.5363 31.4678C33.2444 31.7658 32.9429 32.0357 32.6123 32.29C32.5651 32.3265 32.5179 32.3631 32.4692 32.4007C32.3237 32.5125 32.1775 32.6235 32.0312 32.7344C31.9878 32.7677 31.9444 32.8011 31.8997 32.8355C29.2227 34.883 25.8658 35.8761 22.5195 35.8789C22.4343 35.879 22.4343 35.879 22.3473 35.8791C18.9265 35.8741 15.155 34.7687 12.5781 32.4219C12.3945 32.1347 12.3921 31.9015 12.4219 31.5625C12.5509 31.286 12.6341 31.1867 12.8906 31.0156C13.2104 30.9186 13.5116 30.9303 13.8104 31.0893C14.0799 31.261 14.3358 31.4508 14.5935 31.6394C17.4728 33.7424 21.2222 34.4079 24.6991 33.9038C27.5879 33.4455 30.1173 32.1172 32.2656 30.1562C32.3296 30.0979 32.3935 30.0396 32.4594 29.9795C35.0836 27.4669 36.4897 23.805 36.5846 20.217C36.6293 16.4532 35.1733 12.9919 32.6562 10.2344C32.5979 10.1704 32.5396 10.1065 32.4795 10.0406C29.9811 7.43134 26.3171 6.00051 22.7447 5.91535C21.2263 5.89922 19.7289 6.10293 18.2812 6.56248C18.2214 6.58139 18.1616 6.60029 18.0999 6.61978C16.7242 7.066 15.4131 7.70641 14.2787 8.60966C13.9127 8.8898 13.591 9.00467 13.125 8.98436C12.8371 8.86544 12.643 8.71593 12.5 8.43748C12.4587 8.00395 12.4676 7.77877 12.7344 7.42185C12.9175 7.25963 13.114 7.12097 13.3154 6.9824C13.374 6.94183 13.4325 6.90127 13.4928 6.85947C16.1426 5.0592 19.1995 4.12376 22.3975 4.12107Z" fill="#575757"/>
<path d="M27.7197 13.3887C27.8565 13.5072 27.9915 13.6277 28.1249 13.75C28.1972 13.8159 28.2694 13.8817 28.3438 13.9496C29.5454 15.0964 30.2879 16.5314 30.7031 18.125C30.7319 18.2344 30.7319 18.2344 30.7614 18.346C31.217 20.4951 30.6986 22.7896 29.5441 24.6274C29.3079 24.9862 29.0398 25.3088 28.7499 25.625C28.6841 25.6972 28.6182 25.7694 28.5504 25.8438C27.0937 27.3701 25.0505 28.3033 22.9406 28.3765C20.6756 28.4264 18.5662 27.8006 16.8749 26.25C16.8027 26.1841 16.7305 26.1183 16.6561 26.0504C15.4544 24.9036 14.712 23.4686 14.2968 21.875C14.2776 21.8021 14.2583 21.7292 14.2385 21.6541C13.7996 19.5835 14.2533 17.3313 15.3515 15.542C15.4405 15.4119 15.5316 15.2833 15.6249 15.1563C15.6721 15.0919 15.7192 15.0276 15.7678 14.9613C17.0169 13.3338 18.6579 12.3094 20.6249 11.7969C20.6979 11.7777 20.7708 11.7584 20.8459 11.7386C23.2141 11.2366 25.8339 11.8935 27.7197 13.3887ZM18.0468 15.0781C17.9873 15.1302 17.9278 15.1823 17.8665 15.2359C16.7514 16.2776 15.9258 17.9228 15.8593 19.4531C15.8553 19.5313 15.8513 19.6094 15.8471 19.6899C15.7991 21.4644 16.4038 23.1183 17.5781 24.4531C17.6562 24.5424 17.6562 24.5424 17.7358 24.6335C18.7775 25.7486 20.4228 26.5741 21.9531 26.6406C22.0312 26.6447 22.1094 26.6487 22.1899 26.6528C23.9644 26.7008 25.6182 26.0961 26.9531 24.9219C27.0126 24.8698 27.0721 24.8177 27.1334 24.7641C28.3519 23.6259 29.0512 21.9483 29.1564 20.2982C29.182 18.5223 28.6006 16.8869 27.4218 15.5469C27.3698 15.4874 27.3177 15.4278 27.264 15.3665C26.1259 14.1481 24.4482 13.4488 22.7981 13.3435C21.0223 13.3179 19.3868 13.8994 18.0468 15.0781Z" fill="#575757"/>
<path d="M24.5118 17.2314C25.2162 17.7813 25.6923 18.4924 25.8594 19.375C25.9632 20.452 25.7813 21.3549 25.1035 22.2232C24.4439 22.9449 23.6405 23.351 22.6615 23.396C21.6467 23.4113 20.8303 23.1093 20.0782 22.4219C19.3908 21.6697 19.0887 20.8534 19.1041 19.8386C19.1491 18.8596 19.5552 18.0561 20.2769 17.3965C21.5429 16.4082 23.1741 16.3378 24.5118 17.2314ZM21.2501 18.9062C20.9467 19.3275 20.8382 19.7132 20.8594 20.2344C20.9695 20.752 21.2208 21.1164 21.6505 21.4258C22.0424 21.6314 22.4756 21.6956 22.9096 21.6034C23.3984 21.4355 23.7555 21.1742 24.0006 20.7071C24.1635 20.2857 24.1952 19.8576 24.0479 19.4287C23.835 18.9542 23.5395 18.6279 23.0469 18.4375C22.3564 18.2719 21.7603 18.396 21.2501 18.9062Z" fill="#575757"/>
<path d="M32.9262 23.6746C33.1987 23.8851 33.3138 24.1228 33.4618 24.4287C33.4899 24.482 33.5179 24.5353 33.5468 24.5903C33.7399 24.9798 33.7897 25.269 33.7499 25.7031C33.6096 25.9422 33.4938 26.0602 33.2567 26.2012C32.9755 26.2666 32.7797 26.2418 32.4999 26.1719C32.149 25.9444 31.9768 25.6707 31.8065 25.2978C31.7826 25.2458 31.7587 25.1937 31.7341 25.1401C31.5524 24.7178 31.5004 24.4342 31.6405 23.9844C31.957 23.5624 32.439 23.4693 32.9262 23.6746Z" fill="#575757"/>
<path d="M18.5155 29.1406C18.7494 29.316 18.8136 29.41 18.9061 29.6875C18.9356 30.0851 18.917 30.3082 18.6717 30.625C18.4802 30.7596 18.277 30.8606 18.0663 30.9619C18.0123 30.9899 17.9583 31.018 17.9027 31.0469C17.5479 31.2219 17.2782 31.2884 16.8749 31.25C16.6048 31.1395 16.5025 31.0423 16.3378 30.8007C16.2299 30.4892 16.2415 30.317 16.328 30C16.5562 29.6494 16.8289 29.4769 17.202 29.3066C17.2541 29.2827 17.3061 29.2588 17.3597 29.2342C17.7821 29.0524 18.0657 29.0005 18.5155 29.1406Z" fill="#575757"/>
<path d="M31.9141 12.749C31.9798 12.7515 32.0456 12.754 32.1133 12.7565C32.4799 12.7764 32.7549 12.8026 33.0469 13.0469C33.2579 13.3595 33.2577 13.698 33.2031 14.0625C33.063 14.2867 32.9701 14.4134 32.7344 14.5313C32.4956 14.5519 32.2561 14.5493 32.0166 14.5508C31.9183 14.5532 31.9183 14.5532 31.8181 14.5557C31.3853 14.5584 31.0855 14.5035 30.7031 14.2969C30.5095 14.072 30.4721 13.9326 30.4346 13.6377C30.4756 13.3039 30.5628 13.1445 30.7812 12.8906C31.1457 12.681 31.509 12.7245 31.9141 12.749Z" fill="#575757"/>
<path d="M28.125 8.75C28.3903 8.88514 28.5485 8.98968 28.7061 9.24316C28.7812 9.60197 28.747 9.88406 28.5464 10.1935C28.3239 10.428 28.0879 10.561 27.7978 10.6934C27.7457 10.7171 27.6936 10.7409 27.64 10.7654C27.2952 10.9131 27.0024 11.0116 26.6257 10.9247C26.353 10.7986 26.2392 10.6487 26.0937 10.3906C26.035 10.0986 26.0584 9.84931 26.1755 9.57214C26.3864 9.29973 26.6271 9.18544 26.9336 9.03809C26.9876 9.01004 27.0416 8.98199 27.0972 8.95309C27.4512 8.77839 27.7225 8.70763 28.125 8.75Z" fill="#575757"/>
<path d="M29.3556 28.0615C29.5983 28.2571 29.7427 28.4215 29.7852 28.7396C29.8013 29.2866 29.8149 30.0599 29.4618 30.4941C29.1629 30.7315 28.8866 30.7408 28.5157 30.7031C28.2833 30.5644 28.0917 30.4019 27.9688 30.1562C27.957 29.929 27.9508 29.7049 27.9493 29.4775C27.9477 29.4157 27.9461 29.354 27.9444 29.2903C27.9416 28.8678 28.0033 28.5771 28.2032 28.2031C28.5535 27.9014 28.9353 27.88 29.3556 28.0615Z" fill="#575757"/>
<path d="M16.4843 9.29687C16.7168 9.43563 16.9083 9.59805 17.0312 9.84375C17.0431 10.071 17.0493 10.2951 17.0507 10.5225C17.0523 10.5842 17.0539 10.646 17.0556 10.7097C17.0584 11.1322 16.9968 11.4229 16.7968 11.7969C16.5687 11.9933 16.4329 12.0284 16.1327 12.0605C15.7574 12.0203 15.5707 11.9165 15.3271 11.6309C15.0896 11.056 15.2256 10.2688 15.3906 9.6875C15.7008 9.30617 16.0025 9.24788 16.4843 9.29687Z" fill="#575757"/>
<path d="M33.8215 18.108C33.9676 18.1918 34.1052 18.2822 34.2432 18.3789C34.2905 18.4098 34.3379 18.4407 34.3867 18.4726C34.7253 18.6998 34.9465 18.8906 35.0684 19.2822C35.0811 19.6083 35.0038 19.7953 34.8437 20.0781C34.6259 20.2657 34.483 20.3079 34.1992 20.3515C33.8039 20.2988 33.5346 20.1358 33.2031 19.9219C33.15 19.8882 33.097 19.8546 33.0423 19.8199C32.574 19.5064 32.574 19.5064 32.5 19.2187C32.4671 18.8038 32.4593 18.5372 32.7344 18.2031C33.0343 17.9698 33.4774 17.9674 33.8215 18.108Z" fill="#575757"/>
<path d="M22.5001 7.57814C22.7251 7.82003 22.8014 7.981 22.8566 8.30568C22.7971 8.69574 22.6339 8.96859 22.422 9.29689C22.3884 9.34996 22.3547 9.40304 22.3201 9.45772C22.0066 9.92604 22.0066 9.92604 21.7189 10C21.3039 10.0329 21.0373 10.0407 20.7032 9.76564C20.5216 9.53214 20.5217 9.287 20.5245 8.99685C20.5635 8.704 20.7124 8.49484 20.879 8.25685C20.9254 8.18578 20.9254 8.18578 20.9727 8.11327C21.18 7.80439 21.3646 7.57155 21.7189 7.44356C22 7.40458 22.2426 7.46309 22.5001 7.57814Z" fill="#575757"/>
<path d="M23.9062 30C24.1282 30.0965 24.2516 30.1762 24.3994 30.3662C24.4942 30.685 24.5188 31.011 24.392 31.3215C24.3082 31.4676 24.2177 31.6052 24.1211 31.7432C24.0902 31.7905 24.0593 31.8379 24.0274 31.8867C23.8002 32.2253 23.6094 32.4465 23.2178 32.5684C22.8917 32.5811 22.7047 32.5038 22.4219 32.3437C22.2343 32.1259 22.1921 31.983 22.1484 31.6992C22.2353 31.0478 22.6675 30.5299 23.125 30.0781C23.3745 29.9534 23.6348 29.9708 23.9062 30Z" fill="#575757"/>
<path d="M26.4063 15.625C26.6305 15.7651 26.7572 15.858 26.875 16.0937C26.9244 16.4468 26.9354 16.7705 26.7237 17.0703C26.454 17.2904 26.296 17.3459 25.9546 17.3624C25.6754 17.3324 25.5175 17.2162 25.3125 17.0312C25.1105 16.7649 25.1278 16.497 25.1563 16.1719C25.4035 15.6155 25.8411 15.5404 26.4063 15.625Z" fill="#575757"/>
<path d="M19.2969 15.625C19.5372 15.758 19.7193 15.9228 19.8438 16.1719C19.8756 16.5027 19.8638 16.6809 19.7071 16.9776C19.5369 17.1809 19.4582 17.2506 19.2188 17.3438C18.8316 17.377 18.5785 17.3169 18.2764 17.0703C18.0966 16.8112 18.0739 16.5696 18.0912 16.2595C18.1417 16.0122 18.2564 15.8736 18.4376 15.7031C18.7098 15.567 19 15.5792 19.2969 15.625Z" fill="#575757"/>
<path d="M10.3124 26.6406C10.5487 26.7763 10.7357 26.9403 10.8593 27.1875C10.9125 27.7198 10.9125 27.7198 10.7775 27.955C10.5329 28.2522 10.401 28.3505 10.0194 28.3887C9.75766 28.3868 9.62107 28.3403 9.41884 28.1738C9.14963 27.8981 9.10961 27.74 9.11244 27.352C9.16206 27.0613 9.32331 26.9216 9.53114 26.7188C9.78337 26.5926 10.0397 26.5941 10.3124 26.6406Z" fill="#575757"/>
<path d="M22.8124 24.1406C23.0487 24.2763 23.2357 24.4403 23.3593 24.6875C23.4125 25.2198 23.4125 25.2198 23.2775 25.455C23.0329 25.7522 22.901 25.8505 22.5194 25.8887C22.2577 25.8868 22.1211 25.8403 21.9188 25.6738C21.6496 25.3981 21.6096 25.24 21.6124 24.852C21.6621 24.5613 21.8233 24.4216 22.0311 24.2188C22.2834 24.0926 22.5397 24.0941 22.8124 24.1406Z" fill="#575757"/>
<path d="M26.4842 22.7343C26.7402 22.9433 26.846 23.0563 26.909 23.3767C26.9261 23.6963 26.9006 23.8651 26.7284 24.1406C26.4556 24.3973 26.2485 24.4074 25.8849 24.4009C25.5556 24.354 25.4458 24.2435 25.2342 23.9843C25.152 23.7437 25.129 23.5341 25.1561 23.2812C25.4514 22.6797 25.8606 22.5479 26.4842 22.7343Z" fill="#575757"/>
<path d="M19.2188 22.6563C19.5291 22.8233 19.7162 22.9519 19.8438 23.2813C19.8771 23.6685 19.817 23.9216 19.5704 24.2236C19.3113 24.4034 19.0697 24.4261 18.7595 24.4089C18.5123 24.3583 18.3737 24.2437 18.2032 24.0625C18.067 23.7901 18.0797 23.5003 18.1251 23.2031C18.3722 22.7414 18.71 22.6064 19.2188 22.6563Z" fill="#575757"/>
<path d="M27.8124 19.1406C28.0487 19.2763 28.2357 19.4403 28.3593 19.6875C28.4125 20.2198 28.4125 20.2198 28.2775 20.455C28.0329 20.7522 27.901 20.8505 27.5194 20.8887C27.2577 20.8868 27.1211 20.8403 26.9188 20.6738C26.6496 20.3981 26.6096 20.24 26.6124 19.852C26.6621 19.5613 26.8233 19.4216 27.0311 19.2188C27.2834 19.0926 27.5397 19.0941 27.8124 19.1406Z" fill="#575757"/>
<path d="M17.8124 19.1406C18.0487 19.2763 18.2357 19.4403 18.3593 19.6875C18.4125 20.2198 18.4125 20.2198 18.2775 20.455C18.0329 20.7522 17.901 20.8505 17.5194 20.8887C17.2577 20.8868 17.1211 20.8403 16.9188 20.6738C16.6496 20.3981 16.6096 20.24 16.6124 19.852C16.6621 19.5613 16.8233 19.4216 17.0311 19.2188C17.2834 19.0926 17.5397 19.0941 17.8124 19.1406Z" fill="#575757"/>
<path d="M22.8124 14.1406C23.0487 14.2763 23.2357 14.4403 23.3593 14.6875C23.4125 15.2198 23.4125 15.2198 23.2775 15.455C23.0329 15.7522 22.901 15.8505 22.5194 15.8887C22.2577 15.8868 22.1211 15.8403 21.9188 15.6738C21.6496 15.3981 21.6096 15.24 21.6124 14.852C21.6621 14.5613 21.8233 14.4216 22.0311 14.2188C22.2834 14.0926 22.5397 14.0941 22.8124 14.1406Z" fill="#575757"/>
<path d="M10.3124 11.6406C10.5487 11.7763 10.7357 11.9403 10.8593 12.1875C10.9125 12.7198 10.9125 12.7198 10.7775 12.955C10.5329 13.2522 10.401 13.3505 10.0194 13.3887C9.75766 13.3868 9.62107 13.3403 9.41884 13.1738C9.14963 12.8981 9.10961 12.74 9.11244 12.352C9.16206 12.0613 9.32331 11.9216 9.53114 11.7188C9.78337 11.5926 10.0397 11.5941 10.3124 11.6406Z" fill="#575757"/>
</svg>
