<svg width="40" height="40" viewBox="0 0 40 40" fill="none" xmlns="http://www.w3.org/2000/svg">
<g clip-path="url(#clip0_51_523)">
<path d="M19.9513 -0.0292764C20.0201 -0.0292079 20.089 -0.0291395 20.1599 -0.029069C21.2778 -0.0254124 22.3486 0.041525 23.4376 0.31252C23.5156 0.331793 23.5937 0.351066 23.674 0.370923C24.7356 0.641385 25.7386 0.995573 26.7189 1.48439C26.7711 1.51029 26.8233 1.53618 26.8771 1.56286C28.6529 2.45312 30.3997 3.7444 31.6407 5.31252C31.7005 5.38674 31.7602 5.46096 31.8217 5.53743C33.6385 7.82552 34.8168 10.5276 35.1564 13.4375C35.165 13.5093 35.1737 13.5811 35.1826 13.6551C35.5826 17.5846 34.366 21.6129 31.8995 24.6875C31.7883 24.8186 31.676 24.9488 31.5626 25.0781C31.5058 25.1435 31.449 25.2088 31.3905 25.2762C30.8046 25.9389 30.2049 26.5538 29.5054 27.095C29.4551 27.1342 29.4048 27.1734 29.353 27.2138C29.2303 27.3094 29.1074 27.4047 28.9845 27.5C29.1333 27.5011 29.1333 27.5011 29.2852 27.5022C29.6573 27.5054 30.0295 27.5105 30.4016 27.5162C30.562 27.5184 30.7223 27.5201 30.8826 27.5212C32.1707 27.5306 33.2242 27.605 34.2189 28.5156C34.9278 29.302 35.2455 30.1863 35.2471 31.2354C35.2475 31.2956 35.2479 31.3559 35.2483 31.418C35.2494 31.6168 35.2499 31.8156 35.2504 32.0145C35.2506 32.0827 35.2508 32.151 35.251 32.2214C35.2522 32.5831 35.2529 32.9449 35.2533 33.3066C35.2537 33.6781 35.2556 34.0496 35.2578 34.4211C35.2593 34.7086 35.2596 34.9961 35.2598 35.2835C35.26 35.4204 35.2606 35.5572 35.2617 35.694C35.2704 36.9374 35.1516 38.0319 34.2942 39.0094C33.6885 39.5876 32.9201 40.0086 32.0741 40.0107C31.987 40.0111 31.8999 40.0115 31.8102 40.0119C31.7145 40.0119 31.6188 40.012 31.5203 40.012C31.4186 40.0124 31.317 40.0127 31.2123 40.013C30.9299 40.014 30.6475 40.0144 30.3652 40.0148C30.0607 40.0152 29.7562 40.0162 29.4517 40.017C28.7162 40.0189 27.9807 40.0201 27.2451 40.0211C27.0373 40.0213 26.8295 40.0217 26.6216 40.022C25.3305 40.0239 24.0394 40.0257 22.7483 40.0266C22.4492 40.0269 22.1502 40.0271 21.8512 40.0273C21.7397 40.0274 21.7397 40.0274 21.626 40.0275C20.4228 40.0285 19.2196 40.0311 18.0164 40.0344C16.7805 40.0377 15.5447 40.0395 14.3088 40.0399C13.6151 40.0402 12.9215 40.0411 12.2278 40.0437C11.6369 40.0459 11.046 40.0467 10.455 40.0458C10.1538 40.0454 9.85259 40.0457 9.55135 40.0476C9.22395 40.0497 8.89663 40.0487 8.56923 40.0475C8.47513 40.0486 8.38102 40.0497 8.28407 40.0508C7.27682 40.0414 6.4177 39.7013 5.70323 38.9844C4.99692 38.1667 4.75746 37.262 4.75438 36.1962C4.75411 36.1388 4.75385 36.0815 4.75358 36.0223C4.75284 35.8341 4.75269 35.646 4.7526 35.4578C4.75235 35.3257 4.75209 35.1937 4.75181 35.0617C4.75135 34.7853 4.7512 34.509 4.75125 34.2327C4.75126 33.8806 4.75019 33.5286 4.74884 33.1765C4.74797 32.9038 4.74782 32.6312 4.74786 32.3585C4.74777 32.2288 4.74743 32.0991 4.74682 31.9695C4.74151 30.7213 4.81889 29.5221 5.72337 28.5614C6.81403 27.5686 7.95116 27.5292 9.35557 27.5195C9.51691 27.5173 9.67825 27.515 9.83958 27.5125C10.2316 27.5068 10.6237 27.5029 11.0157 27.5C10.9311 27.4314 10.9311 27.4314 10.8447 27.3615C10.2834 26.9048 9.74567 26.4331 9.21885 25.9375C9.16346 25.8863 9.10807 25.8352 9.05101 25.7825C6.6496 23.4889 5.18915 20.0611 4.84385 16.7969C4.83519 16.7158 4.82653 16.6347 4.8176 16.5512C4.54822 13.5989 5.12944 10.5692 6.5626 7.96876C6.58838 7.92098 6.61416 7.87319 6.64073 7.82396C6.98569 7.18592 7.36917 6.59 7.8126 6.01564C7.86054 5.9526 7.90848 5.88955 7.95787 5.8246C10.273 2.84941 13.6252 0.808185 17.3439 0.15627C17.4204 0.142473 17.4969 0.128676 17.5757 0.114461C18.3682 -0.0146643 19.1498 -0.0312268 19.9513 -0.0292764ZM20.4689 1.40627C20.4274 1.48905 20.3859 1.57183 20.3431 1.65712C20.2874 1.76559 20.2317 1.87402 20.1759 1.98244C20.1487 2.03702 20.1215 2.09161 20.0935 2.14785C19.8863 2.54679 19.8863 2.54679 19.6867 2.69411C19.4146 2.76468 19.1745 2.73371 18.9064 2.65627C18.7501 2.52931 18.7501 2.52932 18.672 2.34377C18.6501 2.03708 18.6699 1.77917 18.7501 1.48439C17.9707 1.54507 17.2269 1.67278 16.4698 1.87014C16.3933 1.88989 16.3168 1.90964 16.238 1.92999C15.666 2.06995 15.666 2.06995 15.1564 2.34377C15.1046 2.56477 15.0804 2.73636 15.0733 2.959C15.0604 3.30591 15.0399 3.54125 14.8228 3.82784C14.5969 3.99359 14.5204 4.03413 14.2482 3.99904C13.9671 3.94994 13.9243 3.93024 13.7452 3.69142C13.6782 3.45904 13.6509 3.28634 13.672 3.04689C12.5093 3.39773 11.4958 4.34143 10.6251 5.15627C10.663 5.29192 10.663 5.29192 10.7017 5.43031C10.7332 5.55053 10.7646 5.67077 10.796 5.79103C10.8129 5.85045 10.8297 5.90987 10.8471 5.97108C10.928 6.28929 10.9537 6.4398 10.839 6.75722C10.7032 6.95314 10.7032 6.95314 10.547 7.03126C9.97633 7.04938 9.97633 7.04938 9.6876 6.95314C9.63262 6.79789 9.58048 6.64159 9.53135 6.48439C9.45401 6.44572 9.45401 6.44572 9.3751 6.40626C8.84396 7.10786 8.33648 7.81286 7.91026 8.584C7.87764 8.6429 7.84502 8.7018 7.81142 8.76249C7.60806 9.12941 7.60806 9.12941 7.5001 9.53126C7.64335 9.7537 7.64335 9.7537 7.8419 9.97072C8.27423 10.47 8.27423 10.47 8.30577 10.8106C8.28135 11.0938 8.28135 11.0938 8.16905 11.2842C7.87933 11.4608 7.59608 11.482 7.26573 11.4063C7.04814 11.2476 7.04814 11.2476 6.8751 11.0938C6.45835 12.2911 6.29997 13.5035 6.2501 14.7656C6.32634 14.8006 6.40257 14.8355 6.48112 14.8715C6.58155 14.9192 6.68195 14.9669 6.78233 15.0147C6.83253 15.0375 6.88273 15.0603 6.93446 15.0838C7.25709 15.2392 7.43811 15.3701 7.57823 15.7031C7.57324 15.9926 7.56202 16.1732 7.37803 16.4014C7.03218 16.5521 6.68513 16.5252 6.32823 16.4063C6.35324 17.6319 6.68514 18.855 7.10948 20C7.24649 20.0101 7.24649 20.0101 7.38627 20.0205C7.50723 20.0314 7.62818 20.0425 7.74912 20.0537C7.8092 20.0579 7.86927 20.0621 7.93116 20.0664C8.257 20.0985 8.40823 20.1333 8.6735 20.3406C8.82823 20.5469 8.82823 20.5469 8.86729 20.8252C8.80829 21.2308 8.80829 21.2308 8.59385 21.4063C8.36226 21.4781 8.13 21.5244 7.89073 21.5625C8.2982 22.6708 9.14951 23.6571 9.92198 24.5312C10.0327 24.5069 10.1433 24.4825 10.254 24.458C10.3156 24.4444 10.3773 24.4308 10.4408 24.4168C10.556 24.3907 10.6708 24.3625 10.7847 24.3314C11.1231 24.255 11.4683 24.2654 11.797 24.375C11.8144 24.4985 11.8304 24.6223 11.8458 24.7461C11.8549 24.815 11.8639 24.8839 11.8733 24.9548C11.8753 25.1793 11.8449 25.2846 11.7189 25.4688C11.4747 25.6055 11.4747 25.6055 11.2501 25.7031C11.8521 26.3674 13.2567 27.5359 14.1877 27.5899C14.2744 27.5909 14.3612 27.5918 14.4506 27.5928C14.55 27.594 14.6494 27.5952 14.7518 27.5965C14.8627 27.5975 14.9735 27.5984 15.0843 27.5994C15.2006 27.6006 15.3169 27.6019 15.4332 27.6032C16.4989 27.6146 17.5647 27.6204 18.6305 27.625C19.4172 27.6285 20.2038 27.6345 20.9905 27.6439C21.5446 27.6503 22.0988 27.6536 22.653 27.6548C22.9833 27.6556 23.3134 27.6577 23.6437 27.6631C25.6582 27.6978 25.6582 27.6978 27.422 26.7969C27.5126 26.732 27.6036 26.6677 27.6949 26.6039C27.9236 26.4414 28.1417 26.2706 28.3595 26.0937C28.4395 26.0295 28.5196 25.9652 28.6021 25.899C29.0005 25.58 29.0005 25.58 29.3751 25.2344C29.3624 25.0679 29.3624 25.0679 29.3116 24.8877C29.2891 24.796 29.2891 24.796 29.2662 24.7025C29.2285 24.5661 29.1855 24.4311 29.1407 24.2969C29.1335 24.1799 29.1306 24.0625 29.131 23.9453C29.1308 23.8849 29.1306 23.8245 29.1304 23.7622C29.1407 23.5938 29.1407 23.5938 29.2189 23.3594C29.4812 23.3079 29.7324 23.271 30.0001 23.2813C30.2648 23.4757 30.3655 23.5961 30.4689 23.9062C30.706 23.8031 30.8387 23.7059 30.9895 23.4964C31.0268 23.4446 31.0642 23.3927 31.1027 23.3393C31.1612 23.255 31.1612 23.255 31.2208 23.1689C31.2613 23.1109 31.3018 23.0528 31.3435 22.993C31.647 22.5478 31.9213 22.0899 32.1778 21.6162C32.2128 21.5533 32.2477 21.4903 32.2836 21.4255C32.3146 21.3663 32.3455 21.3071 32.3774 21.246C32.4188 21.1679 32.4188 21.1679 32.461 21.0882C32.5167 20.9334 32.5167 20.9334 32.4379 20.7731C32.3241 20.5938 32.1983 20.4295 32.0655 20.2637C31.7291 19.8426 31.7291 19.8426 31.6896 19.5459C31.7189 19.2969 31.7189 19.2969 31.88 19.0723C32.17 18.8625 32.305 18.8508 32.6564 18.9063C32.9249 19.0625 32.9249 19.0625 33.1251 19.2188C33.5292 18.0393 33.7016 16.8673 33.7501 15.625C33.6739 15.5844 33.5976 15.5438 33.5191 15.502C33.4187 15.447 33.3183 15.392 33.2179 15.3369C33.1677 15.3104 33.1175 15.2838 33.0658 15.2565C32.757 15.0853 32.5666 14.9458 32.422 14.6094C32.4322 14.3529 32.4518 14.2015 32.6124 13.999C32.8641 13.8078 33.0478 13.8157 33.3595 13.8281C33.4641 13.8523 33.5684 13.878 33.672 13.9063C33.647 12.6806 33.3151 11.4575 32.8907 10.3125C32.7929 10.3049 32.695 10.2972 32.5941 10.2893C32.4651 10.2776 32.3361 10.2658 32.2071 10.2539C32.1105 10.2467 32.1105 10.2467 32.0118 10.2393C31.715 10.2105 31.5315 10.19 31.2855 10.0134C31.1071 9.74677 31.1117 9.52798 31.172 9.21876C31.2843 9.02833 31.2843 9.02833 31.4845 8.90626C31.7185 8.85914 31.9493 8.83832 32.1876 8.82814C31.2953 7.08039 31.2953 7.08039 29.922 5.78127C29.6671 5.85448 29.419 5.94265 29.1688 6.03029C28.8871 6.09843 28.7158 6.08976 28.4376 6.01564C28.2521 5.88869 28.2521 5.88869 28.1251 5.70314C28.0812 5.43459 28.0812 5.43459 28.1251 5.15627C28.3237 4.90943 28.449 4.78788 28.7501 4.68752C28.7501 4.63595 28.7501 4.58439 28.7501 4.53127C28.5888 4.39456 28.4278 4.26936 28.2569 4.14552C28.2054 4.10797 28.1538 4.07041 28.1007 4.03171C27.6781 3.73037 27.2407 3.45912 26.7921 3.19826C26.7299 3.16196 26.6677 3.12566 26.6036 3.08826C26.2841 2.90641 25.9811 2.75709 25.6251 2.65627C25.5769 2.70612 25.5286 2.75597 25.4789 2.80733C24.8054 3.46442 24.8054 3.46442 24.2961 3.46803C24.1407 3.43752 24.1407 3.43752 23.8966 3.29103C23.7196 2.99597 23.7286 2.84569 23.7745 2.51436C23.8366 2.31706 23.9308 2.18917 24.0626 2.03127C22.8856 1.65848 21.702 1.46376 20.4689 1.40627ZM6.71885 29.6875C6.22983 30.3974 6.2501 30.7815 6.2501 31.7187C15.3251 31.7187 24.4001 31.7187 33.7501 31.7187C33.7512 30.5723 33.7512 30.5723 33.2667 29.668C32.734 29.1471 32.2205 28.9995 31.4845 28.9844C31.443 29.0672 31.4015 29.1499 31.3588 29.2352C31.3031 29.3437 31.2473 29.4521 31.1915 29.5605C31.1643 29.6151 31.1371 29.6697 31.1091 29.7259C30.9007 30.1273 30.9007 30.1273 30.6971 30.2701C30.4084 30.3516 30.1741 30.354 29.8976 30.2344C29.7018 30.0023 29.6721 29.7479 29.6876 29.4531C29.7392 29.2984 29.7907 29.1437 29.8439 28.9844C29.2509 28.9844 28.6579 28.9844 28.047 28.9844C27.8544 29.3625 27.8544 29.3625 27.6638 29.7416C27.4623 30.1282 27.4623 30.1282 27.2593 30.2695C27.0343 30.3341 26.874 30.3458 26.6407 30.3125C26.4161 30.1514 26.4161 30.1514 26.2501 29.9219C26.2016 29.5338 26.2578 29.3558 26.4064 28.9844C25.8134 28.9844 25.2204 28.9844 24.6095 28.9844C24.4169 29.3625 24.4169 29.3625 24.2263 29.7416C24.0248 30.1282 24.0248 30.1282 23.8218 30.2695C23.5968 30.3341 23.4365 30.3458 23.2032 30.3125C22.9786 30.1514 22.9786 30.1514 22.8126 29.9219C22.7641 29.5338 22.8203 29.3558 22.9689 28.9844C22.3759 28.9844 21.7829 28.9844 21.172 28.9844C21.0689 29.1616 20.9657 29.3389 20.8595 29.5215C20.8269 29.5772 20.7942 29.6328 20.7606 29.6902C20.6006 29.9456 20.6006 29.9456 20.547 30.2344C19.8619 30.3567 19.8619 30.3567 19.5216 30.2002C19.3554 29.9731 19.3367 29.8184 19.3461 29.5389C19.3751 29.375 19.3751 29.375 19.5314 28.9844C18.9384 28.9844 18.3454 28.9844 17.7345 28.9844C17.5421 29.3333 17.5421 29.3333 17.3513 29.6832C17.1996 29.9533 17.0709 30.1605 16.797 30.3125C16.5282 30.3349 16.2681 30.3372 16.0157 30.2344C15.9429 30.0158 15.9271 29.8794 15.9278 29.6533C15.9275 29.564 15.9275 29.564 15.9272 29.473C15.9376 29.2969 15.9376 29.2969 16.0157 28.9844C15.4228 28.9844 14.8298 28.9844 14.2189 28.9844C14.0231 29.3627 14.0231 29.3627 13.8286 29.7416C13.7914 29.8124 13.7914 29.8124 13.7535 29.8846C13.716 29.9571 13.716 29.9571 13.6778 30.0309C13.5939 30.1562 13.5939 30.1562 13.3595 30.3125C13.0587 30.3381 12.8249 30.3412 12.5782 30.1562C12.3412 29.75 12.4701 29.4171 12.5782 28.9844C11.9853 28.9844 11.3923 28.9844 10.7814 28.9844C10.5856 29.3627 10.5856 29.3627 10.3911 29.7416C10.3539 29.8124 10.3539 29.8124 10.316 29.8846C10.291 29.9329 10.266 29.9812 10.2403 30.0309C10.1564 30.1562 10.1564 30.1562 9.92198 30.3125C9.67826 30.3297 9.4537 30.3012 9.21885 30.2344C9.05284 30.0684 9.05284 30.0684 8.98448 29.8437C9.00534 29.5464 9.06769 29.2721 9.14073 28.9844C8.1994 28.9482 7.41175 28.9855 6.71885 29.6875ZM6.2501 33.125C6.2501 33.3312 6.2501 33.5375 6.2501 33.75C15.3251 33.75 24.4001 33.75 33.7501 33.75C33.7501 33.5437 33.7501 33.3375 33.7501 33.125C24.6751 33.125 15.6001 33.125 6.2501 33.125ZM6.2501 35.2344C6.16976 36.8275 6.16976 36.8275 6.89768 38.0856C7.3927 38.5207 7.93652 38.6065 8.57432 38.5986C8.6288 38.5983 8.68329 38.5979 8.73942 38.5976C8.87319 38.5966 9.00696 38.5952 9.14073 38.5937C9.12764 38.5419 9.11454 38.49 9.10105 38.4366C8.97149 37.8748 8.97149 37.8748 9.03331 37.5781C9.16633 37.3846 9.22465 37.3258 9.45323 37.2656C9.85402 37.2529 9.85401 37.2529 10.0782 37.3437C10.2546 37.5303 10.358 37.7388 10.4689 37.9687C10.572 38.175 10.6751 38.3812 10.7814 38.5937C11.3743 38.5937 11.9673 38.5937 12.5782 38.5937C12.5396 38.439 12.5396 38.439 12.5001 38.2812C12.4894 38.1627 12.483 38.0438 12.4806 37.9248C12.4786 37.8651 12.4765 37.8054 12.4745 37.7438C12.5069 37.5341 12.5666 37.4702 12.7345 37.3437C13.0194 37.2699 13.2008 37.2318 13.4758 37.3471C13.7293 37.5447 13.84 37.7759 13.9698 38.0615C14.052 38.2371 14.1342 38.4128 14.2189 38.5937C14.8118 38.5937 15.4048 38.5937 16.0157 38.5937C15.9771 38.439 15.9771 38.439 15.9376 38.2812C15.8934 37.9227 15.8691 37.668 16.0939 37.373C16.4064 37.2298 16.6296 37.2297 16.9532 37.3437C17.315 37.6538 17.4707 38.1658 17.6564 38.5937C18.2751 38.5937 18.8939 38.5937 19.5314 38.5937C19.454 38.4004 19.454 38.4004 19.3751 38.2031C19.3317 37.8556 19.3336 37.7136 19.5411 37.4267C19.7657 37.2656 19.7657 37.2656 20.0001 37.2217C20.2947 37.2769 20.4066 37.3737 20.6251 37.5781C20.8302 37.9066 20.9957 38.2482 21.172 38.5937C21.765 38.5937 22.3579 38.5937 22.9689 38.5937C22.8915 38.4004 22.8915 38.4004 22.8126 38.2031C22.7883 37.9258 22.7822 37.7284 22.8907 37.4707C23.1236 37.2815 23.3752 37.2485 23.672 37.2656C23.8637 37.3153 23.9566 37.3806 24.0676 37.5447C24.1556 37.7003 24.2368 37.8575 24.3165 38.0176C24.4132 38.2077 24.5099 38.3978 24.6095 38.5937C25.2025 38.5937 25.7954 38.5937 26.4064 38.5937C26.3548 38.4648 26.3032 38.3359 26.2501 38.2031C26.2258 37.9258 26.2197 37.7284 26.3282 37.4707C26.5611 37.2815 26.8127 37.2485 27.1095 37.2656C27.3012 37.3153 27.3941 37.3806 27.5051 37.5447C27.5931 37.7003 27.6743 37.8575 27.754 38.0176C27.899 38.3028 27.899 38.3028 28.047 38.5937C28.64 38.5937 29.2329 38.5937 29.8439 38.5937C29.7923 38.439 29.7407 38.2844 29.6876 38.125C29.6714 37.8871 29.707 37.739 29.7657 37.5C29.994 37.2717 30.1423 37.2667 30.464 37.2412C30.6939 37.2794 30.7665 37.3259 30.9175 37.5073C31.0396 37.7091 31.1473 37.9127 31.2501 38.125C31.2901 38.2022 31.2901 38.2022 31.331 38.2809C31.3842 38.3842 31.4348 38.4888 31.4845 38.5937C32.0946 38.6327 32.5919 38.5007 33.0714 38.1103C33.426 37.7776 33.5985 37.408 33.7501 36.9531C33.7501 36.3859 33.7501 35.8187 33.7501 35.2344C24.6751 35.2344 15.6001 35.2344 6.2501 35.2344Z" fill="#575757"/>
<path d="M26.4668 7.89896C28.2324 9.49764 29.561 11.7947 29.6876 14.2187C29.8042 16.9721 29.1689 19.4709 27.3096 21.5722C27.1914 21.6997 27.0726 21.8267 26.9532 21.9531C26.8996 22.0117 26.846 22.0703 26.7908 22.1307C25.6216 23.3648 24.0495 24.1708 22.4219 24.6093C22.3705 24.6232 22.3191 24.6371 22.2661 24.6514C20.6794 25.0551 18.9122 24.962 17.3438 24.5312C17.2656 24.5105 17.2656 24.5105 17.1858 24.4894C15.6503 24.0717 14.3494 23.1921 13.2032 22.1093C13.1446 22.0558 13.086 22.0022 13.0256 21.947C11.3259 20.3368 10.3818 17.9552 10.2909 15.6387C10.2272 12.9281 11.0867 10.4589 12.9444 8.46372C14.4259 6.92471 16.393 5.86268 18.5157 5.54686C18.5723 5.53819 18.6289 5.52953 18.6872 5.52061C21.5194 5.16539 24.3306 6.01645 26.4668 7.89896ZM17.8907 7.18748C17.7949 7.21407 17.6991 7.24065 17.6005 7.26805C15.5966 7.88016 13.8207 9.25465 12.8011 11.0995C12.1324 12.3828 11.7651 13.6853 11.7725 15.1367C11.7729 15.226 11.7733 15.3153 11.7737 15.4073C11.7997 17.2883 12.4891 19.0119 13.6719 20.4687C13.7138 20.5217 13.7557 20.5747 13.7989 20.6292C15.0959 22.2152 17.1679 23.1808 19.1776 23.4012C21.5024 23.6229 23.6055 22.8482 25.4169 21.4184C26.9526 20.124 27.9152 18.221 28.2032 16.25C28.2743 15.0521 28.2695 13.8795 27.8907 12.7343C27.8615 12.6452 27.8323 12.5561 27.8022 12.4643C27.0415 10.3409 25.5416 8.70716 23.5229 7.71488C21.7751 6.88989 19.7646 6.65876 17.8907 7.18748Z" fill="#575757"/>
<path d="M24.6875 9.99999C24.775 10.0757 24.775 10.0757 24.8642 10.1529C26.1695 11.371 26.8605 13.1309 26.9705 14.8871C27.0149 16.7125 26.4451 18.4804 25.176 19.8205C25.0662 19.9334 24.955 20.0448 24.8438 20.1562C24.7809 20.22 24.7181 20.2837 24.6533 20.3494C23.3603 21.5893 21.59 22.1552 19.8218 22.1368C17.9457 22.0789 16.3231 21.3194 15 20C14.9372 19.939 14.8743 19.8779 14.8096 19.8151C13.6203 18.5886 13.062 16.886 13.0273 15.2002C13.0674 13.2394 13.8087 11.557 15.1416 10.1367C17.8066 7.605 21.9525 7.62455 24.6875 9.99999ZM15.899 11.4929C14.8724 12.6763 14.4168 14.1386 14.5151 15.6922C14.6557 17.1456 15.369 18.4425 16.4578 19.4018C17.8589 20.4748 19.3351 20.7816 21.0687 20.5939C22.3871 20.3407 23.6004 19.5425 24.4092 18.4814C25.2976 17.1572 25.6842 15.7092 25.4199 14.1275C25.1262 12.6644 24.2739 11.5023 23.0988 10.6052C20.7729 9.08069 17.7998 9.51093 15.899 11.4929Z" fill="#575757"/>
</g>
<defs>
<clipPath id="clip0_51_523">
<rect width="40" height="40" fill="white"/>
</clipPath>
</defs>
</svg>
